<?xml version="1.0" encoding="utf-8" ?>
<svg xmlns="http://www.w3.org/2000/svg" xmlns:xlink="http://www.w3.org/1999/xlink" width="900" height="520">
	<rect fill="white" width="900" height="520"/>
	<clipPath id="cl_b">
		<rect x="54.6875" y="46.28125" width="830.3125" height="443.75781"/>
	</clipPath>
	<g clip-path="url(#cl_b)">
		<rect fill="#555" x="94.226189" y="400.88409" width="158.15475" height="89.154968"/>
		<rect fill="none" stroke="black" stroke-width="1" stroke-miterlimit="4" x="94.226189" y="400.88409" width="158.15475" height="89.154968"/>
		<rect fill="#1F77B4" x="291.91965" y="175.37442" width="158.15475" height="314.66464"/>
		<rect fill="none" stroke="black" stroke-width="1" stroke-miterlimit="4" x="291.91965" y="175.37442" width="158.15475" height="314.66464"/>
		<rect fill="#FF7F0E" x="489.6131" y="329.07599" width="158.15479" height="160.96307"/>
		<rect fill="none" stroke="black" stroke-width="1" stroke-miterlimit="4" x="489.6131" y="329.07599" width="158.15479" height="160.96307"/>
		<rect fill="#D62728" x="687.30652" y="488.02197" width="158.15479" height="2.0170898"/>
		<rect fill="none" stroke="black" stroke-width="1" stroke-miterlimit="4" x="687.30652" y="488.02197" width="158.15479" height="2.0170898"/>
	</g>
	<clipPath id="cl_c">
		<rect x="54.6875" y="46.28125" width="830.3125" height="443.75781"/>
	</clipPath>
	<g clip-path="url(#cl_c)">
		<text fill="#222" transform="translate(173.304 390.799)" font-size="14" font-weight="600" font-family="Segoe UI" x="-20.046387, -11.993652, -3.940918, -0.14697266, 7.9057617, " y="-6.0292969, ">
				22.1%
		</text>
	</g>
	<clipPath id="cl_d">
		<rect x="54.6875" y="46.28125" width="830.3125" height="443.75781"/>
	</clipPath>
	<g clip-path="url(#cl_d)">
		<text fill="#222" transform="translate(370.997 165.289)" font-size="14" font-weight="600" font-family="Segoe UI" x="-20.046387, -11.993652, -3.940918, -0.14697266, 7.9057617, " y="-6.0292969, ">
				78.0%
		</text>
	</g>
	<clipPath id="cl_e">
		<rect x="54.6875" y="46.28125" width="830.3125" height="443.75781"/>
	</clipPath>
	<g clip-path="url(#cl_e)">
		<text fill="#222" transform="translate(568.69 318.991)" font-size="14" font-weight="600" font-family="Segoe UI" x="-20.046387, -11.993652, -3.940918, -0.14697266, 7.9057617, " y="-6.0292969, ">
				39.9%
		</text>
	</g>
	<clipPath id="cl_f">
		<rect x="54.6875" y="46.28125" width="830.3125" height="443.75781"/>
	</clipPath>
	<g clip-path="url(#cl_f)">
		<text fill="#222" transform="translate(766.384 477.937)" font-size="14" font-weight="600" font-family="Segoe UI" x="-16.02002, -7.9672852, -4.1733398, 3.8793945, " y="-6.0292969, ">
				0.5%
		</text>
	</g>
	<path fill="none" stroke="black" stroke-width="1" stroke-miterlimit="4" d="M173.304 490.039L173.304 494.039"/>
	<text transform="translate(173.304 496.039)" font-size="12" font-family="Segoe UI" x="-21.615234, -14.736328, -8.6308594, -3.5390625, 2.7363281, 5.6425781, 8.5488281, 15.339844, " y="11.027344, ">
			Baseline
	</text>
	<path fill="none" stroke="black" stroke-width="1" stroke-miterlimit="4" d="M370.997 490.039L370.997 494.039"/>
	<text transform="translate(370.997 496.039)" font-size="12" font-family="Segoe UI" x="-53.487305, -45.74707, -43.145508, -39.858398, -36.665039, -29.874023, -26.967773, -22.901367, -15.47168, -8.4404297, 1.8955078, 12.231445, 15.137695, 19.204102, 23.270508, 29.545898, 33.717773, 38.80957, 47.018555, " y="11.027344, ">
			A: InitCommitters=3
	</text>
	<path fill="none" stroke="black" stroke-width="1" stroke-miterlimit="4" d="M568.69 490.039L568.69 494.039"/>
	<text transform="translate(568.69 496.039)" font-size="12" font-family="Segoe UI" x="-21.246094, -14.367188, -11.765625, -8.4785156, -2.5019531, 5.7070313, 12.175781, 14.777344, " y="11.027344, ">
			B: λ=0.2
	</text>
	<path fill="none" stroke="black" stroke-width="1" stroke-miterlimit="4" d="M766.384 490.039L766.384 494.039"/>
	<text transform="translate(766.384 496.039)" font-size="12" font-family="Segoe UI" x="-44.349609, -36.919922, -34.318359, -31.03125, -22.054688, -15.023438, -11.736328, -5.015625, -0.84375, 6.1875, 16.523438, 23.554688, 27.621094, 30.527344, 37.558594, " y="11.027344, ">
			C: No Promotion
	</text>
	<path fill="none" stroke="black" stroke-width="1" stroke-miterlimit="4" d="M54.6875 490.039L885 490.039"/>
	<path fill="none" stroke="black" stroke-width="1" stroke-miterlimit="4" d="M54.6875 46.3812L885 46.3812"/>
	<text transform="matrix(0 -1 1 0 4 268.16)" font-size="16" font-weight="600" font-family="Segoe UI" x="-64.257813, -55.289063, -45.609375, -39.242188, -30.570313, -26.023438, -17.351563, -8.7421875, -4.1953125, 0.21875, 10.664063, 19.273438, 25.5, 34.15625, 38.570313, 44.476563, 58.351563, " y="14.390625, ">
			Survival Rate (%)
	</text>
	<path fill="none" stroke="black" stroke-width="1" stroke-miterlimit="4" d="M54.6875 490.039L50.6875 490.039"/>
	<text transform="translate(45.6875 490.039)" font-size="12" font-family="Segoe UI" x="-6.46875, " y="3.046875, ">
			0
	</text>
	<path fill="none" stroke="black" stroke-width="1" stroke-miterlimit="4" d="M54.6875 449.697L50.6875 449.697"/>
	<text transform="translate(45.6875 449.697)" font-size="12" font-family="Segoe UI" x="-12.9375, -6.46875, " y="3.046875, ">
			10
	</text>
	<path fill="none" stroke="black" stroke-width="1" stroke-miterlimit="4" d="M54.6875 409.356L50.6875 409.356"/>
	<text transform="translate(45.6875 409.356)" font-size="12" font-family="Segoe UI" x="-12.9375, -6.46875, " y="3.046875, ">
			20
	</text>
	<path fill="none" stroke="black" stroke-width="1" stroke-miterlimit="4" d="M54.6875 369.014L50.6875 369.014"/>
	<text transform="translate(45.6875 369.014)" font-size="12" font-family="Segoe UI" x="-12.9375, -6.46875, " y="3.046875, ">
			30
	</text>
	<path fill="none" stroke="black" stroke-width="1" stroke-miterlimit="4" d="M54.6875 328.673L50.6875 328.673"/>
	<text transform="translate(45.6875 328.673)" font-size="12" font-family="Segoe UI" x="-12.9375, -6.46875, " y="3.046875, ">
			40
	</text>
	<path fill="none" stroke="black" stroke-width="1" stroke-miterlimit="4" d="M54.6875 288.331L50.6875 288.331"/>
	<text transform="translate(45.6875 288.331)" font-size="12" font-family="Segoe UI" x="-12.9375, -6.46875, " y="3.046875, ">
			50
	</text>
	<path fill="none" stroke="black" stroke-width="1" stroke-miterlimit="4" d="M54.6875 247.989L50.6875 247.989"/>
	<text transform="translate(45.6875 247.989)" font-size="12" font-family="Segoe UI" x="-12.9375, -6.46875, " y="3.046875, ">
			60
	</text>
	<path fill="none" stroke="black" stroke-width="1" stroke-miterlimit="4" d="M54.6875 207.648L50.6875 207.648"/>
	<text transform="translate(45.6875 207.648)" font-size="12" font-family="Segoe UI" x="-12.9375, -6.46875, " y="3.046875, ">
			70
	</text>
	<path fill="none" stroke="black" stroke-width="1" stroke-miterlimit="4" d="M54.6875 167.306L50.6875 167.306"/>
	<text transform="translate(45.6875 167.306)" font-size="12" font-family="Segoe UI" x="-12.9375, -6.46875, " y="3.046875, ">
			80
	</text>
	<path fill="none" stroke="black" stroke-width="1" stroke-miterlimit="4" d="M54.6875 126.964L50.6875 126.964"/>
	<text transform="translate(45.6875 126.964)" font-size="12" font-family="Segoe UI" x="-12.9375, -6.46875, " y="3.046875, ">
			90
	</text>
	<path fill="none" stroke="black" stroke-width="1" stroke-miterlimit="4" d="M54.6875 86.6229L50.6875 86.6229"/>
	<text transform="translate(45.6875 86.6229)" font-size="12" font-family="Segoe UI" x="-19.40625, -12.9375, -6.46875, " y="3.046875, ">
			100
	</text>
	<path fill="none" stroke="black" stroke-width="1" stroke-miterlimit="4" d="M54.6875 46.2813L50.6875 46.2813"/>
	<text transform="translate(45.6875 46.2813)" font-size="12" font-family="Segoe UI" x="-19.40625, -12.9375, -6.46875, " y="3.046875, ">
			110
	</text>
	<path fill="none" stroke="black" stroke-width="1" stroke-miterlimit="4" d="M54.6875 481.971L52.6875 481.971"/>
	<path fill="none" stroke="black" stroke-width="1" stroke-miterlimit="4" d="M54.6875 473.902L52.6875 473.902"/>
	<path fill="none" stroke="black" stroke-width="1" stroke-miterlimit="4" d="M54.6875 465.834L52.6875 465.834"/>
	<path fill="none" stroke="black" stroke-width="1" stroke-miterlimit="4" d="M54.6875 457.766L52.6875 457.766"/>
	<path fill="none" stroke="black" stroke-width="1" stroke-miterlimit="4" d="M54.6875 441.629L52.6875 441.629"/>
	<path fill="none" stroke="black" stroke-width="1" stroke-miterlimit="4" d="M54.6875 433.561L52.6875 433.561"/>
	<path fill="none" stroke="black" stroke-width="1" stroke-miterlimit="4" d="M54.6875 425.492L52.6875 425.492"/>
	<path fill="none" stroke="black" stroke-width="1" stroke-miterlimit="4" d="M54.6875 417.424L52.6875 417.424"/>
	<path fill="none" stroke="black" stroke-width="1" stroke-miterlimit="4" d="M54.6875 401.288L52.6875 401.288"/>
	<path fill="none" stroke="black" stroke-width="1" stroke-miterlimit="4" d="M54.6875 393.219L52.6875 393.219"/>
	<path fill="none" stroke="black" stroke-width="1" stroke-miterlimit="4" d="M54.6875 385.151L52.6875 385.151"/>
	<path fill="none" stroke="black" stroke-width="1" stroke-miterlimit="4" d="M54.6875 377.083L52.6875 377.083"/>
	<path fill="none" stroke="black" stroke-width="1" stroke-miterlimit="4" d="M54.6875 360.946L52.6875 360.946"/>
	<path fill="none" stroke="black" stroke-width="1" stroke-miterlimit="4" d="M54.6875 352.878L52.6875 352.878"/>
	<path fill="none" stroke="black" stroke-width="1" stroke-miterlimit="4" d="M54.6875 344.809L52.6875 344.809"/>
	<path fill="none" stroke="black" stroke-width="1" stroke-miterlimit="4" d="M54.6875 336.741L52.6875 336.741"/>
	<path fill="none" stroke="black" stroke-width="1" stroke-miterlimit="4" d="M54.6875 320.604L52.6875 320.604"/>
	<path fill="none" stroke="black" stroke-width="1" stroke-miterlimit="4" d="M54.6875 312.536L52.6875 312.536"/>
	<path fill="none" stroke="black" stroke-width="1" stroke-miterlimit="4" d="M54.6875 304.468L52.6875 304.468"/>
	<path fill="none" stroke="black" stroke-width="1" stroke-miterlimit="4" d="M54.6875 296.399L52.6875 296.399"/>
	<path fill="none" stroke="black" stroke-width="1" stroke-miterlimit="4" d="M54.6875 280.263L52.6875 280.263"/>
	<path fill="none" stroke="black" stroke-width="1" stroke-miterlimit="4" d="M54.6875 272.194L52.6875 272.194"/>
	<path fill="none" stroke="black" stroke-width="1" stroke-miterlimit="4" d="M54.6875 264.126L52.6875 264.126"/>
	<path fill="none" stroke="black" stroke-width="1" stroke-miterlimit="4" d="M54.6875 256.058L52.6875 256.058"/>
	<path fill="none" stroke="black" stroke-width="1" stroke-miterlimit="4" d="M54.6875 239.921L52.6875 239.921"/>
	<path fill="none" stroke="black" stroke-width="1" stroke-miterlimit="4" d="M54.6875 231.853L52.6875 231.853"/>
	<path fill="none" stroke="black" stroke-width="1" stroke-miterlimit="4" d="M54.6875 223.784L52.6875 223.784"/>
	<path fill="none" stroke="black" stroke-width="1" stroke-miterlimit="4" d="M54.6875 215.716L52.6875 215.716"/>
	<path fill="none" stroke="black" stroke-width="1" stroke-miterlimit="4" d="M54.6875 199.579L52.6875 199.579"/>
	<path fill="none" stroke="black" stroke-width="1" stroke-miterlimit="4" d="M54.6875 191.511L52.6875 191.511"/>
	<path fill="none" stroke="black" stroke-width="1" stroke-miterlimit="4" d="M54.6875 183.443L52.6875 183.443"/>
	<path fill="none" stroke="black" stroke-width="1" stroke-miterlimit="4" d="M54.6875 175.374L52.6875 175.374"/>
	<path fill="none" stroke="black" stroke-width="1" stroke-miterlimit="4" d="M54.6875 159.238L52.6875 159.238"/>
	<path fill="none" stroke="black" stroke-width="1" stroke-miterlimit="4" d="M54.6875 151.169L52.6875 151.169"/>
	<path fill="none" stroke="black" stroke-width="1" stroke-miterlimit="4" d="M54.6875 143.101L52.6875 143.101"/>
	<path fill="none" stroke="black" stroke-width="1" stroke-miterlimit="4" d="M54.6875 135.033L52.6875 135.033"/>
	<path fill="none" stroke="black" stroke-width="1" stroke-miterlimit="4" d="M54.6875 118.896L52.6875 118.896"/>
	<path fill="none" stroke="black" stroke-width="1" stroke-miterlimit="4" d="M54.6875 110.828L52.6875 110.828"/>
	<path fill="none" stroke="black" stroke-width="1" stroke-miterlimit="4" d="M54.6875 102.76L52.6875 102.76"/>
	<path fill="none" stroke="black" stroke-width="1" stroke-miterlimit="4" d="M54.6875 94.6912L52.6875 94.6912"/>
	<path fill="none" stroke="black" stroke-width="1" stroke-miterlimit="4" d="M54.6875 78.5545L52.6875 78.5545"/>
	<path fill="none" stroke="black" stroke-width="1" stroke-miterlimit="4" d="M54.6875 70.4862L52.6875 70.4862"/>
	<path fill="none" stroke="black" stroke-width="1" stroke-miterlimit="4" d="M54.6875 62.4179L52.6875 62.4179"/>
	<path fill="none" stroke="black" stroke-width="1" stroke-miterlimit="4" d="M54.6875 54.3496L52.6875 54.3496"/>
	<path fill="none" stroke="black" stroke-width="1" stroke-miterlimit="4" d="M54.6875 490.039L54.6875 46.2813"/>
	<path fill="none" stroke="black" stroke-width="1" stroke-miterlimit="4" d="M885 490.039L885 46.2813"/>
	<text transform="translate(469.844 31.2813)" font-size="16" font-weight="600" font-family="Segoe UI" x="-213.27344, -204.30469, -194.625, -188.25781, -179.58594, -175.03906, -166.36719, -157.75781, -153.21094, -148.79688, -138.35156, -129.74219, -123.51563, -114.85938, -110.44531, -100.52344, -91.914063, -87.5, -78.53125, -70.851563, -62.195313, -52.515625, -43.90625, -37.539063, -32.992188, -23.210938, -14.382813, -8.4765625, 4.1640625, 8.578125, 19.890625, 24.304688, 33.507813, 42.710938, 47.046875, 56.25, 65.453125, 74.65625, 79.070313, 85.4375, 95.117188, 104.79688, 111.83594, 116.25, 127.5625, 131.97656, 141.17969, 150.38281, 159.58594, 168.78906, 173.20313, 183.10938, 191.71875, 200.32813, 207.36719, " y="-6.890625, ">
			Survival Rate by Scenario (N = 10,000 runs × 1825 days)
	</text>
</svg>
