<?xml version="1.0" encoding="utf-8" ?>
<svg xmlns="http://www.w3.org/2000/svg" xmlns:xlink="http://www.w3.org/1999/xlink" width="900" height="520">
	<rect fill="white" width="900" height="520"/>
	<path fill="none" stroke="#010101" stroke-width="1" stroke-miterlimit="4" stroke-opacity="0.098039217" d="M56.1406 452.797L56.1406 51.6016M142.256 452.797L142.256 51.6016M228.371 452.797L228.371 51.6016M314.486 452.797L314.486 51.6016M400.602 452.797L400.602 51.6016M486.717 452.797L486.717 51.6016M572.832 452.797L572.832 51.6016M658.947 452.797L658.947 51.6016M745.063 452.797L745.063 51.6016M831.178 452.797L831.178 51.6016"/>
	<path fill="none" stroke="#010101" stroke-width="1" stroke-miterlimit="4" stroke-opacity="0.098039217" d="M56.1406 438.208L885 438.208M56.1406 401.736L885 401.736M56.1406 365.263L885 365.263M56.1406 328.791L885 328.791M56.1406 292.319L885 292.319M56.1406 255.846L885 255.846M56.1406 219.374L885 219.374M56.1406 182.902L885 182.902M56.1406 146.43L885 146.43M56.1406 109.957L885 109.957M56.1406 73.485L885 73.485"/>
	<clipPath id="cl_4">
		<rect x="56.140625" y="51.601563" width="828.85938" height="401.19531"/>
	</clipPath>
	<g clip-path="url(#cl_4)">
		<path fill="#AAA" d="M841.442 452.797L841.442 442.797L842.442 442.797L842.442 452.797M841.442 432.797L841.442 422.797L842.442 422.797L842.442 432.797M841.442 412.797L841.442 402.797L842.442 402.797L842.442 412.797M841.442 392.797L841.442 382.797L842.442 382.797L842.442 392.797M841.442 372.797L841.442 362.797L842.442 362.797L842.442 372.797M841.442 352.797L841.442 342.797L842.442 342.797L842.442 352.797M841.442 332.797L841.442 322.797L842.442 322.797L842.442 332.797M841.442 312.797L841.442 302.797L842.442 302.797L842.442 312.797M841.442 292.797L841.442 282.797L842.442 282.797L842.442 292.797M841.442 272.797L841.442 262.797L842.442 262.797L842.442 272.797M841.442 252.797L841.442 242.797L842.442 242.797L842.442 252.797M841.442 232.797L841.442 222.797L842.442 222.797L842.442 232.797M841.442 212.797L841.442 202.797L842.442 202.797L842.442 212.797M841.442 192.797L841.442 182.797L842.442 182.797L842.442 192.797M841.442 172.797L841.442 162.797L842.442 162.797L842.442 172.797M841.442 152.797L841.442 142.797L842.442 142.797L842.442 152.797M841.442 132.797L841.442 122.797L842.442 122.797L842.442 132.797M841.442 112.797L841.442 102.797L842.442 102.797L842.442 112.797M841.442 92.7969L841.442 82.7969L842.442 82.7969L842.442 92.7969M841.442 72.7969L841.442 62.7969L842.442 62.7969L842.442 72.7969M841.442 52.7969L841.442 51.6016L842.442 51.6016L842.442 52.7969"/>
	</g>
	<clipPath id="cl_5">
		<rect x="56.140625" y="51.601563" width="828.85938" height="401.19531"/>
	</clipPath>
	<g clip-path="url(#cl_5)">
		<path fill="none" stroke="#555" stroke-width="2.4000001" stroke-miterlimit="4" d="M56.1406 73.485L58.2935 86.3961L60.4464 111.744L62.5993 134.54L64.7522 156.824L66.905 175.279L69.0579 190.816L71.2108 205.369L73.3637 217.332L75.5166 227.945L77.6694 237.756L79.8223 246.035L81.9752 253.366L84.1281 259.713L86.281 266.46L88.4338 271.712L90.5867 276.818L92.7396 281.669L94.8925 286.374L97.0454 290.969L99.1983 294.689L101.351 297.935L103.504 300.999L105.657 303.771L107.81 306.397L109.963 308.95L112.116 310.774L114.268 313.035L116.421 314.822L118.574 316.901L120.727 319.126L122.88 320.804L125.033 322.117L127.186 323.831L129.339 325.18L131.491 326.676L133.644 327.879L135.797 328.9L137.95 330.031L140.103 331.198L142.256 331.928L144.409 332.839L146.562 333.934L148.715 334.991L150.867 335.794L153.02 336.341L155.173 337.326L157.326 338.019L159.479 338.784L161.632 339.404L163.785 339.806L165.938 340.316L168.09 340.936L170.243 341.483L172.396 342.103L174.549 342.541L176.702 343.161L178.855 343.745L181.008 344.109L183.161 344.438L185.314 345.021L187.466 345.204L189.619 345.422L191.772 345.787L193.925 346.152L196.078 346.371L198.231 346.772L200.384 347.027L202.537 347.283L204.689 347.538L206.842 347.866L208.995 348.012L211.148 348.377L213.301 348.486L215.454 348.814L217.607 349.033L219.76 349.143L221.913 349.325L224.065 349.434L226.218 349.617L228.371 349.763L230.524 349.872L232.677 350.054L234.83 350.164L236.983 350.2L239.136 350.273L241.288 350.31L243.441 350.383L245.594 350.529L247.747 350.711L249.9 350.82L252.053 350.93L254.206 350.93L256.359 351.258L258.511 351.44L260.664 351.477L262.817 351.623L264.97 351.842L267.123 351.987L269.276 352.279L271.429 352.352L273.582 352.389L275.735 352.425L277.887 352.571L280.04 352.68L282.193 352.753L284.346 352.79L286.499 352.972L288.652 353.009L290.805 353.082L292.958 353.191L295.11 353.3L297.263 353.483L299.416 353.556L301.569 353.629L303.722 353.738L305.875 353.811L308.028 353.811L310.181 353.92L312.334 353.993L314.486 353.993L316.639 354.03L318.792 354.03L320.945 354.103L323.098 354.103L325.251 354.139L327.404 354.176L329.557 354.322L331.709 354.358L333.862 354.395L336.015 354.468L338.168 354.54L340.321 354.65L342.474 354.686L344.627 354.759L346.78 354.832L348.932 354.869L351.085 354.869L353.238 354.905L355.391 354.905L357.544 355.015L359.697 355.051L361.85 355.124L364.003 355.124L366.156 355.161L368.308 355.197L370.461 355.197L372.614 355.306L374.767 355.343L376.92 355.343L379.073 355.343L381.226 355.343L383.379 355.343L385.531 355.379L387.684 355.416L389.837 355.452L391.99 355.525L394.143 355.525L396.296 355.562L398.449 355.598L400.602 355.598L402.755 355.708L404.907 355.744L407.06 355.744L409.213 355.744L411.366 355.744L413.519 355.781L415.672 355.781L417.825 355.781L419.978 355.781L422.13 355.854L424.283 355.854L426.436 355.854L428.589 355.854L430.742 355.89L432.895 355.926L435.048 356.036L437.201 356.072L439.354 356.072L441.506 356.072L443.659 356.072L445.812 356.072L447.965 356.109L450.118 356.109L452.271 356.145L454.424 356.182L456.577 356.182L458.729 356.182L460.882 356.182L463.035 356.218L465.188 356.328L467.341 356.437L469.494 356.437L471.647 356.474L473.8 356.546L475.953 356.546L478.105 356.583L480.258 356.619L482.411 356.619L484.564 356.619L486.717 356.656L488.87 356.692L491.023 356.692L493.176 356.692L495.328 356.692L497.481 356.729L499.634 356.729L501.787 356.765L503.94 356.765L506.093 356.765L508.246 356.765L510.399 356.765L512.552 356.765L514.704 356.765L516.857 356.802L519.01 356.802L521.163 356.802L523.316 356.802L525.469 356.802L527.622 356.802L529.775 356.802L531.927 356.802L534.08 356.802L536.233 356.802L538.386 356.802L540.539 356.838L542.692 356.875L544.845 356.875L546.998 356.875L549.151 356.875L551.303 356.875L553.456 356.875L555.609 356.875L557.762 356.875L559.915 356.875L562.068 356.875L564.221 356.875L566.374 356.875L568.526 356.875L570.679 356.911L572.832 356.911L574.985 356.911L577.138 356.911L579.291 356.911L581.444 356.911L583.597 356.911L585.749 356.911L587.902 356.911L590.055 356.911L592.208 356.911L594.361 356.911L596.514 356.948L598.667 356.948L600.82 356.984L602.973 356.984L605.125 356.984L607.278 356.984L609.431 356.984L611.584 356.984L613.737 356.984L615.89 357.021L618.043 357.021L620.196 357.057L622.348 357.13L624.501 357.13L626.654 357.13L628.807 357.13L630.96 357.13L633.113 357.13L635.266 357.13L637.419 357.13L639.572 357.13L641.724 357.167L643.877 357.167L646.03 357.167L648.183 357.167L650.336 357.167L652.489 357.167L654.642 357.167L656.795 357.167L658.947 357.167L661.1 357.167L663.253 357.167L665.406 357.167L667.559 357.203L669.712 357.203L671.865 357.203L674.018 357.203L676.17 357.203L678.323 357.203L680.476 357.203L682.629 357.203L684.782 357.203L686.935 357.203L689.088 357.203L691.241 357.203L693.394 357.203L695.546 357.203L697.699 357.203L699.852 357.203L702.005 357.203L704.158 357.203L706.311 357.203L708.464 357.203L710.617 357.203L712.769 357.203L714.922 357.203L717.075 357.203L719.228 357.203L721.381 357.203L723.534 357.203L725.687 357.203L727.84 357.239L729.993 357.239L732.145 357.239L734.298 357.239L736.451 357.239L738.604 357.239L740.757 357.239L742.91 357.239L745.063 357.239L747.216 357.239L749.368 357.239L751.521 357.239L753.674 357.239L755.827 357.239L757.98 357.239L760.133 357.239L762.286 357.239L764.439 357.239L766.591 357.239L768.744 357.239L770.897 357.239L773.05 357.239L775.203 357.239L777.356 357.239L779.509 357.239L781.662 357.276L783.815 357.276L785.967 357.276L788.12 357.312L790.273 357.312L792.426 357.312L794.579 357.312L796.732 357.312L798.885 357.312L801.038 357.312L803.19 357.312L805.343 357.312L807.496 357.312L809.649 357.312L811.802 357.312L813.955 357.312L816.108 357.312L818.261 357.312L820.414 357.312L822.566 357.312L824.719 357.312L826.872 357.312L829.025 357.312L831.178 357.312L833.331 357.312L835.484 357.312L837.637 357.312L839.789 357.312L841.942 357.604"/>
	</g>
	<clipPath id="cl_6">
		<rect x="56.140625" y="51.601563" width="828.85938" height="401.19531"/>
	</clipPath>
	<g clip-path="url(#cl_6)">
		<path fill="none" stroke="#1F77B4" stroke-width="2.4000001" stroke-miterlimit="4" d="M56.1406 73.485L58.2935 73.8497L60.4464 74.8709L62.5993 77.1322L64.7522 79.8676L66.905 82.6395L69.0579 85.9949L71.2108 89.7881L73.3637 93.7271L75.5166 96.5719L77.6694 99.5627L79.8223 101.933L81.9752 104.413L84.1281 106.784L86.281 109.629L88.4338 112.109L90.5867 114.37L92.7396 116.23L94.8925 118.091L97.0454 119.841L99.1983 120.935L101.351 122.759L103.504 123.817L105.657 125.567L107.81 127.172L109.963 128.339L112.116 129.032L114.268 130.126L116.421 131.403L118.574 132.424L120.727 133.263L122.88 133.847L125.033 134.685L127.186 135.451L129.339 136.327L131.491 137.02L133.644 137.567L135.797 138.077L137.95 138.661L140.103 139.682L142.256 140.375L144.409 140.849L146.562 141.36L148.715 141.652L150.867 142.016L153.02 142.381L155.173 142.746L157.326 143.038L159.479 143.147L161.632 143.475L163.785 143.767L165.938 143.986L168.09 144.278L170.243 144.533L172.396 145.044L174.549 145.372L176.702 145.773L178.855 146.211L181.008 146.466L183.161 146.721L185.314 146.904L187.466 147.086L189.619 147.195L191.772 147.341L193.925 147.524L196.078 147.597L198.231 147.67L200.384 147.852L202.537 147.961L204.689 148.107L206.842 148.29L208.995 148.399L211.148 148.545L213.301 148.545L215.454 148.691L217.607 148.764L219.76 148.837L221.913 148.873L224.065 148.946L226.218 149.019L228.371 149.129L230.524 149.274L232.677 149.384L234.83 149.493L236.983 149.566L239.136 149.566L241.288 149.603L243.441 149.712L245.594 149.749L247.747 149.821L249.9 149.894L252.053 149.967L254.206 150.15L256.359 150.186L258.511 150.259L260.664 150.296L262.817 150.441L264.97 150.478L267.123 150.514L269.276 150.624L271.429 150.733L273.582 150.77L275.735 150.879L277.887 150.916L280.04 151.025L282.193 151.062L284.346 151.134L286.499 151.134L288.652 151.28L290.805 151.317L292.958 151.353L295.11 151.353L297.263 151.39L299.416 151.39L301.569 151.463L303.722 151.536L305.875 151.572L308.028 151.609L310.181 151.682L312.334 151.718L314.486 151.755L316.639 151.791L318.792 151.791L320.945 151.827L323.098 151.937L325.251 152.01L327.404 152.046L329.557 152.046L331.709 152.046L333.862 152.046L336.015 152.119L338.168 152.119L340.321 152.156L342.474 152.192L344.627 152.229L346.78 152.229L348.932 152.229L351.085 152.229L353.238 152.265L355.391 152.338L357.544 152.338L359.697 152.411L361.85 152.411L364.003 152.447L366.156 152.557L368.308 152.593L370.461 152.63L372.614 152.666L374.767 152.666L376.92 152.666L379.073 152.703L381.226 152.739L383.379 152.739L385.531 152.739L387.684 152.739L389.837 152.739L391.99 152.739L394.143 152.739L396.296 152.776L398.449 152.812L400.602 152.812L402.755 152.812L404.907 152.812L407.06 152.812L409.213 152.849L411.366 152.849L413.519 152.849L415.672 152.885L417.825 152.885L419.978 152.922L422.13 152.922L424.283 153.031L426.436 153.031L428.589 153.031L430.742 153.031L432.895 153.068L435.048 153.068L437.201 153.068L439.354 153.068L441.506 153.068L443.659 153.104L445.812 153.104L447.965 153.104L450.118 153.104L452.271 153.104L454.424 153.104L456.577 153.104L458.729 153.104L460.882 153.14L463.035 153.14L465.188 153.213L467.341 153.213L469.494 153.25L471.647 153.25L473.8 153.286L475.953 153.286L478.105 153.286L480.258 153.286L482.411 153.286L484.564 153.323L486.717 153.323L488.87 153.323L491.023 153.323L493.176 153.323L495.328 153.359L497.481 153.359L499.634 153.359L501.787 153.359L503.94 153.359L506.093 153.396L508.246 153.396L510.399 153.396L512.552 153.396L514.704 153.396L516.857 153.396L519.01 153.432L521.163 153.432L523.316 153.432L525.469 153.432L527.622 153.432L529.775 153.432L531.927 153.432L534.08 153.432L536.233 153.469L538.386 153.469L540.539 153.469L542.692 153.469L544.845 153.469L546.998 153.469L549.151 153.469L551.303 153.469L553.456 153.469L555.609 153.469L557.762 153.469L559.915 153.469L562.068 153.469L564.221 153.469L566.374 153.469L568.526 153.469L570.679 153.469L572.832 153.469L574.985 153.469L577.138 153.469L579.291 153.469L581.444 153.469L583.597 153.469L585.749 153.469L587.902 153.469L590.055 153.469L592.208 153.469L594.361 153.469L596.514 153.469L598.667 153.469L600.82 153.469L602.973 153.505L605.125 153.505L607.278 153.505L609.431 153.505L611.584 153.505L613.737 153.505L615.89 153.505L618.043 153.505L620.196 153.505L622.348 153.505L624.501 153.505L626.654 153.505L628.807 153.505L630.96 153.505L633.113 153.542L635.266 153.542L637.419 153.542L639.572 153.542L641.724 153.542L643.877 153.542L646.03 153.542L648.183 153.542L650.336 153.542L652.489 153.542L654.642 153.542L656.795 153.542L658.947 153.542L661.1 153.542L663.253 153.542L665.406 153.542L667.559 153.542L669.712 153.542L671.865 153.542L674.018 153.542L676.17 153.542L678.323 153.542L680.476 153.542L682.629 153.542L684.782 153.542L686.935 153.542L689.088 153.542L691.241 153.542L693.394 153.542L695.546 153.542L697.699 153.542L699.852 153.542L702.005 153.542L704.158 153.542L706.311 153.542L708.464 153.542L710.617 153.542L712.769 153.542L714.922 153.542L717.075 153.542L719.228 153.542L721.381 153.542L723.534 153.542L725.687 153.542L727.84 153.542L729.993 153.542L732.145 153.542L734.298 153.542L736.451 153.542L738.604 153.542L740.757 153.542L742.91 153.542L745.063 153.542L747.216 153.542L749.368 153.542L751.521 153.542L753.674 153.542L755.827 153.542L757.98 153.542L760.133 153.542L762.286 153.542L764.439 153.542L766.591 153.542L768.744 153.542L770.897 153.542L773.05 153.542L775.203 153.542L777.356 153.542L779.509 153.542L781.662 153.542L783.815 153.542L785.967 153.542L788.12 153.542L790.273 153.542L792.426 153.578L794.579 153.578L796.732 153.578L798.885 153.578L801.038 153.578L803.19 153.578L805.343 153.578L807.496 153.578L809.649 153.578L811.802 153.578L813.955 153.578L816.108 153.578L818.261 153.578L820.414 153.578L822.566 153.578L824.719 153.578L826.872 153.578L829.025 153.578L831.178 153.578L833.331 153.615L835.484 153.615L837.637 153.615L839.789 153.615L841.942 153.724"/>
	</g>
	<clipPath id="cl_7">
		<rect x="56.140625" y="51.601563" width="828.85938" height="401.19531"/>
	</clipPath>
	<g clip-path="url(#cl_7)">
		<path fill="none" stroke="#FF7F0E" stroke-width="2.4000001" stroke-miterlimit="4" d="M56.1406 73.485L58.2935 128.303L60.4464 174.294L62.5993 202.779L64.7522 223.678L66.905 236.808L69.0579 246.838L71.2108 254.497L73.3637 260.478L75.5166 264.709L77.6694 268.356L79.8223 271.42L81.9752 273.718L84.1281 276.307L86.281 278.277L88.4338 280.392L90.5867 281.486L92.7396 283.055L94.8925 283.967L97.0454 284.587L99.1983 285.243L101.351 285.79L103.504 286.191L105.657 286.666L107.81 286.994L109.963 287.468L112.116 287.869L114.268 288.088L116.421 288.416L118.574 288.635L120.727 289L122.88 289.182L125.033 289.547L127.186 289.802L129.339 289.948L131.491 290.24L133.644 290.459L135.797 290.532L137.95 290.605L140.103 290.787L142.256 290.896L144.409 291.079L146.562 291.225L148.715 291.261L150.867 291.334L153.02 291.37L155.173 291.443L157.326 291.589L159.479 291.662L161.632 291.662L163.785 291.662L165.938 291.699L168.09 291.735L170.243 291.772L172.396 291.772L174.549 291.881L176.702 291.918L178.855 291.954L181.008 291.99L183.161 291.99L185.314 292.027L187.466 292.063L189.619 292.136L191.772 292.173L193.925 292.173L196.078 292.173L198.231 292.173L200.384 292.173L202.537 292.209L204.689 292.209L206.842 292.209L208.995 292.209L211.148 292.209L213.301 292.282L215.454 292.282L217.607 292.282L219.76 292.282L221.913 292.282L224.065 292.319L226.218 292.319L228.371 292.319L230.524 292.319L232.677 292.319L234.83 292.392L236.983 292.392L239.136 292.392L241.288 292.392L243.441 292.465L245.594 292.465L247.747 292.465L249.9 292.501L252.053 292.538L254.206 292.538L256.359 292.574L258.511 292.574L260.664 292.574L262.817 292.574L264.97 292.574L267.123 292.574L269.276 292.574L271.429 292.611L273.582 292.647L275.735 292.647L277.887 292.647L280.04 292.647L282.193 292.647L284.346 292.647L286.499 292.647L288.652 292.647L290.805 292.647L292.958 292.647L295.11 292.683L297.263 292.683L299.416 292.683L301.569 292.683L303.722 292.683L305.875 292.683L308.028 292.683L310.181 292.683L312.334 292.683L314.486 292.683L316.639 292.683L318.792 292.683L320.945 292.683L323.098 292.683L325.251 292.683L327.404 292.683L329.557 292.683L331.709 292.683L333.862 292.683L336.015 292.683L338.168 292.683L340.321 292.683L342.474 292.683L344.627 292.683L346.78 292.683L348.932 292.683L351.085 292.683L353.238 292.683L355.391 292.683L357.544 292.683L359.697 292.683L361.85 292.683L364.003 292.683L366.156 292.683L368.308 292.683L370.461 292.683L372.614 292.683L374.767 292.683L376.92 292.683L379.073 292.683L381.226 292.683L383.379 292.683L385.531 292.683L387.684 292.683L389.837 292.683L391.99 292.683L394.143 292.683L396.296 292.683L398.449 292.683L400.602 292.683L402.755 292.683L404.907 292.683L407.06 292.683L409.213 292.683L411.366 292.683L413.519 292.683L415.672 292.683L417.825 292.683L419.978 292.683L422.13 292.683L424.283 292.683L426.436 292.683L428.589 292.683L430.742 292.683L432.895 292.683L435.048 292.683L437.201 292.683L439.354 292.683L441.506 292.683L443.659 292.683L445.812 292.683L447.965 292.683L450.118 292.683L452.271 292.683L454.424 292.683L456.577 292.683L458.729 292.683L460.882 292.683L463.035 292.683L465.188 292.683L467.341 292.683L469.494 292.683L471.647 292.683L473.8 292.683L475.953 292.683L478.105 292.683L480.258 292.683L482.411 292.683L484.564 292.683L486.717 292.683L488.87 292.683L491.023 292.683L493.176 292.683L495.328 292.683L497.481 292.683L499.634 292.683L501.787 292.683L503.94 292.683L506.093 292.683L508.246 292.683L510.399 292.683L512.552 292.683L514.704 292.683L516.857 292.683L519.01 292.683L521.163 292.683L523.316 292.683L525.469 292.683L527.622 292.683L529.775 292.683L531.927 292.683L534.08 292.683L536.233 292.683L538.386 292.683L540.539 292.683L542.692 292.683L544.845 292.683L546.998 292.683L549.151 292.683L551.303 292.683L553.456 292.683L555.609 292.683L557.762 292.683L559.915 292.683L562.068 292.683L564.221 292.683L566.374 292.683L568.526 292.683L570.679 292.683L572.832 292.683L574.985 292.683L577.138 292.683L579.291 292.683L581.444 292.683L583.597 292.683L585.749 292.683L587.902 292.683L590.055 292.683L592.208 292.683L594.361 292.683L596.514 292.683L598.667 292.683L600.82 292.683L602.973 292.683L605.125 292.683L607.278 292.683L609.431 292.683L611.584 292.683L613.737 292.683L615.89 292.683L618.043 292.683L620.196 292.683L622.348 292.683L624.501 292.683L626.654 292.683L628.807 292.683L630.96 292.683L633.113 292.683L635.266 292.683L637.419 292.683L639.572 292.683L641.724 292.683L643.877 292.683L646.03 292.683L648.183 292.683L650.336 292.683L652.489 292.683L654.642 292.683L656.795 292.683L658.947 292.683L661.1 292.683L663.253 292.683L665.406 292.683L667.559 292.683L669.712 292.683L671.865 292.683L674.018 292.683L676.17 292.683L678.323 292.683L680.476 292.683L682.629 292.683L684.782 292.683L686.935 292.683L689.088 292.683L691.241 292.683L693.394 292.683L695.546 292.683L697.699 292.683L699.852 292.683L702.005 292.683L704.158 292.683L706.311 292.683L708.464 292.683L710.617 292.683L712.769 292.683L714.922 292.683L717.075 292.683L719.228 292.683L721.381 292.683L723.534 292.683L725.687 292.683L727.84 292.683L729.993 292.683L732.145 292.683L734.298 292.683L736.451 292.683L738.604 292.683L740.757 292.683L742.91 292.683L745.063 292.683L747.216 292.683L749.368 292.683L751.521 292.683L753.674 292.683L755.827 292.683L757.98 292.683L760.133 292.683L762.286 292.683L764.439 292.683L766.591 292.683L768.744 292.683L770.897 292.683L773.05 292.683L775.203 292.683L777.356 292.683L779.509 292.683L781.662 292.683L783.815 292.683L785.967 292.683L788.12 292.683L790.273 292.683L792.426 292.683L794.579 292.683L796.732 292.683L798.885 292.683L801.038 292.683L803.19 292.683L805.343 292.683L807.496 292.683L809.649 292.683L811.802 292.683L813.955 292.683L816.108 292.683L818.261 292.683L820.414 292.683L822.566 292.683L824.719 292.683L826.872 292.683L829.025 292.683L831.178 292.683L833.331 292.683L835.484 292.683L837.637 292.683L839.789 292.683L841.942 292.683"/>
	</g>
	<clipPath id="cl_8">
		<rect x="56.140625" y="51.601563" width="828.85938" height="401.19531"/>
	</clipPath>
	<g clip-path="url(#cl_8)">
		<path fill="none" stroke="#D62728" stroke-width="2.4000001" stroke-miterlimit="4" d="M56.1406 73.485L58.2935 74.5426L60.4464 80.1594L62.5993 88.2198L64.7522 99.3073L66.905 111.197L69.0579 122.941L71.2108 134.904L73.3637 145.518L75.5166 156.897L77.6694 168.131L79.8223 176.957L81.9752 187.315L84.1281 196.579L86.281 205.259L88.4338 213.539L90.5867 220.979L92.7396 228.784L94.8925 235.969L97.0454 242.716L99.1983 248.406L101.351 254.935L103.504 260.187L105.657 266.132L107.81 271.493L109.963 277L112.116 281.414L114.268 285.936L116.421 290.203L118.574 294.069L120.727 298.483L122.88 302.567L125.033 307.054L127.186 310.81L129.339 314.421L131.491 317.849L133.644 321.533L135.797 324.633L137.95 327.843L140.103 330.469L142.256 333.022L144.409 335.538L146.562 338.055L148.715 340.863L150.867 343.234L153.02 345.422L155.173 348.34L157.326 350.419L159.479 352.389L161.632 354.577L163.785 356.546L165.938 358.662L168.09 360.668L170.243 362.309L172.396 363.659L174.549 365.883L176.702 367.306L178.855 368.874L181.008 369.968L183.161 371.281L185.314 372.74L187.466 374.199L189.619 375.476L191.772 376.643L193.925 377.81L196.078 379.123L198.231 380.363L200.384 381.494L202.537 382.442L204.689 383.645L206.842 384.74L208.995 385.797L211.148 386.891L213.301 388.35L215.454 389.299L217.607 390.721L219.76 391.414L221.913 392.326L224.065 393.165L226.218 393.748L228.371 394.551L230.524 395.426L232.677 395.9L234.83 396.848L236.983 397.724L239.136 398.49L241.288 399.438L243.441 400.131L245.594 400.641L247.747 401.371L249.9 401.918L252.053 402.465L254.206 403.158L256.359 403.851L258.511 404.69L260.664 405.492L262.817 406.112L264.97 406.623L267.123 407.206L269.276 407.754L271.429 408.191L273.582 408.848L275.735 409.395L277.887 409.76L280.04 410.161L282.193 410.817L284.346 411.291L286.499 411.62L288.652 411.875L290.805 412.349L292.958 412.714L295.11 413.115L297.263 413.48L299.416 413.808L301.569 414.136L303.722 414.61L305.875 414.647L308.028 414.866L310.181 415.267L312.334 415.741L314.486 416.033L316.639 416.106L318.792 416.361L320.945 416.653L323.098 416.945L325.251 417.309L327.404 417.747L329.557 417.783L331.709 417.893L333.862 418.185L336.015 418.404L338.168 418.659L340.321 418.732L342.474 418.805L344.627 419.06L346.78 419.206L348.932 419.498L351.085 419.68L353.238 419.899L355.391 420.081L357.544 420.409L359.697 420.665L361.85 420.993L364.003 421.175L366.156 421.321L368.308 421.431L370.461 421.613L372.614 421.978L374.767 422.087L376.92 422.197L379.073 422.379L381.226 422.634L383.379 422.707L385.531 422.817L387.684 422.999L389.837 423.254L391.99 423.473L394.143 423.656L396.296 423.801L398.449 423.911L400.602 424.093L402.755 424.385L404.907 424.531L407.06 424.677L409.213 424.823L411.366 424.932L413.519 425.041L415.672 425.078L417.825 425.224L419.978 425.297L422.13 425.443L424.283 425.516L426.436 425.734L428.589 425.807L430.742 425.953L432.895 426.099L435.048 426.391L437.201 426.61L439.354 426.719L441.506 426.829L443.659 426.974L445.812 427.011L447.965 427.047L450.118 427.193L452.271 427.193L454.424 427.376L456.577 427.485L458.729 427.558L460.882 427.813L463.035 427.813L465.188 427.886L467.341 428.032L469.494 428.105L471.647 428.142L473.8 428.36L475.953 428.397L478.105 428.47L480.258 428.543L482.411 428.652L484.564 428.689L486.717 428.725L488.87 428.835L491.023 428.98L493.176 429.053L495.328 429.09L497.481 429.199L499.634 429.309L501.787 429.345L503.94 429.382L506.093 429.455L508.246 429.491L510.399 429.6L512.552 429.6L514.704 429.6L516.857 429.637L519.01 429.673L521.163 429.783L523.316 429.783L525.469 429.819L527.622 429.856L529.775 429.929L531.927 429.965L534.08 430.038L536.233 430.038L538.386 430.111L540.539 430.148L542.692 430.184L544.845 430.184L546.998 430.221L549.151 430.257L551.303 430.293L553.456 430.293L555.609 430.293L557.762 430.439L559.915 430.512L562.068 430.585L564.221 430.622L566.374 430.695L568.526 430.731L570.679 430.768L572.832 430.768L574.985 430.804L577.138 430.841L579.291 430.877L581.444 430.95L583.597 431.023L585.749 431.132L587.902 431.169L590.055 431.205L592.208 431.205L594.361 431.205L596.514 431.351L598.667 431.424L600.82 431.424L602.973 431.497L605.125 431.534L607.278 431.534L609.431 431.643L611.584 431.643L613.737 431.679L615.89 431.825L618.043 431.898L620.196 431.971L622.348 432.117L624.501 432.117L626.654 432.19L628.807 432.227L630.96 432.263L633.113 432.263L635.266 432.299L637.419 432.336L639.572 432.372L641.724 432.409L643.877 432.409L646.03 432.445L648.183 432.445L650.336 432.445L652.489 432.445L654.642 432.445L656.795 432.445L658.947 432.518L661.1 432.518L663.253 432.591L665.406 432.628L667.559 432.664L669.712 432.737L671.865 432.737L674.018 432.774L676.17 432.847L678.323 432.883L680.476 432.919L682.629 432.956L684.782 432.956L686.935 433.029L689.088 433.102L691.241 433.102L693.394 433.102L695.546 433.138L697.699 433.138L699.852 433.138L702.005 433.138L704.158 433.138L706.311 433.175L708.464 433.175L710.617 433.211L712.769 433.211L714.922 433.248L717.075 433.248L719.228 433.284L721.381 433.284L723.534 433.284L725.687 433.284L727.84 433.357L729.993 433.357L732.145 433.357L734.298 433.357L736.451 433.357L738.604 433.357L740.757 433.357L742.91 433.394L745.063 433.394L747.216 433.467L749.368 433.503L751.521 433.539L753.674 433.539L755.827 433.539L757.98 433.612L760.133 433.649L762.286 433.685L764.439 433.758L766.591 433.758L768.744 433.795L770.897 433.795L773.05 433.795L775.203 433.868L777.356 433.904L779.509 433.941L781.662 433.941L783.815 433.977L785.967 433.977L788.12 434.014L790.273 434.05L792.426 434.087L794.579 434.087L796.732 434.123L798.885 434.123L801.038 434.123L803.19 434.123L805.343 434.123L807.496 434.123L809.649 434.123L811.802 434.123L813.955 434.123L816.108 434.16L818.261 434.16L820.414 434.16L822.566 434.196L824.719 434.232L826.872 434.232L829.025 434.269L831.178 434.305L833.331 434.305L835.484 434.305L837.637 434.305L839.789 434.305L841.942 436.384"/>
	</g>
	<rect fill="#010101" fill-opacity="0.2" x="662.22266" y="61.601563" width="218.77734" height="91.84375"/>
	<rect fill="white" x="659.22266" y="58.601563" width="218.77734" height="91.84375"/>
	<rect fill="none" stroke="black" stroke-width="1" stroke-miterlimit="4" x="659.22266" y="58.601563" width="218.77734" height="91.84375"/>
	<clipPath id="cl_9">
		<rect x="668.22266" y="62.601563" width="200.77734" height="83.84375"/>
	</clipPath>
	<g clip-path="url(#cl_9)">
		<text transform="translate(694.223 71.582)" font-size="12" font-family="Segoe UI" x="0, 6.8789063, 12.984375, 18.076172, 24.351563, 27.257813, 30.164063, 36.955078, 43.230469, 49.804688, 53.425781, 59.800781, 63.087891, 71.296875, 74.583984, 81.052734, 87.521484, 90.123047, 96.591797, 106.41211, " y="3.046875, ">
				Baseline (S = 22.1%)
		</text>
		<path fill="none" stroke="#555" stroke-width="2.4000001" stroke-miterlimit="4" d="M689.223 71.582L669.223 71.582"/>
		<text transform="translate(694.223 93.543)" font-size="12" font-family="Segoe UI" x="0, 7.7402344, 10.341797, 13.628906, 16.822266, 23.613281, 26.519531, 30.585938, 38.015625, 45.046875, 55.382813, 65.71875, 68.625, 72.691406, 76.757813, 83.033203, 87.205078, 92.296875, 100.50586, 106.97461, 113.54883, 117.16992, 123.54492, 126.83203, 135.04102, 138.32813, 144.79688, 151.26563, 153.86719, 160.33594, 170.15625, " y="3.046875, ">
				A: InitCommitters=3 (S = 78.0%)
		</text>
		<path fill="none" stroke="#1F77B4" stroke-width="2.4000001" stroke-miterlimit="4" d="M689.223 93.543L669.223 93.543"/>
		<text transform="translate(694.223 115.504)" font-size="12" font-family="Segoe UI" x="0, 6.8789063, 9.4804688, 12.767578, 18.744141, 26.953125, 33.421875, 36.023438, 42.492188, 49.066406, 52.6875, 59.0625, 62.349609, 70.558594, 73.845703, 80.314453, 86.783203, 89.384766, 95.853516, 105.67383, " y="3.046875, ">
				B: λ=0.2 (S = 39.9%)
		</text>
		<path fill="none" stroke="#FF7F0E" stroke-width="2.4000001" stroke-miterlimit="4" d="M689.223 115.504L669.223 115.504"/>
		<text transform="translate(694.223 137.465)" font-size="12" font-family="Segoe UI" x="0, 7.4296875, 10.03125, 13.318359, 22.294922, 29.326172, 32.613281, 39.333984, 43.505859, 50.537109, 60.873047, 67.904297, 71.970703, 74.876953, 81.908203, 88.699219, 95.273438, 98.894531, 105.26953, 108.55664, 116.76563, 120.05273, 126.52148, 129.12305, 135.5918, 145.41211, " y="3.046875, ">
				C: No Promotion (S = 0.5%)
		</text>
		<path fill="none" stroke="#D62728" stroke-width="2.4000001" stroke-miterlimit="4" d="M689.223 137.465L669.223 137.465"/>
	</g>
	<text transform="translate(470.57 516)" font-size="20" font-weight="600" font-family="Segoe UI" x="-52.602539, -41.391602, -33.608398, -22.788086, -10.385742, -4.8681641, 2.5146484, 14.897461, 25.65918, 36.420898, 45.219727, " y="-8.6132813, ">
			Step (days)
	</text>
	<path fill="none" stroke="black" stroke-width="1" stroke-miterlimit="4" d="M56.1406 452.797L56.1406 456.797"/>
	<text transform="translate(56.1406 458.797)" font-size="20" font-family="Segoe UI" x="-5.390625, " y="18.378906, ">
			0
	</text>
	<path fill="none" stroke="black" stroke-width="1" stroke-miterlimit="4" d="M142.256 452.797L142.256 456.797"/>
	<text transform="translate(142.256 458.797)" font-size="20" font-family="Segoe UI" x="-16.171875, -5.390625, 5.390625, " y="18.378906, ">
			200
	</text>
	<path fill="none" stroke="black" stroke-width="1" stroke-miterlimit="4" d="M228.371 452.797L228.371 456.797"/>
	<text transform="translate(228.371 458.797)" font-size="20" font-family="Segoe UI" x="-16.171875, -5.390625, 5.390625, " y="18.378906, ">
			400
	</text>
	<path fill="none" stroke="black" stroke-width="1" stroke-miterlimit="4" d="M314.486 452.797L314.486 456.797"/>
	<text transform="translate(314.486 458.797)" font-size="20" font-family="Segoe UI" x="-16.171875, -5.390625, 5.390625, " y="18.378906, ">
			600
	</text>
	<path fill="none" stroke="black" stroke-width="1" stroke-miterlimit="4" d="M400.602 452.797L400.602 456.797"/>
	<text transform="translate(400.602 458.797)" font-size="20" font-family="Segoe UI" x="-16.171875, -5.390625, 5.390625, " y="18.378906, ">
			800
	</text>
	<path fill="none" stroke="black" stroke-width="1" stroke-miterlimit="4" d="M486.717 452.797L486.717 456.797"/>
	<text transform="translate(486.717 458.797)" font-size="20" font-family="Segoe UI" x="-23.730469, -12.949219, -8.6132813, 2.1679688, 12.949219, " y="18.378906, ">
			1,000
	</text>
	<path fill="none" stroke="black" stroke-width="1" stroke-miterlimit="4" d="M572.832 452.797L572.832 456.797"/>
	<text transform="translate(572.832 458.797)" font-size="20" font-family="Segoe UI" x="-23.730469, -12.949219, -8.6132813, 2.1679688, 12.949219, " y="18.378906, ">
			1,200
	</text>
	<path fill="none" stroke="black" stroke-width="1" stroke-miterlimit="4" d="M658.947 452.797L658.947 456.797"/>
	<text transform="translate(658.947 458.797)" font-size="20" font-family="Segoe UI" x="-23.730469, -12.949219, -8.6132813, 2.1679688, 12.949219, " y="18.378906, ">
			1,400
	</text>
	<path fill="none" stroke="black" stroke-width="1" stroke-miterlimit="4" d="M745.063 452.797L745.063 456.797"/>
	<text transform="translate(745.063 458.797)" font-size="20" font-family="Segoe UI" x="-23.730469, -12.949219, -8.6132813, 2.1679688, 12.949219, " y="18.378906, ">
			1,600
	</text>
	<path fill="none" stroke="black" stroke-width="1" stroke-miterlimit="4" d="M831.178 452.797L831.178 456.797"/>
	<text transform="translate(831.178 458.797)" font-size="20" font-family="Segoe UI" x="-23.730469, -12.949219, -8.6132813, 2.1679688, 12.949219, " y="18.378906, ">
			1,800
	</text>
	<path fill="none" stroke="black" stroke-width="1" stroke-miterlimit="4" d="M73.3637 452.797L73.3637 454.797"/>
	<path fill="none" stroke="black" stroke-width="1" stroke-miterlimit="4" d="M90.5867 452.797L90.5867 454.797"/>
	<path fill="none" stroke="black" stroke-width="1" stroke-miterlimit="4" d="M107.81 452.797L107.81 454.797"/>
	<path fill="none" stroke="black" stroke-width="1" stroke-miterlimit="4" d="M125.033 452.797L125.033 454.797"/>
	<path fill="none" stroke="black" stroke-width="1" stroke-miterlimit="4" d="M159.479 452.797L159.479 454.797"/>
	<path fill="none" stroke="black" stroke-width="1" stroke-miterlimit="4" d="M176.702 452.797L176.702 454.797"/>
	<path fill="none" stroke="black" stroke-width="1" stroke-miterlimit="4" d="M193.925 452.797L193.925 454.797"/>
	<path fill="none" stroke="black" stroke-width="1" stroke-miterlimit="4" d="M211.148 452.797L211.148 454.797"/>
	<path fill="none" stroke="black" stroke-width="1" stroke-miterlimit="4" d="M245.594 452.797L245.594 454.797"/>
	<path fill="none" stroke="black" stroke-width="1" stroke-miterlimit="4" d="M262.817 452.797L262.817 454.797"/>
	<path fill="none" stroke="black" stroke-width="1" stroke-miterlimit="4" d="M280.04 452.797L280.04 454.797"/>
	<path fill="none" stroke="black" stroke-width="1" stroke-miterlimit="4" d="M297.263 452.797L297.263 454.797"/>
	<path fill="none" stroke="black" stroke-width="1" stroke-miterlimit="4" d="M331.709 452.797L331.709 454.797"/>
	<path fill="none" stroke="black" stroke-width="1" stroke-miterlimit="4" d="M348.932 452.797L348.932 454.797"/>
	<path fill="none" stroke="black" stroke-width="1" stroke-miterlimit="4" d="M366.156 452.797L366.156 454.797"/>
	<path fill="none" stroke="black" stroke-width="1" stroke-miterlimit="4" d="M383.379 452.797L383.379 454.797"/>
	<path fill="none" stroke="black" stroke-width="1" stroke-miterlimit="4" d="M417.825 452.797L417.825 454.797"/>
	<path fill="none" stroke="black" stroke-width="1" stroke-miterlimit="4" d="M435.048 452.797L435.048 454.797"/>
	<path fill="none" stroke="black" stroke-width="1" stroke-miterlimit="4" d="M452.271 452.797L452.271 454.797"/>
	<path fill="none" stroke="black" stroke-width="1" stroke-miterlimit="4" d="M469.494 452.797L469.494 454.797"/>
	<path fill="none" stroke="black" stroke-width="1" stroke-miterlimit="4" d="M503.94 452.797L503.94 454.797"/>
	<path fill="none" stroke="black" stroke-width="1" stroke-miterlimit="4" d="M521.163 452.797L521.163 454.797"/>
	<path fill="none" stroke="black" stroke-width="1" stroke-miterlimit="4" d="M538.386 452.797L538.386 454.797"/>
	<path fill="none" stroke="black" stroke-width="1" stroke-miterlimit="4" d="M555.609 452.797L555.609 454.797"/>
	<path fill="none" stroke="black" stroke-width="1" stroke-miterlimit="4" d="M590.055 452.797L590.055 454.797"/>
	<path fill="none" stroke="black" stroke-width="1" stroke-miterlimit="4" d="M607.278 452.797L607.278 454.797"/>
	<path fill="none" stroke="black" stroke-width="1" stroke-miterlimit="4" d="M624.501 452.797L624.501 454.797"/>
	<path fill="none" stroke="black" stroke-width="1" stroke-miterlimit="4" d="M641.724 452.797L641.724 454.797"/>
	<path fill="none" stroke="black" stroke-width="1" stroke-miterlimit="4" d="M676.17 452.797L676.17 454.797"/>
	<path fill="none" stroke="black" stroke-width="1" stroke-miterlimit="4" d="M693.394 452.797L693.394 454.797"/>
	<path fill="none" stroke="black" stroke-width="1" stroke-miterlimit="4" d="M710.617 452.797L710.617 454.797"/>
	<path fill="none" stroke="black" stroke-width="1" stroke-miterlimit="4" d="M727.84 452.797L727.84 454.797"/>
	<path fill="none" stroke="black" stroke-width="1" stroke-miterlimit="4" d="M762.286 452.797L762.286 454.797"/>
	<path fill="none" stroke="black" stroke-width="1" stroke-miterlimit="4" d="M779.509 452.797L779.509 454.797"/>
	<path fill="none" stroke="black" stroke-width="1" stroke-miterlimit="4" d="M796.732 452.797L796.732 454.797"/>
	<path fill="none" stroke="black" stroke-width="1" stroke-miterlimit="4" d="M813.955 452.797L813.955 454.797"/>
	<path fill="none" stroke="black" stroke-width="1" stroke-miterlimit="4" d="M848.401 452.797L848.401 454.797"/>
	<path fill="none" stroke="black" stroke-width="1" stroke-miterlimit="4" d="M865.624 452.797L865.624 454.797"/>
	<path fill="none" stroke="black" stroke-width="1" stroke-miterlimit="4" d="M882.847 452.797L882.847 454.797"/>
	<path fill="none" stroke="black" stroke-width="1" stroke-miterlimit="4" d="M56.1406 452.797L885 452.797"/>
	<path fill="none" stroke="black" stroke-width="1" stroke-miterlimit="4" d="M56.1406 51.7016L885 51.7016"/>
	<text transform="matrix(0 -1 1 0 4 252.199)" font-size="20" font-weight="600" font-family="Segoe UI" x="-76.762695, -64.477539, -57.094727, -46.333008, -40.649414, -34.96582, -24.125977, -13.305664, -7.7880859, 2.9736328, 10.756836, 16.274414, 25.073242, 32.856445, 43.676758, 56.079102, 61.59668, 69.379883, " y="17.988281, ">
			P(alive at step t)
	</text>
	<path fill="none" stroke="black" stroke-width="1" stroke-miterlimit="4" d="M56.1406 438.208L52.1406 438.208"/>
	<text transform="translate(47.1406 438.208)" font-size="12" font-family="Segoe UI" x="-6.46875, " y="3.046875, ">
			0
	</text>
	<path fill="none" stroke="black" stroke-width="1" stroke-miterlimit="4" d="M56.1406 401.736L52.1406 401.736"/>
	<text transform="translate(47.1406 401.736)" font-size="12" font-family="Segoe UI" x="-15.539063, -9.0703125, -6.46875, " y="3.046875, ">
			0.1
	</text>
	<path fill="none" stroke="black" stroke-width="1" stroke-miterlimit="4" d="M56.1406 365.263L52.1406 365.263"/>
	<text transform="translate(47.1406 365.263)" font-size="12" font-family="Segoe UI" x="-15.539063, -9.0703125, -6.46875, " y="3.046875, ">
			0.2
	</text>
	<path fill="none" stroke="black" stroke-width="1" stroke-miterlimit="4" d="M56.1406 328.791L52.1406 328.791"/>
	<text transform="translate(47.1406 328.791)" font-size="12" font-family="Segoe UI" x="-15.539063, -9.0703125, -6.46875, " y="3.046875, ">
			0.3
	</text>
	<path fill="none" stroke="black" stroke-width="1" stroke-miterlimit="4" d="M56.1406 292.319L52.1406 292.319"/>
	<text transform="translate(47.1406 292.319)" font-size="12" font-family="Segoe UI" x="-15.539063, -9.0703125, -6.46875, " y="3.046875, ">
			0.4
	</text>
	<path fill="none" stroke="black" stroke-width="1" stroke-miterlimit="4" d="M56.1406 255.846L52.1406 255.846"/>
	<text transform="translate(47.1406 255.846)" font-size="12" font-family="Segoe UI" x="-15.539063, -9.0703125, -6.46875, " y="3.046875, ">
			0.5
	</text>
	<path fill="none" stroke="black" stroke-width="1" stroke-miterlimit="4" d="M56.1406 219.374L52.1406 219.374"/>
	<text transform="translate(47.1406 219.374)" font-size="12" font-family="Segoe UI" x="-15.539063, -9.0703125, -6.46875, " y="3.046875, ">
			0.6
	</text>
	<path fill="none" stroke="black" stroke-width="1" stroke-miterlimit="4" d="M56.1406 182.902L52.1406 182.902"/>
	<text transform="translate(47.1406 182.902)" font-size="12" font-family="Segoe UI" x="-15.539063, -9.0703125, -6.46875, " y="3.046875, ">
			0.7
	</text>
	<path fill="none" stroke="black" stroke-width="1" stroke-miterlimit="4" d="M56.1406 146.43L52.1406 146.43"/>
	<text transform="translate(47.1406 146.43)" font-size="12" font-family="Segoe UI" x="-15.539063, -9.0703125, -6.46875, " y="3.046875, ">
			0.8
	</text>
	<path fill="none" stroke="black" stroke-width="1" stroke-miterlimit="4" d="M56.1406 109.957L52.1406 109.957"/>
	<text transform="translate(47.1406 109.957)" font-size="12" font-family="Segoe UI" x="-15.539063, -9.0703125, -6.46875, " y="3.046875, ">
			0.9
	</text>
	<path fill="none" stroke="black" stroke-width="1" stroke-miterlimit="4" d="M56.1406 73.485L52.1406 73.485"/>
	<text transform="translate(47.1406 73.485)" font-size="12" font-family="Segoe UI" x="-6.46875, " y="3.046875, ">
			1
	</text>
	<path fill="none" stroke="black" stroke-width="1" stroke-miterlimit="4" d="M56.1406 445.502L54.1406 445.502"/>
	<path fill="none" stroke="black" stroke-width="1" stroke-miterlimit="4" d="M56.1406 430.913L54.1406 430.913"/>
	<path fill="none" stroke="black" stroke-width="1" stroke-miterlimit="4" d="M56.1406 423.619L54.1406 423.619"/>
	<path fill="none" stroke="black" stroke-width="1" stroke-miterlimit="4" d="M56.1406 416.325L54.1406 416.325"/>
	<path fill="none" stroke="black" stroke-width="1" stroke-miterlimit="4" d="M56.1406 409.03L54.1406 409.03"/>
	<path fill="none" stroke="black" stroke-width="1" stroke-miterlimit="4" d="M56.1406 394.441L54.1406 394.441"/>
	<path fill="none" stroke="black" stroke-width="1" stroke-miterlimit="4" d="M56.1406 387.147L54.1406 387.147"/>
	<path fill="none" stroke="black" stroke-width="1" stroke-miterlimit="4" d="M56.1406 379.852L54.1406 379.852"/>
	<path fill="none" stroke="black" stroke-width="1" stroke-miterlimit="4" d="M56.1406 372.558L54.1406 372.558"/>
	<path fill="none" stroke="black" stroke-width="1" stroke-miterlimit="4" d="M56.1406 357.969L54.1406 357.969"/>
	<path fill="none" stroke="black" stroke-width="1" stroke-miterlimit="4" d="M56.1406 350.674L54.1406 350.674"/>
	<path fill="none" stroke="black" stroke-width="1" stroke-miterlimit="4" d="M56.1406 343.38L54.1406 343.38"/>
	<path fill="none" stroke="black" stroke-width="1" stroke-miterlimit="4" d="M56.1406 336.086L54.1406 336.086"/>
	<path fill="none" stroke="black" stroke-width="1" stroke-miterlimit="4" d="M56.1406 321.497L54.1406 321.497"/>
	<path fill="none" stroke="black" stroke-width="1" stroke-miterlimit="4" d="M56.1406 314.202L54.1406 314.202"/>
	<path fill="none" stroke="black" stroke-width="1" stroke-miterlimit="4" d="M56.1406 306.908L54.1406 306.908"/>
	<path fill="none" stroke="black" stroke-width="1" stroke-miterlimit="4" d="M56.1406 299.613L54.1406 299.613"/>
	<path fill="none" stroke="black" stroke-width="1" stroke-miterlimit="4" d="M56.1406 285.024L54.1406 285.024"/>
	<path fill="none" stroke="black" stroke-width="1" stroke-miterlimit="4" d="M56.1406 277.73L54.1406 277.73"/>
	<path fill="none" stroke="black" stroke-width="1" stroke-miterlimit="4" d="M56.1406 270.435L54.1406 270.435"/>
	<path fill="none" stroke="black" stroke-width="1" stroke-miterlimit="4" d="M56.1406 263.141L54.1406 263.141"/>
	<path fill="none" stroke="black" stroke-width="1" stroke-miterlimit="4" d="M56.1406 248.552L54.1406 248.552"/>
	<path fill="none" stroke="black" stroke-width="1" stroke-miterlimit="4" d="M56.1406 241.258L54.1406 241.258"/>
	<path fill="none" stroke="black" stroke-width="1" stroke-miterlimit="4" d="M56.1406 233.963L54.1406 233.963"/>
	<path fill="none" stroke="black" stroke-width="1" stroke-miterlimit="4" d="M56.1406 226.669L54.1406 226.669"/>
	<path fill="none" stroke="black" stroke-width="1" stroke-miterlimit="4" d="M56.1406 212.08L54.1406 212.08"/>
	<path fill="none" stroke="black" stroke-width="1" stroke-miterlimit="4" d="M56.1406 204.785L54.1406 204.785"/>
	<path fill="none" stroke="black" stroke-width="1" stroke-miterlimit="4" d="M56.1406 197.491L54.1406 197.491"/>
	<path fill="none" stroke="black" stroke-width="1" stroke-miterlimit="4" d="M56.1406 190.196L54.1406 190.196"/>
	<path fill="none" stroke="black" stroke-width="1" stroke-miterlimit="4" d="M56.1406 175.607L54.1406 175.607"/>
	<path fill="none" stroke="black" stroke-width="1" stroke-miterlimit="4" d="M56.1406 168.313L54.1406 168.313"/>
	<path fill="none" stroke="black" stroke-width="1" stroke-miterlimit="4" d="M56.1406 161.018L54.1406 161.018"/>
	<path fill="none" stroke="black" stroke-width="1" stroke-miterlimit="4" d="M56.1406 153.724L54.1406 153.724"/>
	<path fill="none" stroke="black" stroke-width="1" stroke-miterlimit="4" d="M56.1406 139.135L54.1406 139.135"/>
	<path fill="none" stroke="black" stroke-width="1" stroke-miterlimit="4" d="M56.1406 131.841L54.1406 131.841"/>
	<path fill="none" stroke="black" stroke-width="1" stroke-miterlimit="4" d="M56.1406 124.546L54.1406 124.546"/>
	<path fill="none" stroke="black" stroke-width="1" stroke-miterlimit="4" d="M56.1406 117.252L54.1406 117.252"/>
	<path fill="none" stroke="black" stroke-width="1" stroke-miterlimit="4" d="M56.1406 102.663L54.1406 102.663"/>
	<path fill="none" stroke="black" stroke-width="1" stroke-miterlimit="4" d="M56.1406 95.3683L54.1406 95.3683"/>
	<path fill="none" stroke="black" stroke-width="1" stroke-miterlimit="4" d="M56.1406 88.0739L54.1406 88.0739"/>
	<path fill="none" stroke="black" stroke-width="1" stroke-miterlimit="4" d="M56.1406 80.7794L54.1406 80.7794"/>
	<path fill="none" stroke="black" stroke-width="1" stroke-miterlimit="4" d="M56.1406 66.1905L54.1406 66.1905"/>
	<path fill="none" stroke="black" stroke-width="1" stroke-miterlimit="4" d="M56.1406 58.896L54.1406 58.896"/>
	<path fill="none" stroke="black" stroke-width="1" stroke-miterlimit="4" d="M56.1406 51.6016L54.1406 51.6016"/>
	<path fill="none" stroke="black" stroke-width="1" stroke-miterlimit="4" d="M56.1406 452.797L56.1406 51.6016"/>
	<path fill="none" stroke="black" stroke-width="1" stroke-miterlimit="4" d="M885 452.797L885 51.6016"/>
	<text transform="translate(470.57 36.6016)" font-size="20" font-weight="600" font-family="Segoe UI" x="-217.17285, -205.96191, -193.8623, -185.90332, -175.06348, -169.37988, -158.54004, -147.77832, -142.09473, -136.57715, -124.09668, -111.99707, -104.03809, -93.198242, -82.37793, -73.579102, -68.061523, -55.65918, -44.897461, -39.379883, -28.168945, -18.569336, -7.7490234, 4.3505859, 15.112305, 23.071289, 28.754883, 40.981445, 52.016602, 59.399414, 75.200195, 80.717773, 94.858398, 100.37598, 111.87988, 123.38379, 128.80371, 140.30762, 151.81152, 163.31543, 168.83301, 176.79199, 188.8916, 200.99121, 209.79004, " y="-8.6132813, ">
			Survival Curves by Scenario (N = 10,000 runs)
	</text>
</svg>
