<?xml version="1.0" encoding="utf-8" ?>
<svg xmlns="http://www.w3.org/2000/svg" xmlns:xlink="http://www.w3.org/1999/xlink" width="900" height="520">
	<rect fill="white" width="900" height="520"/>
	<path fill="none" stroke="#010101" stroke-width="1" stroke-miterlimit="4" stroke-opacity="0.098039217" d="M56.1406 452.797L56.1406 51.6016M142.256 452.797L142.256 51.6016M228.371 452.797L228.371 51.6016M314.486 452.797L314.486 51.6016M400.602 452.797L400.602 51.6016M486.717 452.797L486.717 51.6016M572.832 452.797L572.832 51.6016M658.947 452.797L658.947 51.6016M745.063 452.797L745.063 51.6016M831.178 452.797L831.178 51.6016"/>
	<path fill="none" stroke="#010101" stroke-width="1" stroke-miterlimit="4" stroke-opacity="0.098039217" d="M56.1406 439.855L885 439.855M56.1406 407.501L885 407.501M56.1406 375.146L885 375.146M56.1406 342.792L885 342.792M56.1406 310.437L885 310.437M56.1406 278.083L885 278.083M56.1406 245.728L885 245.728M56.1406 213.374L885 213.374M56.1406 181.019L885 181.019M56.1406 148.665L885 148.665M56.1406 116.31L885 116.31M56.1406 83.956L885 83.956"/>
	<clipPath id="cl_4">
		<rect x="56.140625" y="51.601563" width="828.85938" height="401.19531"/>
	</clipPath>
	<g clip-path="url(#cl_4)">
		<path fill="#AAA" d="M841.442 452.797L841.442 442.797L842.442 442.797L842.442 452.797M841.442 432.797L841.442 422.797L842.442 422.797L842.442 432.797M841.442 412.797L841.442 402.797L842.442 402.797L842.442 412.797M841.442 392.797L841.442 382.797L842.442 382.797L842.442 392.797M841.442 372.797L841.442 362.797L842.442 362.797L842.442 372.797M841.442 352.797L841.442 342.797L842.442 342.797L842.442 352.797M841.442 332.797L841.442 322.797L842.442 322.797L842.442 332.797M841.442 312.797L841.442 302.797L842.442 302.797L842.442 312.797M841.442 292.797L841.442 282.797L842.442 282.797L842.442 292.797M841.442 272.797L841.442 262.797L842.442 262.797L842.442 272.797M841.442 252.797L841.442 242.797L842.442 242.797L842.442 252.797M841.442 232.797L841.442 222.797L842.442 222.797L842.442 232.797M841.442 212.797L841.442 202.797L842.442 202.797L842.442 212.797M841.442 192.797L841.442 182.797L842.442 182.797L842.442 192.797M841.442 172.797L841.442 162.797L842.442 162.797L842.442 172.797M841.442 152.797L841.442 142.797L842.442 142.797L842.442 152.797M841.442 132.797L841.442 122.797L842.442 122.797L842.442 132.797M841.442 112.797L841.442 102.797L842.442 102.797L842.442 112.797M841.442 92.7969L841.442 82.7969L842.442 82.7969L842.442 92.7969M841.442 72.7969L841.442 62.7969L842.442 62.7969L842.442 72.7969M841.442 52.7969L841.442 51.6016L842.442 51.6016L842.442 52.7969"/>
	</g>
	<clipPath id="cl_5">
		<rect x="56.140625" y="51.601563" width="828.85938" height="401.19531"/>
	</clipPath>
	<g clip-path="url(#cl_5)">
		<path fill="none" stroke="#555" stroke-width="2.4000001" stroke-miterlimit="4" d="M56.1406 116.31L58.2935 127.764L60.4464 150.25L62.5993 170.472L64.7522 190.24L66.905 206.612L69.0579 220.395L71.2108 233.304L73.3637 243.916L75.5166 253.332L77.6694 262.035L79.8223 269.379L81.9752 275.883L84.1281 281.512L86.281 287.498L88.4338 292.157L90.5867 296.687L92.7396 300.99L94.8925 305.163L97.0454 309.24L99.1983 312.54L101.351 315.42L103.504 318.138L105.657 320.597L107.81 322.926L109.963 325.191L112.116 326.809L114.268 328.815L116.421 330.4L118.574 332.244L120.727 334.218L122.88 335.706L125.033 336.871L127.186 338.392L129.339 339.589L131.491 340.915L133.644 341.983L135.797 342.889L137.95 343.892L140.103 344.927L142.256 345.574L144.409 346.383L146.562 347.354L148.715 348.292L150.867 349.004L153.02 349.489L155.173 350.363L157.326 350.977L159.479 351.657L161.632 352.207L163.785 352.563L165.938 353.016L168.09 353.566L170.243 354.051L172.396 354.601L174.549 354.989L176.702 355.539L178.855 356.057L181.008 356.381L183.161 356.672L185.314 357.189L187.466 357.351L189.619 357.545L191.772 357.869L193.925 358.192L196.078 358.387L198.231 358.742L200.384 358.969L202.537 359.195L204.689 359.422L206.842 359.713L208.995 359.842L211.148 360.166L213.301 360.263L215.454 360.554L217.607 360.748L219.76 360.845L221.913 361.007L224.065 361.104L226.218 361.266L228.371 361.396L230.524 361.493L232.677 361.654L234.83 361.751L236.983 361.784L239.136 361.848L241.288 361.881L243.441 361.946L245.594 362.075L247.747 362.237L249.9 362.334L252.053 362.431L254.206 362.431L256.359 362.722L258.511 362.884L260.664 362.916L262.817 363.046L264.97 363.24L267.123 363.369L269.276 363.628L271.429 363.693L273.582 363.725L275.735 363.757L277.887 363.887L280.04 363.984L282.193 364.049L284.346 364.081L286.499 364.243L288.652 364.275L290.805 364.34L292.958 364.437L295.11 364.534L297.263 364.696L299.416 364.76L301.569 364.825L303.722 364.922L305.875 364.987L308.028 364.987L310.181 365.084L312.334 365.149L314.486 365.149L316.639 365.181L318.792 365.181L320.945 365.246L323.098 365.246L325.251 365.278L327.404 365.31L329.557 365.44L331.709 365.472L333.862 365.505L336.015 365.569L338.168 365.634L340.321 365.731L342.474 365.763L344.627 365.828L346.78 365.893L348.932 365.925L351.085 365.925L353.238 365.958L355.391 365.958L357.544 366.055L359.697 366.087L361.85 366.152L364.003 366.152L366.156 366.184L368.308 366.216L370.461 366.216L372.614 366.313L374.767 366.346L376.92 366.346L379.073 366.346L381.226 366.346L383.379 366.346L385.531 366.378L387.684 366.41L389.837 366.443L391.99 366.508L394.143 366.508L396.296 366.54L398.449 366.572L400.602 366.572L402.755 366.669L404.907 366.702L407.06 366.702L409.213 366.702L411.366 366.702L413.519 366.734L415.672 366.734L417.825 366.734L419.978 366.734L422.13 366.799L424.283 366.799L426.436 366.799L428.589 366.799L430.742 366.831L432.895 366.863L435.048 366.96L437.201 366.993L439.354 366.993L441.506 366.993L443.659 366.993L445.812 366.993L447.965 367.025L450.118 367.025L452.271 367.058L454.424 367.09L456.577 367.09L458.729 367.09L460.882 367.09L463.035 367.122L465.188 367.219L467.341 367.316L469.494 367.316L471.647 367.349L473.8 367.413L475.953 367.413L478.105 367.446L480.258 367.478L482.411 367.478L484.564 367.478L486.717 367.51L488.87 367.543L491.023 367.543L493.176 367.543L495.328 367.543L497.481 367.575L499.634 367.575L501.787 367.608L503.94 367.608L506.093 367.608L508.246 367.608L510.399 367.608L512.552 367.608L514.704 367.608L516.857 367.64L519.01 367.64L521.163 367.64L523.316 367.64L525.469 367.64L527.622 367.64L529.775 367.64L531.927 367.64L534.08 367.64L536.233 367.64L538.386 367.64L540.539 367.672L542.692 367.705L544.845 367.705L546.998 367.705L549.151 367.705L551.303 367.705L553.456 367.705L555.609 367.705L557.762 367.705L559.915 367.705L562.068 367.705L564.221 367.705L566.374 367.705L568.526 367.705L570.679 367.737L572.832 367.737L574.985 367.737L577.138 367.737L579.291 367.737L581.444 367.737L583.597 367.737L585.749 367.737L587.902 367.737L590.055 367.737L592.208 367.737L594.361 367.737L596.514 367.769L598.667 367.769L600.82 367.802L602.973 367.802L605.125 367.802L607.278 367.802L609.431 367.802L611.584 367.802L613.737 367.802L615.89 367.834L618.043 367.834L620.196 367.866L622.348 367.931L624.501 367.931L626.654 367.931L628.807 367.931L630.96 367.931L633.113 367.931L635.266 367.931L637.419 367.931L639.572 367.931L641.724 367.963L643.877 367.963L646.03 367.963L648.183 367.963L650.336 367.963L652.489 367.963L654.642 367.963L656.795 367.963L658.947 367.963L661.1 367.963L663.253 367.963L665.406 367.963L667.559 367.996L669.712 367.996L671.865 367.996L674.018 367.996L676.17 367.996L678.323 367.996L680.476 367.996L682.629 367.996L684.782 367.996L686.935 367.996L689.088 367.996L691.241 367.996L693.394 367.996L695.546 367.996L697.699 367.996L699.852 367.996L702.005 367.996L704.158 367.996L706.311 367.996L708.464 367.996L710.617 367.996L712.769 367.996L714.922 367.996L717.075 367.996L719.228 367.996L721.381 367.996L723.534 367.996L725.687 367.996L727.84 368.028L729.993 368.028L732.145 368.028L734.298 368.028L736.451 368.028L738.604 368.028L740.757 368.028L742.91 368.028L745.063 368.028L747.216 368.028L749.368 368.028L751.521 368.028L753.674 368.028L755.827 368.028L757.98 368.028L760.133 368.028L762.286 368.028L764.439 368.028L766.591 368.028L768.744 368.028L770.897 368.028L773.05 368.028L775.203 368.028L777.356 368.028L779.509 368.028L781.662 368.061L783.815 368.061L785.967 368.061L788.12 368.093L790.273 368.093L792.426 368.093L794.579 368.093L796.732 368.093L798.885 368.093L801.038 368.093L803.19 368.093L805.343 368.093L807.496 368.093L809.649 368.093L811.802 368.093L813.955 368.093L816.108 368.093L818.261 368.093L820.414 368.093L822.566 368.093L824.719 368.093L826.872 368.093L829.025 368.093L831.178 368.093L833.331 368.093L835.484 368.093L837.637 368.093L839.789 368.093L841.942 368.352"/>
	</g>
	<clipPath id="cl_6">
		<rect x="56.140625" y="51.601563" width="828.85938" height="401.19531"/>
	</clipPath>
	<g clip-path="url(#cl_6)">
		<path fill="none" stroke="#1F77B4" stroke-width="2.4000001" stroke-miterlimit="4" d="M56.1406 116.31L58.2935 116.634L60.4464 117.54L62.5993 119.546L64.7522 121.973L66.905 124.431L69.0579 127.408L71.2108 130.773L73.3637 134.267L75.5166 136.791L77.6694 139.444L79.8223 141.547L81.9752 143.747L84.1281 145.85L86.281 148.374L88.4338 150.574L90.5867 152.58L92.7396 154.23L94.8925 155.88L97.0454 157.433L99.1983 158.404L101.351 160.021L103.504 160.96L105.657 162.513L107.81 163.936L109.963 164.972L112.116 165.586L114.268 166.557L116.421 167.689L118.574 168.595L120.727 169.339L122.88 169.857L125.033 170.601L127.186 171.281L129.339 172.057L131.491 172.672L133.644 173.157L135.797 173.61L137.95 174.128L140.103 175.034L142.256 175.649L144.409 176.069L146.562 176.522L148.715 176.781L150.867 177.105L153.02 177.428L155.173 177.752L157.326 178.01L159.479 178.108L161.632 178.399L163.785 178.658L165.938 178.852L168.09 179.111L170.243 179.337L172.396 179.79L174.549 180.081L176.702 180.437L178.855 180.825L181.008 181.052L183.161 181.278L185.314 181.44L187.466 181.602L189.619 181.699L191.772 181.828L193.925 181.99L196.078 182.055L198.231 182.119L200.384 182.281L202.537 182.378L204.689 182.508L206.842 182.669L208.995 182.767L211.148 182.896L213.301 182.896L215.454 183.025L217.607 183.09L219.76 183.155L221.913 183.187L224.065 183.252L226.218 183.317L228.371 183.414L230.524 183.543L232.677 183.64L234.83 183.737L236.983 183.802L239.136 183.802L241.288 183.834L243.441 183.931L245.594 183.964L247.747 184.028L249.9 184.093L252.053 184.158L254.206 184.32L256.359 184.352L258.511 184.417L260.664 184.449L262.817 184.578L264.97 184.611L267.123 184.643L269.276 184.74L271.429 184.837L273.582 184.87L275.735 184.967L277.887 184.999L280.04 185.096L282.193 185.128L284.346 185.193L286.499 185.193L288.652 185.323L290.805 185.355L292.958 185.387L295.11 185.387L297.263 185.42L299.416 185.42L301.569 185.484L303.722 185.549L305.875 185.581L308.028 185.614L310.181 185.678L312.334 185.711L314.486 185.743L316.639 185.776L318.792 185.776L320.945 185.808L323.098 185.905L325.251 185.97L327.404 186.002L329.557 186.002L331.709 186.002L333.862 186.002L336.015 186.067L338.168 186.067L340.321 186.099L342.474 186.131L344.627 186.164L346.78 186.164L348.932 186.164L351.085 186.164L353.238 186.196L355.391 186.261L357.544 186.261L359.697 186.326L361.85 186.326L364.003 186.358L366.156 186.455L368.308 186.487L370.461 186.52L372.614 186.552L374.767 186.552L376.92 186.552L379.073 186.584L381.226 186.617L383.379 186.617L385.531 186.617L387.684 186.617L389.837 186.617L391.99 186.617L394.143 186.617L396.296 186.649L398.449 186.681L400.602 186.681L402.755 186.681L404.907 186.681L407.06 186.681L409.213 186.714L411.366 186.714L413.519 186.714L415.672 186.746L417.825 186.746L419.978 186.779L422.13 186.779L424.283 186.876L426.436 186.876L428.589 186.876L430.742 186.876L432.895 186.908L435.048 186.908L437.201 186.908L439.354 186.908L441.506 186.908L443.659 186.94L445.812 186.94L447.965 186.94L450.118 186.94L452.271 186.94L454.424 186.94L456.577 186.94L458.729 186.94L460.882 186.973L463.035 186.973L465.188 187.037L467.341 187.037L469.494 187.07L471.647 187.07L473.8 187.102L475.953 187.102L478.105 187.102L480.258 187.102L482.411 187.102L484.564 187.134L486.717 187.134L488.87 187.134L491.023 187.134L493.176 187.134L495.328 187.167L497.481 187.167L499.634 187.167L501.787 187.167L503.94 187.167L506.093 187.199L508.246 187.199L510.399 187.199L512.552 187.199L514.704 187.199L516.857 187.199L519.01 187.231L521.163 187.231L523.316 187.231L525.469 187.231L527.622 187.231L529.775 187.231L531.927 187.231L534.08 187.231L536.233 187.264L538.386 187.264L540.539 187.264L542.692 187.264L544.845 187.264L546.998 187.264L549.151 187.264L551.303 187.264L553.456 187.264L555.609 187.264L557.762 187.264L559.915 187.264L562.068 187.264L564.221 187.264L566.374 187.264L568.526 187.264L570.679 187.264L572.832 187.264L574.985 187.264L577.138 187.264L579.291 187.264L581.444 187.264L583.597 187.264L585.749 187.264L587.902 187.264L590.055 187.264L592.208 187.264L594.361 187.264L596.514 187.264L598.667 187.264L600.82 187.264L602.973 187.296L605.125 187.296L607.278 187.296L609.431 187.296L611.584 187.296L613.737 187.296L615.89 187.296L618.043 187.296L620.196 187.296L622.348 187.296L624.501 187.296L626.654 187.296L628.807 187.296L630.96 187.296L633.113 187.329L635.266 187.329L637.419 187.329L639.572 187.329L641.724 187.329L643.877 187.329L646.03 187.329L648.183 187.329L650.336 187.329L652.489 187.329L654.642 187.329L656.795 187.329L658.947 187.329L661.1 187.329L663.253 187.329L665.406 187.329L667.559 187.329L669.712 187.329L671.865 187.329L674.018 187.329L676.17 187.329L678.323 187.329L680.476 187.329L682.629 187.329L684.782 187.329L686.935 187.329L689.088 187.329L691.241 187.329L693.394 187.329L695.546 187.329L697.699 187.329L699.852 187.329L702.005 187.329L704.158 187.329L706.311 187.329L708.464 187.329L710.617 187.329L712.769 187.329L714.922 187.329L717.075 187.329L719.228 187.329L721.381 187.329L723.534 187.329L725.687 187.329L727.84 187.329L729.993 187.329L732.145 187.329L734.298 187.329L736.451 187.329L738.604 187.329L740.757 187.329L742.91 187.329L745.063 187.329L747.216 187.329L749.368 187.329L751.521 187.329L753.674 187.329L755.827 187.329L757.98 187.329L760.133 187.329L762.286 187.329L764.439 187.329L766.591 187.329L768.744 187.329L770.897 187.329L773.05 187.329L775.203 187.329L777.356 187.329L779.509 187.329L781.662 187.329L783.815 187.329L785.967 187.329L788.12 187.329L790.273 187.329L792.426 187.361L794.579 187.361L796.732 187.361L798.885 187.361L801.038 187.361L803.19 187.361L805.343 187.361L807.496 187.361L809.649 187.361L811.802 187.361L813.955 187.361L816.108 187.361L818.261 187.361L820.414 187.361L822.566 187.361L824.719 187.361L826.872 187.361L829.025 187.361L831.178 187.361L833.331 187.393L835.484 187.393L837.637 187.393L839.789 187.393L841.942 187.49"/>
	</g>
	<clipPath id="cl_7">
		<rect x="56.140625" y="51.601563" width="828.85938" height="401.19531"/>
	</clipPath>
	<g clip-path="url(#cl_7)">
		<path fill="none" stroke="#FF7F0E" stroke-width="2.4000001" stroke-miterlimit="4" d="M56.1406 116.31L58.2935 164.939L60.4464 205.738L62.5993 231.007L64.7522 249.546L66.905 261.194L69.0579 270.091L71.2108 276.886L73.3637 282.192L75.5166 285.945L77.6694 289.18L79.8223 291.898L81.9752 293.936L84.1281 296.234L86.281 297.981L88.4338 299.857L90.5867 300.828L92.7396 302.219L94.8925 303.028L97.0454 303.578L99.1983 304.16L101.351 304.646L103.504 305.002L105.657 305.422L107.81 305.714L109.963 306.134L112.116 306.49L114.268 306.684L116.421 306.975L118.574 307.169L120.727 307.493L122.88 307.655L125.033 307.978L127.186 308.205L129.339 308.334L131.491 308.593L133.644 308.787L135.797 308.852L137.95 308.917L140.103 309.078L142.256 309.175L144.409 309.337L146.562 309.467L148.715 309.499L150.867 309.564L153.02 309.596L155.173 309.661L157.326 309.79L159.479 309.855L161.632 309.855L163.785 309.855L165.938 309.887L168.09 309.92L170.243 309.952L172.396 309.952L174.549 310.049L176.702 310.081L178.855 310.114L181.008 310.146L183.161 310.146L185.314 310.178L187.466 310.211L189.619 310.275L191.772 310.308L193.925 310.308L196.078 310.308L198.231 310.308L200.384 310.308L202.537 310.34L204.689 310.34L206.842 310.34L208.995 310.34L211.148 310.34L213.301 310.405L215.454 310.405L217.607 310.405L219.76 310.405L221.913 310.405L224.065 310.437L226.218 310.437L228.371 310.437L230.524 310.437L232.677 310.437L234.83 310.502L236.983 310.502L239.136 310.502L241.288 310.502L243.441 310.567L245.594 310.567L247.747 310.567L249.9 310.599L252.053 310.631L254.206 310.631L256.359 310.664L258.511 310.664L260.664 310.664L262.817 310.664L264.97 310.664L267.123 310.664L269.276 310.664L271.429 310.696L273.582 310.728L275.735 310.728L277.887 310.728L280.04 310.728L282.193 310.728L284.346 310.728L286.499 310.728L288.652 310.728L290.805 310.728L292.958 310.728L295.11 310.761L297.263 310.761L299.416 310.761L301.569 310.761L303.722 310.761L305.875 310.761L308.028 310.761L310.181 310.761L312.334 310.761L314.486 310.761L316.639 310.761L318.792 310.761L320.945 310.761L323.098 310.761L325.251 310.761L327.404 310.761L329.557 310.761L331.709 310.761L333.862 310.761L336.015 310.761L338.168 310.761L340.321 310.761L342.474 310.761L344.627 310.761L346.78 310.761L348.932 310.761L351.085 310.761L353.238 310.761L355.391 310.761L357.544 310.761L359.697 310.761L361.85 310.761L364.003 310.761L366.156 310.761L368.308 310.761L370.461 310.761L372.614 310.761L374.767 310.761L376.92 310.761L379.073 310.761L381.226 310.761L383.379 310.761L385.531 310.761L387.684 310.761L389.837 310.761L391.99 310.761L394.143 310.761L396.296 310.761L398.449 310.761L400.602 310.761L402.755 310.761L404.907 310.761L407.06 310.761L409.213 310.761L411.366 310.761L413.519 310.761L415.672 310.761L417.825 310.761L419.978 310.761L422.13 310.761L424.283 310.761L426.436 310.761L428.589 310.761L430.742 310.761L432.895 310.761L435.048 310.761L437.201 310.761L439.354 310.761L441.506 310.761L443.659 310.761L445.812 310.761L447.965 310.761L450.118 310.761L452.271 310.761L454.424 310.761L456.577 310.761L458.729 310.761L460.882 310.761L463.035 310.761L465.188 310.761L467.341 310.761L469.494 310.761L471.647 310.761L473.8 310.761L475.953 310.761L478.105 310.761L480.258 310.761L482.411 310.761L484.564 310.761L486.717 310.761L488.87 310.761L491.023 310.761L493.176 310.761L495.328 310.761L497.481 310.761L499.634 310.761L501.787 310.761L503.94 310.761L506.093 310.761L508.246 310.761L510.399 310.761L512.552 310.761L514.704 310.761L516.857 310.761L519.01 310.761L521.163 310.761L523.316 310.761L525.469 310.761L527.622 310.761L529.775 310.761L531.927 310.761L534.08 310.761L536.233 310.761L538.386 310.761L540.539 310.761L542.692 310.761L544.845 310.761L546.998 310.761L549.151 310.761L551.303 310.761L553.456 310.761L555.609 310.761L557.762 310.761L559.915 310.761L562.068 310.761L564.221 310.761L566.374 310.761L568.526 310.761L570.679 310.761L572.832 310.761L574.985 310.761L577.138 310.761L579.291 310.761L581.444 310.761L583.597 310.761L585.749 310.761L587.902 310.761L590.055 310.761L592.208 310.761L594.361 310.761L596.514 310.761L598.667 310.761L600.82 310.761L602.973 310.761L605.125 310.761L607.278 310.761L609.431 310.761L611.584 310.761L613.737 310.761L615.89 310.761L618.043 310.761L620.196 310.761L622.348 310.761L624.501 310.761L626.654 310.761L628.807 310.761L630.96 310.761L633.113 310.761L635.266 310.761L637.419 310.761L639.572 310.761L641.724 310.761L643.877 310.761L646.03 310.761L648.183 310.761L650.336 310.761L652.489 310.761L654.642 310.761L656.795 310.761L658.947 310.761L661.1 310.761L663.253 310.761L665.406 310.761L667.559 310.761L669.712 310.761L671.865 310.761L674.018 310.761L676.17 310.761L678.323 310.761L680.476 310.761L682.629 310.761L684.782 310.761L686.935 310.761L689.088 310.761L691.241 310.761L693.394 310.761L695.546 310.761L697.699 310.761L699.852 310.761L702.005 310.761L704.158 310.761L706.311 310.761L708.464 310.761L710.617 310.761L712.769 310.761L714.922 310.761L717.075 310.761L719.228 310.761L721.381 310.761L723.534 310.761L725.687 310.761L727.84 310.761L729.993 310.761L732.145 310.761L734.298 310.761L736.451 310.761L738.604 310.761L740.757 310.761L742.91 310.761L745.063 310.761L747.216 310.761L749.368 310.761L751.521 310.761L753.674 310.761L755.827 310.761L757.98 310.761L760.133 310.761L762.286 310.761L764.439 310.761L766.591 310.761L768.744 310.761L770.897 310.761L773.05 310.761L775.203 310.761L777.356 310.761L779.509 310.761L781.662 310.761L783.815 310.761L785.967 310.761L788.12 310.761L790.273 310.761L792.426 310.761L794.579 310.761L796.732 310.761L798.885 310.761L801.038 310.761L803.19 310.761L805.343 310.761L807.496 310.761L809.649 310.761L811.802 310.761L813.955 310.761L816.108 310.761L818.261 310.761L820.414 310.761L822.566 310.761L824.719 310.761L826.872 310.761L829.025 310.761L831.178 310.761L833.331 310.761L835.484 310.761L837.637 310.761L839.789 310.761L841.942 310.761"/>
	</g>
	<clipPath id="cl_8">
		<rect x="56.140625" y="51.601563" width="828.85938" height="401.19531"/>
	</clipPath>
	<g clip-path="url(#cl_8)">
		<path fill="none" stroke="#D62728" stroke-width="2.4000001" stroke-miterlimit="4" d="M56.1406 116.31L58.2935 117.249L60.4464 122.231L62.5993 129.382L64.7522 139.217L66.905 149.765L69.0579 160.183L71.2108 170.795L73.3637 180.211L75.5166 190.305L77.6694 200.27L79.8223 208.1L81.9752 217.289L84.1281 225.507L86.281 233.207L88.4338 240.552L90.5867 247.152L92.7396 254.076L94.8925 260.45L97.0454 266.435L99.1983 271.482L101.351 277.274L103.504 281.933L105.657 287.207L107.81 291.963L109.963 296.848L112.116 300.763L114.268 304.775L116.421 308.561L118.574 311.99L120.727 315.905L122.88 319.529L125.033 323.508L127.186 326.841L129.339 330.044L131.491 333.085L133.644 336.353L135.797 339.103L137.95 341.951L140.103 344.28L142.256 346.545L144.409 348.777L146.562 351.01L148.715 353.501L150.867 355.604L153.02 357.545L155.173 360.134L157.326 361.978L159.479 363.725L161.632 365.666L163.785 367.413L165.938 369.29L168.09 371.07L170.243 372.525L172.396 373.723L174.549 375.696L176.702 376.958L178.855 378.349L181.008 379.32L183.161 380.485L185.314 381.779L187.466 383.073L189.619 384.205L191.772 385.241L193.925 386.276L196.078 387.441L198.231 388.541L200.384 389.544L202.537 390.385L204.689 391.453L206.842 392.423L208.995 393.362L211.148 394.332L213.301 395.627L215.454 396.468L217.607 397.73L219.76 398.344L221.913 399.153L224.065 399.897L226.218 400.415L228.371 401.127L230.524 401.903L232.677 402.324L234.83 403.165L236.983 403.942L239.136 404.621L241.288 405.462L243.441 406.077L245.594 406.53L247.747 407.177L249.9 407.662L252.053 408.148L254.206 408.762L256.359 409.377L258.511 410.121L260.664 410.833L262.817 411.383L264.97 411.836L267.123 412.354L269.276 412.839L271.429 413.227L273.582 413.81L275.735 414.295L277.887 414.619L280.04 414.975L282.193 415.557L284.346 415.978L286.499 416.269L288.652 416.495L290.805 416.916L292.958 417.239L295.11 417.595L297.263 417.919L299.416 418.21L301.569 418.501L303.722 418.922L305.875 418.954L308.028 419.148L310.181 419.504L312.334 419.925L314.486 420.184L316.639 420.248L318.792 420.475L320.945 420.734L323.098 420.992L325.251 421.316L327.404 421.704L329.557 421.737L331.709 421.834L333.862 422.092L336.015 422.287L338.168 422.513L340.321 422.578L342.474 422.643L344.627 422.869L346.78 422.998L348.932 423.257L351.085 423.419L353.238 423.613L355.391 423.775L357.544 424.066L359.697 424.293L361.85 424.584L364.003 424.746L366.156 424.875L368.308 424.972L370.461 425.134L372.614 425.457L374.767 425.554L376.92 425.651L379.073 425.813L381.226 426.04L383.379 426.104L385.531 426.202L387.684 426.363L389.837 426.59L391.99 426.784L394.143 426.946L396.296 427.075L398.449 427.172L400.602 427.334L402.755 427.593L404.907 427.722L407.06 427.852L409.213 427.981L411.366 428.078L413.519 428.175L415.672 428.207L417.825 428.337L419.978 428.402L422.13 428.531L424.283 428.596L426.436 428.79L428.589 428.855L430.742 428.984L432.895 429.113L435.048 429.372L437.201 429.566L439.354 429.663L441.506 429.76L443.659 429.89L445.812 429.922L447.965 429.955L450.118 430.084L452.271 430.084L454.424 430.246L456.577 430.343L458.729 430.408L460.882 430.634L463.035 430.634L465.188 430.699L467.341 430.828L469.494 430.893L471.647 430.925L473.8 431.119L475.953 431.152L478.105 431.216L480.258 431.281L482.411 431.378L484.564 431.411L486.717 431.443L488.87 431.54L491.023 431.669L493.176 431.734L495.328 431.766L497.481 431.864L499.634 431.961L501.787 431.993L503.94 432.025L506.093 432.09L508.246 432.122L510.399 432.219L512.552 432.219L514.704 432.219L516.857 432.252L519.01 432.284L521.163 432.381L523.316 432.381L525.469 432.414L527.622 432.446L529.775 432.511L531.927 432.543L534.08 432.608L536.233 432.608L538.386 432.672L540.539 432.705L542.692 432.737L544.845 432.737L546.998 432.769L549.151 432.802L551.303 432.834L553.456 432.834L555.609 432.834L557.762 432.964L559.915 433.028L562.068 433.093L564.221 433.125L566.374 433.19L568.526 433.222L570.679 433.255L572.832 433.255L574.985 433.287L577.138 433.319L579.291 433.352L581.444 433.417L583.597 433.481L585.749 433.578L587.902 433.611L590.055 433.643L592.208 433.643L594.361 433.643L596.514 433.772L598.667 433.837L600.82 433.837L602.973 433.902L605.125 433.934L607.278 433.934L609.431 434.031L611.584 434.031L613.737 434.064L615.89 434.193L618.043 434.258L620.196 434.322L622.348 434.452L624.501 434.452L626.654 434.517L628.807 434.549L630.96 434.581L633.113 434.581L635.266 434.614L637.419 434.646L639.572 434.678L641.724 434.711L643.877 434.711L646.03 434.743L648.183 434.743L650.336 434.743L652.489 434.743L654.642 434.743L656.795 434.743L658.947 434.808L661.1 434.808L663.253 434.872L665.406 434.905L667.559 434.937L669.712 435.002L671.865 435.002L674.018 435.034L676.17 435.099L678.323 435.131L680.476 435.164L682.629 435.196L684.782 435.196L686.935 435.261L689.088 435.325L691.241 435.325L693.394 435.325L695.546 435.358L697.699 435.358L699.852 435.358L702.005 435.358L704.158 435.358L706.311 435.39L708.464 435.39L710.617 435.423L712.769 435.423L714.922 435.455L717.075 435.455L719.228 435.487L721.381 435.487L723.534 435.487L725.687 435.487L727.84 435.552L729.993 435.552L732.145 435.552L734.298 435.552L736.451 435.552L738.604 435.552L740.757 435.552L742.91 435.584L745.063 435.584L747.216 435.649L749.368 435.681L751.521 435.714L753.674 435.714L755.827 435.714L757.98 435.778L760.133 435.811L762.286 435.843L764.439 435.908L766.591 435.908L768.744 435.94L770.897 435.94L773.05 435.94L775.203 436.005L777.356 436.037L779.509 436.07L781.662 436.07L783.815 436.102L785.967 436.102L788.12 436.134L790.273 436.167L792.426 436.199L794.579 436.199L796.732 436.231L798.885 436.231L801.038 436.231L803.19 436.231L805.343 436.231L807.496 436.231L809.649 436.231L811.802 436.231L813.955 436.231L816.108 436.264L818.261 436.264L820.414 436.264L822.566 436.296L824.719 436.328L826.872 436.328L829.025 436.361L831.178 436.393L833.331 436.393L835.484 436.393L837.637 436.393L839.789 436.393L841.942 438.237"/>
	</g>
	<rect fill="#010101" fill-opacity="0.2" x="604.29688" y="61.601563" width="276.70313" height="113.125"/>
	<rect fill="white" x="601.29688" y="58.601563" width="276.70313" height="113.125"/>
	<rect fill="none" stroke="black" stroke-width="1" stroke-miterlimit="4" x="601.29688" y="58.601563" width="276.70313" height="113.125"/>
	<clipPath id="cl_9">
		<rect x="610.29688" y="62.601563" width="258.70313" height="105.125"/>
	</clipPath>
	<g clip-path="url(#cl_9)">
		<text transform="translate(636.297 74.2422)" font-size="16" font-family="Segoe UI" x="0, 9.171875, 17.3125, 24.101563, 32.46875, 36.34375, 40.21875, 49.273438, 57.640625, 66.40625, 71.234375, 79.734375, 84.117188, 95.0625, 99.445313, 108.07031, 116.69531, 120.16406, 128.78906, 141.88281, " y="4.0625, ">
				Baseline (S = 22.1%)
		</text>
		<path fill="none" stroke="#555" stroke-width="2.4000001" stroke-miterlimit="4" d="M631.297 74.2422L611.297 74.2422"/>
		<text transform="translate(636.297 101.523)" font-size="16" font-family="Segoe UI" x="0, 10.320313, 13.789063, 18.171875, 22.429688, 31.484375, 35.359375, 40.78125, 50.6875, 60.0625, 73.84375, 87.625, 91.5, 96.921875, 102.34375, 110.71094, 116.27344, 123.0625, 134.00781, 142.63281, 151.39844, 156.22656, 164.72656, 169.10938, 180.05469, 184.4375, 193.0625, 201.6875, 205.15625, 213.78125, 226.875, " y="4.0625, ">
				A: InitCommitters=3 (S = 78.0%)
		</text>
		<path fill="none" stroke="#1F77B4" stroke-width="2.4000001" stroke-miterlimit="4" d="M631.297 101.523L611.297 101.523"/>
		<text transform="translate(636.297 128.805)" font-size="16" font-family="Segoe UI" x="0, 9.171875, 12.640625, 17.023438, 24.992188, 35.9375, 44.5625, 48.03125, 56.65625, 65.421875, 70.25, 78.75, 83.132813, 94.078125, 98.460938, 107.08594, 115.71094, 119.17969, 127.80469, 140.89844, " y="4.0625, ">
				B: λ=0.2 (S = 39.9%)
		</text>
		<path fill="none" stroke="#FF7F0E" stroke-width="2.4000001" stroke-miterlimit="4" d="M631.297 128.805L611.297 128.805"/>
		<text transform="translate(636.297 156.086)" font-size="16" font-family="Segoe UI" x="0, 9.90625, 13.375, 17.757813, 29.726563, 39.101563, 43.484375, 52.445313, 58.007813, 67.382813, 81.164063, 90.539063, 95.960938, 99.835938, 109.21094, 118.26563, 127.03125, 131.85938, 140.35938, 144.74219, 155.6875, 160.07031, 168.69531, 172.16406, 180.78906, 193.88281, " y="4.0625, ">
				C: No Promotion (S = 0.5%)
		</text>
		<path fill="none" stroke="#D62728" stroke-width="2.4000001" stroke-miterlimit="4" d="M631.297 156.086L611.297 156.086"/>
	</g>
	<text transform="translate(470.57 516)" font-size="20" font-weight="600" font-family="Segoe UI" x="-52.602539, -41.391602, -33.608398, -22.788086, -10.385742, -4.8681641, 2.5146484, 14.897461, 25.65918, 36.420898, 45.219727, " y="-8.6132813, ">
			Step (days)
	</text>
	<path fill="none" stroke="black" stroke-width="1" stroke-miterlimit="4" d="M56.1406 452.797L56.1406 456.797"/>
	<text transform="translate(56.1406 458.797)" font-size="20" font-family="Segoe UI" x="-5.390625, " y="18.378906, ">
			0
	</text>
	<path fill="none" stroke="black" stroke-width="1" stroke-miterlimit="4" d="M142.256 452.797L142.256 456.797"/>
	<text transform="translate(142.256 458.797)" font-size="20" font-family="Segoe UI" x="-16.171875, -5.390625, 5.390625, " y="18.378906, ">
			200
	</text>
	<path fill="none" stroke="black" stroke-width="1" stroke-miterlimit="4" d="M228.371 452.797L228.371 456.797"/>
	<text transform="translate(228.371 458.797)" font-size="20" font-family="Segoe UI" x="-16.171875, -5.390625, 5.390625, " y="18.378906, ">
			400
	</text>
	<path fill="none" stroke="black" stroke-width="1" stroke-miterlimit="4" d="M314.486 452.797L314.486 456.797"/>
	<text transform="translate(314.486 458.797)" font-size="20" font-family="Segoe UI" x="-16.171875, -5.390625, 5.390625, " y="18.378906, ">
			600
	</text>
	<path fill="none" stroke="black" stroke-width="1" stroke-miterlimit="4" d="M400.602 452.797L400.602 456.797"/>
	<text transform="translate(400.602 458.797)" font-size="20" font-family="Segoe UI" x="-16.171875, -5.390625, 5.390625, " y="18.378906, ">
			800
	</text>
	<path fill="none" stroke="black" stroke-width="1" stroke-miterlimit="4" d="M486.717 452.797L486.717 456.797"/>
	<text transform="translate(486.717 458.797)" font-size="20" font-family="Segoe UI" x="-23.730469, -12.949219, -8.6132813, 2.1679688, 12.949219, " y="18.378906, ">
			1,000
	</text>
	<path fill="none" stroke="black" stroke-width="1" stroke-miterlimit="4" d="M572.832 452.797L572.832 456.797"/>
	<text transform="translate(572.832 458.797)" font-size="20" font-family="Segoe UI" x="-23.730469, -12.949219, -8.6132813, 2.1679688, 12.949219, " y="18.378906, ">
			1,200
	</text>
	<path fill="none" stroke="black" stroke-width="1" stroke-miterlimit="4" d="M658.947 452.797L658.947 456.797"/>
	<text transform="translate(658.947 458.797)" font-size="20" font-family="Segoe UI" x="-23.730469, -12.949219, -8.6132813, 2.1679688, 12.949219, " y="18.378906, ">
			1,400
	</text>
	<path fill="none" stroke="black" stroke-width="1" stroke-miterlimit="4" d="M745.063 452.797L745.063 456.797"/>
	<text transform="translate(745.063 458.797)" font-size="20" font-family="Segoe UI" x="-23.730469, -12.949219, -8.6132813, 2.1679688, 12.949219, " y="18.378906, ">
			1,600
	</text>
	<path fill="none" stroke="black" stroke-width="1" stroke-miterlimit="4" d="M831.178 452.797L831.178 456.797"/>
	<text transform="translate(831.178 458.797)" font-size="20" font-family="Segoe UI" x="-23.730469, -12.949219, -8.6132813, 2.1679688, 12.949219, " y="18.378906, ">
			1,800
	</text>
	<path fill="none" stroke="black" stroke-width="1" stroke-miterlimit="4" d="M73.3637 452.797L73.3637 454.797"/>
	<path fill="none" stroke="black" stroke-width="1" stroke-miterlimit="4" d="M90.5867 452.797L90.5867 454.797"/>
	<path fill="none" stroke="black" stroke-width="1" stroke-miterlimit="4" d="M107.81 452.797L107.81 454.797"/>
	<path fill="none" stroke="black" stroke-width="1" stroke-miterlimit="4" d="M125.033 452.797L125.033 454.797"/>
	<path fill="none" stroke="black" stroke-width="1" stroke-miterlimit="4" d="M159.479 452.797L159.479 454.797"/>
	<path fill="none" stroke="black" stroke-width="1" stroke-miterlimit="4" d="M176.702 452.797L176.702 454.797"/>
	<path fill="none" stroke="black" stroke-width="1" stroke-miterlimit="4" d="M193.925 452.797L193.925 454.797"/>
	<path fill="none" stroke="black" stroke-width="1" stroke-miterlimit="4" d="M211.148 452.797L211.148 454.797"/>
	<path fill="none" stroke="black" stroke-width="1" stroke-miterlimit="4" d="M245.594 452.797L245.594 454.797"/>
	<path fill="none" stroke="black" stroke-width="1" stroke-miterlimit="4" d="M262.817 452.797L262.817 454.797"/>
	<path fill="none" stroke="black" stroke-width="1" stroke-miterlimit="4" d="M280.04 452.797L280.04 454.797"/>
	<path fill="none" stroke="black" stroke-width="1" stroke-miterlimit="4" d="M297.263 452.797L297.263 454.797"/>
	<path fill="none" stroke="black" stroke-width="1" stroke-miterlimit="4" d="M331.709 452.797L331.709 454.797"/>
	<path fill="none" stroke="black" stroke-width="1" stroke-miterlimit="4" d="M348.932 452.797L348.932 454.797"/>
	<path fill="none" stroke="black" stroke-width="1" stroke-miterlimit="4" d="M366.156 452.797L366.156 454.797"/>
	<path fill="none" stroke="black" stroke-width="1" stroke-miterlimit="4" d="M383.379 452.797L383.379 454.797"/>
	<path fill="none" stroke="black" stroke-width="1" stroke-miterlimit="4" d="M417.825 452.797L417.825 454.797"/>
	<path fill="none" stroke="black" stroke-width="1" stroke-miterlimit="4" d="M435.048 452.797L435.048 454.797"/>
	<path fill="none" stroke="black" stroke-width="1" stroke-miterlimit="4" d="M452.271 452.797L452.271 454.797"/>
	<path fill="none" stroke="black" stroke-width="1" stroke-miterlimit="4" d="M469.494 452.797L469.494 454.797"/>
	<path fill="none" stroke="black" stroke-width="1" stroke-miterlimit="4" d="M503.94 452.797L503.94 454.797"/>
	<path fill="none" stroke="black" stroke-width="1" stroke-miterlimit="4" d="M521.163 452.797L521.163 454.797"/>
	<path fill="none" stroke="black" stroke-width="1" stroke-miterlimit="4" d="M538.386 452.797L538.386 454.797"/>
	<path fill="none" stroke="black" stroke-width="1" stroke-miterlimit="4" d="M555.609 452.797L555.609 454.797"/>
	<path fill="none" stroke="black" stroke-width="1" stroke-miterlimit="4" d="M590.055 452.797L590.055 454.797"/>
	<path fill="none" stroke="black" stroke-width="1" stroke-miterlimit="4" d="M607.278 452.797L607.278 454.797"/>
	<path fill="none" stroke="black" stroke-width="1" stroke-miterlimit="4" d="M624.501 452.797L624.501 454.797"/>
	<path fill="none" stroke="black" stroke-width="1" stroke-miterlimit="4" d="M641.724 452.797L641.724 454.797"/>
	<path fill="none" stroke="black" stroke-width="1" stroke-miterlimit="4" d="M676.17 452.797L676.17 454.797"/>
	<path fill="none" stroke="black" stroke-width="1" stroke-miterlimit="4" d="M693.394 452.797L693.394 454.797"/>
	<path fill="none" stroke="black" stroke-width="1" stroke-miterlimit="4" d="M710.617 452.797L710.617 454.797"/>
	<path fill="none" stroke="black" stroke-width="1" stroke-miterlimit="4" d="M727.84 452.797L727.84 454.797"/>
	<path fill="none" stroke="black" stroke-width="1" stroke-miterlimit="4" d="M762.286 452.797L762.286 454.797"/>
	<path fill="none" stroke="black" stroke-width="1" stroke-miterlimit="4" d="M779.509 452.797L779.509 454.797"/>
	<path fill="none" stroke="black" stroke-width="1" stroke-miterlimit="4" d="M796.732 452.797L796.732 454.797"/>
	<path fill="none" stroke="black" stroke-width="1" stroke-miterlimit="4" d="M813.955 452.797L813.955 454.797"/>
	<path fill="none" stroke="black" stroke-width="1" stroke-miterlimit="4" d="M848.401 452.797L848.401 454.797"/>
	<path fill="none" stroke="black" stroke-width="1" stroke-miterlimit="4" d="M865.624 452.797L865.624 454.797"/>
	<path fill="none" stroke="black" stroke-width="1" stroke-miterlimit="4" d="M882.847 452.797L882.847 454.797"/>
	<path fill="none" stroke="black" stroke-width="1" stroke-miterlimit="4" d="M56.1406 452.797L885 452.797"/>
	<path fill="none" stroke="black" stroke-width="1" stroke-miterlimit="4" d="M56.1406 51.7016L885 51.7016"/>
	<text transform="matrix(0 -1 1 0 4 252.199)" font-size="20" font-weight="600" font-family="Segoe UI" x="-76.762695, -64.477539, -57.094727, -46.333008, -40.649414, -34.96582, -24.125977, -13.305664, -7.7880859, 2.9736328, 10.756836, 16.274414, 25.073242, 32.856445, 43.676758, 56.079102, 61.59668, 69.379883, " y="17.988281, ">
			P(alive at step t)
	</text>
	<path fill="none" stroke="black" stroke-width="1" stroke-miterlimit="4" d="M56.1406 439.855L52.1406 439.855"/>
	<text transform="translate(47.1406 439.855)" font-size="12" font-family="Segoe UI" x="-6.46875, " y="3.046875, ">
			0
	</text>
	<path fill="none" stroke="black" stroke-width="1" stroke-miterlimit="4" d="M56.1406 407.501L52.1406 407.501"/>
	<text transform="translate(47.1406 407.501)" font-size="12" font-family="Segoe UI" x="-15.539063, -9.0703125, -6.46875, " y="3.046875, ">
			0.1
	</text>
	<path fill="none" stroke="black" stroke-width="1" stroke-miterlimit="4" d="M56.1406 375.146L52.1406 375.146"/>
	<text transform="translate(47.1406 375.146)" font-size="12" font-family="Segoe UI" x="-15.539063, -9.0703125, -6.46875, " y="3.046875, ">
			0.2
	</text>
	<path fill="none" stroke="black" stroke-width="1" stroke-miterlimit="4" d="M56.1406 342.792L52.1406 342.792"/>
	<text transform="translate(47.1406 342.792)" font-size="12" font-family="Segoe UI" x="-15.539063, -9.0703125, -6.46875, " y="3.046875, ">
			0.3
	</text>
	<path fill="none" stroke="black" stroke-width="1" stroke-miterlimit="4" d="M56.1406 310.437L52.1406 310.437"/>
	<text transform="translate(47.1406 310.437)" font-size="12" font-family="Segoe UI" x="-15.539063, -9.0703125, -6.46875, " y="3.046875, ">
			0.4
	</text>
	<path fill="none" stroke="black" stroke-width="1" stroke-miterlimit="4" d="M56.1406 278.083L52.1406 278.083"/>
	<text transform="translate(47.1406 278.083)" font-size="12" font-family="Segoe UI" x="-15.539063, -9.0703125, -6.46875, " y="3.046875, ">
			0.5
	</text>
	<path fill="none" stroke="black" stroke-width="1" stroke-miterlimit="4" d="M56.1406 245.728L52.1406 245.728"/>
	<text transform="translate(47.1406 245.728)" font-size="12" font-family="Segoe UI" x="-15.539063, -9.0703125, -6.46875, " y="3.046875, ">
			0.6
	</text>
	<path fill="none" stroke="black" stroke-width="1" stroke-miterlimit="4" d="M56.1406 213.374L52.1406 213.374"/>
	<text transform="translate(47.1406 213.374)" font-size="12" font-family="Segoe UI" x="-15.539063, -9.0703125, -6.46875, " y="3.046875, ">
			0.7
	</text>
	<path fill="none" stroke="black" stroke-width="1" stroke-miterlimit="4" d="M56.1406 181.019L52.1406 181.019"/>
	<text transform="translate(47.1406 181.019)" font-size="12" font-family="Segoe UI" x="-15.539063, -9.0703125, -6.46875, " y="3.046875, ">
			0.8
	</text>
	<path fill="none" stroke="black" stroke-width="1" stroke-miterlimit="4" d="M56.1406 148.665L52.1406 148.665"/>
	<text transform="translate(47.1406 148.665)" font-size="12" font-family="Segoe UI" x="-15.539063, -9.0703125, -6.46875, " y="3.046875, ">
			0.9
	</text>
	<path fill="none" stroke="black" stroke-width="1" stroke-miterlimit="4" d="M56.1406 116.31L52.1406 116.31"/>
	<text transform="translate(47.1406 116.31)" font-size="12" font-family="Segoe UI" x="-6.46875, " y="3.046875, ">
			1
	</text>
	<path fill="none" stroke="black" stroke-width="1" stroke-miterlimit="4" d="M56.1406 83.956L52.1406 83.956"/>
	<text transform="translate(47.1406 83.956)" font-size="12" font-family="Segoe UI" x="-15.539063, -9.0703125, -6.46875, " y="3.046875, ">
			1.1
	</text>
	<path fill="none" stroke="black" stroke-width="1" stroke-miterlimit="4" d="M56.1406 446.326L54.1406 446.326"/>
	<path fill="none" stroke="black" stroke-width="1" stroke-miterlimit="4" d="M56.1406 433.384L54.1406 433.384"/>
	<path fill="none" stroke="black" stroke-width="1" stroke-miterlimit="4" d="M56.1406 426.913L54.1406 426.913"/>
	<path fill="none" stroke="black" stroke-width="1" stroke-miterlimit="4" d="M56.1406 420.442L54.1406 420.442"/>
	<path fill="none" stroke="black" stroke-width="1" stroke-miterlimit="4" d="M56.1406 413.972L54.1406 413.972"/>
	<path fill="none" stroke="black" stroke-width="1" stroke-miterlimit="4" d="M56.1406 401.03L54.1406 401.03"/>
	<path fill="none" stroke="black" stroke-width="1" stroke-miterlimit="4" d="M56.1406 394.559L54.1406 394.559"/>
	<path fill="none" stroke="black" stroke-width="1" stroke-miterlimit="4" d="M56.1406 388.088L54.1406 388.088"/>
	<path fill="none" stroke="black" stroke-width="1" stroke-miterlimit="4" d="M56.1406 381.617L54.1406 381.617"/>
	<path fill="none" stroke="black" stroke-width="1" stroke-miterlimit="4" d="M56.1406 368.675L54.1406 368.675"/>
	<path fill="none" stroke="black" stroke-width="1" stroke-miterlimit="4" d="M56.1406 362.204L54.1406 362.204"/>
	<path fill="none" stroke="black" stroke-width="1" stroke-miterlimit="4" d="M56.1406 355.733L54.1406 355.733"/>
	<path fill="none" stroke="black" stroke-width="1" stroke-miterlimit="4" d="M56.1406 349.263L54.1406 349.263"/>
	<path fill="none" stroke="black" stroke-width="1" stroke-miterlimit="4" d="M56.1406 336.321L54.1406 336.321"/>
	<path fill="none" stroke="black" stroke-width="1" stroke-miterlimit="4" d="M56.1406 329.85L54.1406 329.85"/>
	<path fill="none" stroke="black" stroke-width="1" stroke-miterlimit="4" d="M56.1406 323.379L54.1406 323.379"/>
	<path fill="none" stroke="black" stroke-width="1" stroke-miterlimit="4" d="M56.1406 316.908L54.1406 316.908"/>
	<path fill="none" stroke="black" stroke-width="1" stroke-miterlimit="4" d="M56.1406 303.966L54.1406 303.966"/>
	<path fill="none" stroke="black" stroke-width="1" stroke-miterlimit="4" d="M56.1406 297.495L54.1406 297.495"/>
	<path fill="none" stroke="black" stroke-width="1" stroke-miterlimit="4" d="M56.1406 291.025L54.1406 291.025"/>
	<path fill="none" stroke="black" stroke-width="1" stroke-miterlimit="4" d="M56.1406 284.554L54.1406 284.554"/>
	<path fill="none" stroke="black" stroke-width="1" stroke-miterlimit="4" d="M56.1406 271.612L54.1406 271.612"/>
	<path fill="none" stroke="black" stroke-width="1" stroke-miterlimit="4" d="M56.1406 265.141L54.1406 265.141"/>
	<path fill="none" stroke="black" stroke-width="1" stroke-miterlimit="4" d="M56.1406 258.67L54.1406 258.67"/>
	<path fill="none" stroke="black" stroke-width="1" stroke-miterlimit="4" d="M56.1406 252.199L54.1406 252.199"/>
	<path fill="none" stroke="black" stroke-width="1" stroke-miterlimit="4" d="M56.1406 239.257L54.1406 239.257"/>
	<path fill="none" stroke="black" stroke-width="1" stroke-miterlimit="4" d="M56.1406 232.787L54.1406 232.787"/>
	<path fill="none" stroke="black" stroke-width="1" stroke-miterlimit="4" d="M56.1406 226.316L54.1406 226.316"/>
	<path fill="none" stroke="black" stroke-width="1" stroke-miterlimit="4" d="M56.1406 219.845L54.1406 219.845"/>
	<path fill="none" stroke="black" stroke-width="1" stroke-miterlimit="4" d="M56.1406 206.903L54.1406 206.903"/>
	<path fill="none" stroke="black" stroke-width="1" stroke-miterlimit="4" d="M56.1406 200.432L54.1406 200.432"/>
	<path fill="none" stroke="black" stroke-width="1" stroke-miterlimit="4" d="M56.1406 193.961L54.1406 193.961"/>
	<path fill="none" stroke="black" stroke-width="1" stroke-miterlimit="4" d="M56.1406 187.49L54.1406 187.49"/>
	<path fill="none" stroke="black" stroke-width="1" stroke-miterlimit="4" d="M56.1406 174.549L54.1406 174.549"/>
	<path fill="none" stroke="black" stroke-width="1" stroke-miterlimit="4" d="M56.1406 168.078L54.1406 168.078"/>
	<path fill="none" stroke="black" stroke-width="1" stroke-miterlimit="4" d="M56.1406 161.607L54.1406 161.607"/>
	<path fill="none" stroke="black" stroke-width="1" stroke-miterlimit="4" d="M56.1406 155.136L54.1406 155.136"/>
	<path fill="none" stroke="black" stroke-width="1" stroke-miterlimit="4" d="M56.1406 142.194L54.1406 142.194"/>
	<path fill="none" stroke="black" stroke-width="1" stroke-miterlimit="4" d="M56.1406 135.723L54.1406 135.723"/>
	<path fill="none" stroke="black" stroke-width="1" stroke-miterlimit="4" d="M56.1406 129.252L54.1406 129.252"/>
	<path fill="none" stroke="black" stroke-width="1" stroke-miterlimit="4" d="M56.1406 122.781L54.1406 122.781"/>
	<path fill="none" stroke="black" stroke-width="1" stroke-miterlimit="4" d="M56.1406 109.84L54.1406 109.84"/>
	<path fill="none" stroke="black" stroke-width="1" stroke-miterlimit="4" d="M56.1406 103.369L54.1406 103.369"/>
	<path fill="none" stroke="black" stroke-width="1" stroke-miterlimit="4" d="M56.1406 96.8978L54.1406 96.8978"/>
	<path fill="none" stroke="black" stroke-width="1" stroke-miterlimit="4" d="M56.1406 90.4269L54.1406 90.4269"/>
	<path fill="none" stroke="black" stroke-width="1" stroke-miterlimit="4" d="M56.1406 77.4851L54.1406 77.4851"/>
	<path fill="none" stroke="black" stroke-width="1" stroke-miterlimit="4" d="M56.1406 71.0143L54.1406 71.0143"/>
	<path fill="none" stroke="black" stroke-width="1" stroke-miterlimit="4" d="M56.1406 64.5433L54.1406 64.5433"/>
	<path fill="none" stroke="black" stroke-width="1" stroke-miterlimit="4" d="M56.1406 58.0724L54.1406 58.0724"/>
	<path fill="none" stroke="black" stroke-width="1" stroke-miterlimit="4" d="M56.1406 452.797L56.1406 51.6016"/>
	<path fill="none" stroke="black" stroke-width="1" stroke-miterlimit="4" d="M885 452.797L885 51.6016"/>
	<text transform="translate(470.57 36.6016)" font-size="20" font-weight="600" font-family="Segoe UI" x="-217.17285, -205.96191, -193.8623, -185.90332, -175.06348, -169.37988, -158.54004, -147.77832, -142.09473, -136.57715, -124.09668, -111.99707, -104.03809, -93.198242, -82.37793, -73.579102, -68.061523, -55.65918, -44.897461, -39.379883, -28.168945, -18.569336, -7.7490234, 4.3505859, 15.112305, 23.071289, 28.754883, 40.981445, 52.016602, 59.399414, 75.200195, 80.717773, 94.858398, 100.37598, 111.87988, 123.38379, 128.80371, 140.30762, 151.81152, 163.31543, 168.83301, 176.79199, 188.8916, 200.99121, 209.79004, " y="-8.6132813, ">
			Survival Curves by Scenario (N = 10,000 runs)
	</text>
</svg>
