<?xml version="1.0" encoding="utf-8" ?>
<svg xmlns="http://www.w3.org/2000/svg" xmlns:xlink="http://www.w3.org/1999/xlink" width="900" height="520">
	<rect fill="white" width="900" height="520"/>
	<path fill="none" stroke="#010101" stroke-width="1" stroke-miterlimit="4" stroke-opacity="0.098039217" d="M50.8203 468.758L50.8203 46.2813M94.1543 468.758L94.1543 46.2813M137.488 468.758L137.488 46.2813M180.822 468.758L180.822 46.2813M224.156 468.758L224.156 46.2813M267.49 468.758L267.49 46.2813M310.824 468.758L310.824 46.2813M354.158 468.758L354.158 46.2813M397.492 468.758L397.492 46.2813M440.826 468.758L440.826 46.2813M484.16 468.758L484.16 46.2813M527.494 468.758L527.494 46.2813M570.828 468.758L570.828 46.2813M614.162 468.758L614.162 46.2813M657.496 468.758L657.496 46.2813M700.83 468.758L700.83 46.2813M744.164 468.758L744.164 46.2813M787.498 468.758L787.498 46.2813M830.832 468.758L830.832 46.2813M874.167 468.758L874.167 46.2813"/>
	<path fill="none" stroke="#010101" stroke-width="1" stroke-miterlimit="4" stroke-opacity="0.098039217" d="M50.8203 453.395L885 453.395M50.8203 414.988L885 414.988M50.8203 376.581L885 376.581M50.8203 338.174L885 338.174M50.8203 299.767L885 299.767M50.8203 261.36L885 261.36M50.8203 222.953L885 222.953M50.8203 184.546L885 184.546M50.8203 146.139L885 146.139M50.8203 107.732L885 107.732M50.8203 69.3254L885 69.3254"/>
	<clipPath id="cl_4">
		<rect x="50.820313" y="46.28125" width="834.17969" height="422.47656"/>
	</clipPath>
	<g clip-path="url(#cl_4)">
		<path fill="#AAA" d="M841.166 468.758L841.166 458.758L842.166 458.758L842.166 468.758M841.166 448.758L841.166 438.758L842.166 438.758L842.166 448.758M841.166 428.758L841.166 418.758L842.166 418.758L842.166 428.758M841.166 408.758L841.166 398.758L842.166 398.758L842.166 408.758M841.166 388.758L841.166 378.758L842.166 378.758L842.166 388.758M841.166 368.758L841.166 358.758L842.166 358.758L842.166 368.758M841.166 348.758L841.166 338.758L842.166 338.758L842.166 348.758M841.166 328.758L841.166 318.758L842.166 318.758L842.166 328.758M841.166 308.758L841.166 298.758L842.166 298.758L842.166 308.758M841.166 288.758L841.166 278.758L842.166 278.758L842.166 288.758M841.166 268.758L841.166 258.758L842.166 258.758L842.166 268.758M841.166 248.758L841.166 238.758L842.166 238.758L842.166 248.758M841.166 228.758L841.166 218.758L842.166 218.758L842.166 228.758M841.166 208.758L841.166 198.758L842.166 198.758L842.166 208.758M841.166 188.758L841.166 178.758L842.166 178.758L842.166 188.758M841.166 168.758L841.166 158.758L842.166 158.758L842.166 168.758M841.166 148.758L841.166 138.758L842.166 138.758L842.166 148.758M841.166 128.758L841.166 118.758L842.166 118.758L842.166 128.758M841.166 108.758L841.166 98.7578L842.166 98.7578L842.166 108.758M841.166 88.7578L841.166 78.7578L842.166 78.7578L842.166 88.7578M841.166 68.7578L841.166 58.7578L842.166 58.7578L842.166 68.7578M841.166 48.7578L841.166 46.2813L842.166 46.2813L842.166 48.7578"/>
	</g>
	<clipPath id="cl_5">
		<rect x="50.820313" y="46.28125" width="834.17969" height="422.47656"/>
	</clipPath>
	<g clip-path="url(#cl_5)">
		<path fill="none" stroke="#555" stroke-width="2.4000001" stroke-miterlimit="4" d="M50.8203 69.3254L52.987 82.9215L55.1537 109.614L57.3204 133.619L59.4871 157.085L61.6538 176.519L63.8205 192.881L65.9872 208.205L68.1539 220.802L70.3206 231.979L72.4873 242.31L74.654 251.029L76.8207 258.749L78.9874 265.431L81.1541 272.537L83.3208 278.067L85.4875 283.444L87.6542 288.552L89.8209 293.507L91.9876 298.346L94.1543 302.264L96.321 305.682L98.4877 308.908L100.654 311.827L102.821 314.592L104.988 317.281L107.155 319.201L109.321 321.582L111.488 323.464L113.655 325.653L115.821 327.996L117.988 329.763L120.155 331.146L122.321 332.951L124.488 334.372L126.655 335.947L128.822 337.214L130.988 338.289L133.155 339.48L135.322 340.709L137.488 341.477L139.655 342.437L141.822 343.59L143.988 344.703L146.155 345.548L148.322 346.124L150.489 347.161L152.655 347.891L154.822 348.698L156.989 349.351L159.155 349.773L161.322 350.311L163.489 350.964L165.655 351.54L167.822 352.193L169.989 352.654L172.156 353.306L174.322 353.921L176.489 354.305L178.656 354.651L180.822 355.265L182.989 355.457L185.156 355.688L187.322 356.072L189.489 356.456L191.656 356.686L193.823 357.109L195.989 357.378L198.156 357.646L200.323 357.915L202.489 358.261L204.656 358.415L206.823 358.799L208.989 358.914L211.156 359.26L213.323 359.49L215.49 359.605L217.656 359.797L219.823 359.912L221.99 360.105L224.156 360.258L226.323 360.373L228.49 360.565L230.656 360.681L232.823 360.719L234.99 360.796L237.157 360.834L239.323 360.911L241.49 361.065L243.657 361.257L245.823 361.372L247.99 361.487L250.157 361.487L252.323 361.833L254.49 362.025L256.657 362.063L258.824 362.217L260.99 362.447L263.157 362.601L265.324 362.908L267.49 362.985L269.657 363.023L271.824 363.062L273.99 363.215L276.157 363.331L278.324 363.408L280.491 363.446L282.657 363.638L284.824 363.676L286.991 363.753L289.157 363.868L291.324 363.984L293.491 364.176L295.657 364.252L297.824 364.329L299.991 364.445L302.158 364.521L304.324 364.521L306.491 364.637L308.658 364.713L310.824 364.713L312.991 364.752L315.158 364.752L317.324 364.829L319.491 364.829L321.658 364.867L323.825 364.905L325.991 365.059L328.158 365.097L330.325 365.136L332.491 365.213L334.658 365.289L336.825 365.405L338.991 365.443L341.158 365.52L343.325 365.597L345.492 365.635L347.658 365.635L349.825 365.674L351.992 365.674L354.158 365.789L356.325 365.827L358.492 365.904L360.658 365.904L362.825 365.942L364.992 365.981L367.159 365.981L369.325 366.096L371.492 366.134L373.659 366.134L375.825 366.134L377.992 366.134L380.159 366.134L382.326 366.173L384.492 366.211L386.659 366.25L388.826 366.326L390.992 366.326L393.159 366.365L395.326 366.403L397.492 366.403L399.659 366.518L401.826 366.557L403.992 366.557L406.159 366.557L408.326 366.557L410.493 366.595L412.659 366.595L414.826 366.595L416.993 366.595L419.159 366.672L421.326 366.672L423.493 366.672L425.659 366.672L427.826 366.711L429.993 366.749L432.16 366.864L434.326 366.903L436.493 366.903L438.66 366.903L440.826 366.903L442.993 366.903L445.16 366.941L447.327 366.941L449.493 366.979L451.66 367.018L453.827 367.018L455.993 367.018L458.16 367.018L460.327 367.056L462.493 367.171L464.66 367.287L466.827 367.287L468.993 367.325L471.16 367.402L473.327 367.402L475.494 367.44L477.66 367.479L479.827 367.479L481.994 367.479L484.16 367.517L486.327 367.555L488.494 367.555L490.661 367.555L492.827 367.555L494.994 367.594L497.161 367.594L499.327 367.632L501.494 367.632L503.661 367.632L505.827 367.632L507.994 367.632L510.161 367.632L512.328 367.632L514.494 367.671L516.661 367.671L518.828 367.671L520.994 367.671L523.161 367.671L525.328 367.671L527.494 367.671L529.661 367.671L531.828 367.671L533.995 367.671L536.161 367.671L538.328 367.709L540.495 367.747L542.661 367.747L544.828 367.747L546.995 367.747L549.161 367.747L551.328 367.747L553.495 367.747L555.661 367.747L557.828 367.747L559.995 367.747L562.162 367.747L564.328 367.747L566.495 367.747L568.662 367.786L570.828 367.786L572.995 367.786L575.162 367.786L577.329 367.786L579.495 367.786L581.662 367.786L583.829 367.786L585.995 367.786L588.162 367.786L590.329 367.786L592.495 367.786L594.662 367.824L596.829 367.824L598.996 367.863L601.162 367.863L603.329 367.863L605.496 367.863L607.662 367.863L609.829 367.863L611.996 367.863L614.162 367.901L616.329 367.901L618.496 367.94L620.663 368.016L622.829 368.016L624.996 368.016L627.163 368.016L629.329 368.016L631.496 368.016L633.663 368.016L635.829 368.016L637.996 368.016L640.163 368.055L642.33 368.055L644.496 368.055L646.663 368.055L648.83 368.055L650.996 368.055L653.163 368.055L655.33 368.055L657.496 368.055L659.663 368.055L661.83 368.055L663.997 368.055L666.163 368.093L668.33 368.093L670.497 368.093L672.663 368.093L674.83 368.093L676.997 368.093L679.163 368.093L681.33 368.093L683.497 368.093L685.664 368.093L687.83 368.093L689.997 368.093L692.164 368.093L694.33 368.093L696.497 368.093L698.664 368.093L700.83 368.093L702.997 368.093L705.164 368.093L707.331 368.093L709.497 368.093L711.664 368.093L713.831 368.093L715.997 368.093L718.164 368.093L720.331 368.093L722.497 368.093L724.664 368.093L726.831 368.132L728.998 368.132L731.164 368.132L733.331 368.132L735.498 368.132L737.664 368.132L739.831 368.132L741.998 368.132L744.164 368.132L746.331 368.132L748.498 368.132L750.665 368.132L752.831 368.132L754.998 368.132L757.165 368.132L759.331 368.132L761.498 368.132L763.665 368.132L765.831 368.132L767.998 368.132L770.165 368.132L772.332 368.132L774.498 368.132L776.665 368.132L778.832 368.132L780.998 368.17L783.165 368.17L785.332 368.17L787.498 368.208L789.665 368.208L791.832 368.208L793.999 368.208L796.165 368.208L798.332 368.208L800.499 368.208L802.665 368.208L804.832 368.208L806.999 368.208L809.165 368.208L811.332 368.208L813.499 368.208L815.666 368.208L817.832 368.208L819.999 368.208L822.166 368.208L824.332 368.208L826.499 368.208L828.666 368.208L830.832 368.208L832.999 368.208L835.166 368.208L837.333 368.208L839.499 368.208L841.666 368.516"/>
	</g>
	<clipPath id="cl_6">
		<rect x="50.820313" y="46.28125" width="834.17969" height="422.47656"/>
	</clipPath>
	<g clip-path="url(#cl_6)">
		<path fill="none" stroke="#1F77B4" stroke-width="2.4000001" stroke-miterlimit="4" d="M50.8203 69.3254L52.987 69.7095L55.1537 70.7849L57.3204 73.1661L59.4871 76.0466L61.6538 78.9656L63.8205 82.499L65.9872 86.4933L68.1539 90.6413L70.3206 93.637L72.4873 96.7864L74.654 99.2829L76.8207 101.895L78.9874 104.391L81.1541 107.387L83.3208 109.998L85.4875 112.38L87.6542 114.338L89.8209 116.297L91.9876 118.141L94.1543 119.293L96.321 121.213L98.4877 122.327L100.654 124.171L102.821 125.86L104.988 127.09L107.155 127.819L109.321 128.971L111.488 130.316L113.655 131.391L115.821 132.274L117.988 132.889L120.155 133.772L122.321 134.579L124.488 135.501L126.655 136.23L128.822 136.806L130.988 137.344L133.155 137.959L135.322 139.034L137.488 139.764L139.655 140.263L141.822 140.801L143.988 141.108L146.155 141.492L148.322 141.876L150.489 142.26L152.655 142.568L154.822 142.683L156.989 143.028L159.155 143.336L161.322 143.566L163.489 143.873L165.655 144.142L167.822 144.68L169.989 145.026L172.156 145.448L174.322 145.909L176.489 146.178L178.656 146.447L180.822 146.639L182.989 146.831L185.156 146.946L187.322 147.1L189.489 147.292L191.656 147.368L193.823 147.445L195.989 147.637L198.156 147.752L200.323 147.906L202.489 148.098L204.656 148.213L206.823 148.367L208.989 148.367L211.156 148.521L213.323 148.597L215.49 148.674L217.656 148.713L219.823 148.789L221.99 148.866L224.156 148.981L226.323 149.135L228.49 149.25L230.656 149.366L232.823 149.442L234.99 149.442L237.157 149.481L239.323 149.596L241.49 149.634L243.657 149.711L245.823 149.788L247.99 149.865L250.157 150.057L252.323 150.095L254.49 150.172L256.657 150.21L258.824 150.364L260.99 150.403L263.157 150.441L265.324 150.556L267.49 150.671L269.657 150.71L271.824 150.825L273.99 150.863L276.157 150.979L278.324 151.017L280.491 151.094L282.657 151.094L284.824 151.247L286.991 151.286L289.157 151.324L291.324 151.324L293.491 151.363L295.657 151.363L297.824 151.44L299.991 151.516L302.158 151.555L304.324 151.593L306.491 151.67L308.658 151.708L310.824 151.747L312.991 151.785L315.158 151.785L317.324 151.824L319.491 151.939L321.658 152.016L323.825 152.054L325.991 152.054L328.158 152.054L330.325 152.054L332.491 152.131L334.658 152.131L336.825 152.169L338.991 152.208L341.158 152.246L343.325 152.246L345.492 152.246L347.658 152.246L349.825 152.284L351.992 152.361L354.158 152.361L356.325 152.438L358.492 152.438L360.658 152.477L362.825 152.592L364.992 152.63L367.159 152.669L369.325 152.707L371.492 152.707L373.659 152.707L375.825 152.745L377.992 152.784L380.159 152.784L382.326 152.784L384.492 152.784L386.659 152.784L388.826 152.784L390.992 152.784L393.159 152.822L395.326 152.861L397.492 152.861L399.659 152.861L401.826 152.861L403.992 152.861L406.159 152.899L408.326 152.899L410.493 152.899L412.659 152.937L414.826 152.937L416.993 152.976L419.159 152.976L421.326 153.091L423.493 153.091L425.659 153.091L427.826 153.091L429.993 153.129L432.16 153.129L434.326 153.129L436.493 153.129L438.66 153.129L440.826 153.168L442.993 153.168L445.16 153.168L447.327 153.168L449.493 153.168L451.66 153.168L453.827 153.168L455.993 153.168L458.16 153.206L460.327 153.206L462.493 153.283L464.66 153.283L466.827 153.321L468.993 153.321L471.16 153.36L473.327 153.36L475.494 153.36L477.66 153.36L479.827 153.36L481.994 153.398L484.16 153.398L486.327 153.398L488.494 153.398L490.661 153.398L492.827 153.437L494.994 153.437L497.161 153.437L499.327 153.437L501.494 153.437L503.661 153.475L505.827 153.475L507.994 153.475L510.161 153.475L512.328 153.475L514.494 153.475L516.661 153.513L518.828 153.513L520.994 153.513L523.161 153.513L525.328 153.513L527.494 153.513L529.661 153.513L531.828 153.513L533.995 153.552L536.161 153.552L538.328 153.552L540.495 153.552L542.661 153.552L544.828 153.552L546.995 153.552L549.161 153.552L551.328 153.552L553.495 153.552L555.661 153.552L557.828 153.552L559.995 153.552L562.162 153.552L564.328 153.552L566.495 153.552L568.662 153.552L570.828 153.552L572.995 153.552L575.162 153.552L577.329 153.552L579.495 153.552L581.662 153.552L583.829 153.552L585.995 153.552L588.162 153.552L590.329 153.552L592.495 153.552L594.662 153.552L596.829 153.552L598.996 153.552L601.162 153.59L603.329 153.59L605.496 153.59L607.662 153.59L609.829 153.59L611.996 153.59L614.162 153.59L616.329 153.59L618.496 153.59L620.663 153.59L622.829 153.59L624.996 153.59L627.163 153.59L629.329 153.59L631.496 153.629L633.663 153.629L635.829 153.629L637.996 153.629L640.163 153.629L642.33 153.629L644.496 153.629L646.663 153.629L648.83 153.629L650.996 153.629L653.163 153.629L655.33 153.629L657.496 153.629L659.663 153.629L661.83 153.629L663.997 153.629L666.163 153.629L668.33 153.629L670.497 153.629L672.663 153.629L674.83 153.629L676.997 153.629L679.163 153.629L681.33 153.629L683.497 153.629L685.664 153.629L687.83 153.629L689.997 153.629L692.164 153.629L694.33 153.629L696.497 153.629L698.664 153.629L700.83 153.629L702.997 153.629L705.164 153.629L707.331 153.629L709.497 153.629L711.664 153.629L713.831 153.629L715.997 153.629L718.164 153.629L720.331 153.629L722.497 153.629L724.664 153.629L726.831 153.629L728.998 153.629L731.164 153.629L733.331 153.629L735.498 153.629L737.664 153.629L739.831 153.629L741.998 153.629L744.164 153.629L746.331 153.629L748.498 153.629L750.665 153.629L752.831 153.629L754.998 153.629L757.165 153.629L759.331 153.629L761.498 153.629L763.665 153.629L765.831 153.629L767.998 153.629L770.165 153.629L772.332 153.629L774.498 153.629L776.665 153.629L778.832 153.629L780.998 153.629L783.165 153.629L785.332 153.629L787.498 153.629L789.665 153.629L791.832 153.667L793.999 153.667L796.165 153.667L798.332 153.667L800.499 153.667L802.665 153.667L804.832 153.667L806.999 153.667L809.165 153.667L811.332 153.667L813.499 153.667L815.666 153.667L817.832 153.667L819.999 153.667L822.166 153.667L824.332 153.667L826.499 153.667L828.666 153.667L830.832 153.667L832.999 153.706L835.166 153.706L837.333 153.706L839.499 153.706L841.666 153.821"/>
	</g>
	<clipPath id="cl_7">
		<rect x="50.820313" y="46.28125" width="834.17969" height="422.47656"/>
	</clipPath>
	<g clip-path="url(#cl_7)">
		<path fill="none" stroke="#FF7F0E" stroke-width="2.4000001" stroke-miterlimit="4" d="M50.8203 69.3254L52.987 127.051L55.1537 175.482L57.3204 205.478L59.4871 227.485L61.6538 241.312L63.8205 251.874L65.9872 259.939L68.1539 266.238L70.3206 270.693L72.4873 274.534L74.654 277.76L76.8207 280.18L78.9874 282.907L81.1541 284.981L83.3208 287.208L85.4875 288.36L87.6542 290.012L89.8209 290.972L91.9876 291.625L94.1543 292.316L96.321 292.892L98.4877 293.315L100.654 293.814L102.821 294.16L104.988 294.659L107.155 295.082L109.321 295.312L111.488 295.658L113.655 295.888L115.821 296.272L117.988 296.464L120.155 296.848L122.321 297.117L124.488 297.271L126.655 297.578L128.822 297.808L130.988 297.885L133.155 297.962L135.322 298.154L137.488 298.269L139.655 298.461L141.822 298.615L143.988 298.653L146.155 298.73L148.322 298.769L150.489 298.845L152.655 298.999L154.822 299.076L156.989 299.076L159.155 299.076L161.322 299.114L163.489 299.153L165.655 299.191L167.822 299.191L169.989 299.306L172.156 299.345L174.322 299.383L176.489 299.422L178.656 299.422L180.822 299.46L182.989 299.498L185.156 299.575L187.322 299.614L189.489 299.614L191.656 299.614L193.823 299.614L195.989 299.614L198.156 299.652L200.323 299.652L202.489 299.652L204.656 299.652L206.823 299.652L208.989 299.729L211.156 299.729L213.323 299.729L215.49 299.729L217.656 299.729L219.823 299.767L221.99 299.767L224.156 299.767L226.323 299.767L228.49 299.767L230.656 299.844L232.823 299.844L234.99 299.844L237.157 299.844L239.323 299.921L241.49 299.921L243.657 299.921L245.823 299.959L247.99 299.998L250.157 299.998L252.323 300.036L254.49 300.036L256.657 300.036L258.824 300.036L260.99 300.036L263.157 300.036L265.324 300.036L267.49 300.074L269.657 300.113L271.824 300.113L273.99 300.113L276.157 300.113L278.324 300.113L280.491 300.113L282.657 300.113L284.824 300.113L286.991 300.113L289.157 300.113L291.324 300.151L293.491 300.151L295.657 300.151L297.824 300.151L299.991 300.151L302.158 300.151L304.324 300.151L306.491 300.151L308.658 300.151L310.824 300.151L312.991 300.151L315.158 300.151L317.324 300.151L319.491 300.151L321.658 300.151L323.825 300.151L325.991 300.151L328.158 300.151L330.325 300.151L332.491 300.151L334.658 300.151L336.825 300.151L338.991 300.151L341.158 300.151L343.325 300.151L345.492 300.151L347.658 300.151L349.825 300.151L351.992 300.151L354.158 300.151L356.325 300.151L358.492 300.151L360.658 300.151L362.825 300.151L364.992 300.151L367.159 300.151L369.325 300.151L371.492 300.151L373.659 300.151L375.825 300.151L377.992 300.151L380.159 300.151L382.326 300.151L384.492 300.151L386.659 300.151L388.826 300.151L390.992 300.151L393.159 300.151L395.326 300.151L397.492 300.151L399.659 300.151L401.826 300.151L403.992 300.151L406.159 300.151L408.326 300.151L410.493 300.151L412.659 300.151L414.826 300.151L416.993 300.151L419.159 300.151L421.326 300.151L423.493 300.151L425.659 300.151L427.826 300.151L429.993 300.151L432.16 300.151L434.326 300.151L436.493 300.151L438.66 300.151L440.826 300.151L442.993 300.151L445.16 300.151L447.327 300.151L449.493 300.151L451.66 300.151L453.827 300.151L455.993 300.151L458.16 300.151L460.327 300.151L462.493 300.151L464.66 300.151L466.827 300.151L468.993 300.151L471.16 300.151L473.327 300.151L475.494 300.151L477.66 300.151L479.827 300.151L481.994 300.151L484.16 300.151L486.327 300.151L488.494 300.151L490.661 300.151L492.827 300.151L494.994 300.151L497.161 300.151L499.327 300.151L501.494 300.151L503.661 300.151L505.827 300.151L507.994 300.151L510.161 300.151L512.328 300.151L514.494 300.151L516.661 300.151L518.828 300.151L520.994 300.151L523.161 300.151L525.328 300.151L527.494 300.151L529.661 300.151L531.828 300.151L533.995 300.151L536.161 300.151L538.328 300.151L540.495 300.151L542.661 300.151L544.828 300.151L546.995 300.151L549.161 300.151L551.328 300.151L553.495 300.151L555.661 300.151L557.828 300.151L559.995 300.151L562.162 300.151L564.328 300.151L566.495 300.151L568.662 300.151L570.828 300.151L572.995 300.151L575.162 300.151L577.329 300.151L579.495 300.151L581.662 300.151L583.829 300.151L585.995 300.151L588.162 300.151L590.329 300.151L592.495 300.151L594.662 300.151L596.829 300.151L598.996 300.151L601.162 300.151L603.329 300.151L605.496 300.151L607.662 300.151L609.829 300.151L611.996 300.151L614.162 300.151L616.329 300.151L618.496 300.151L620.663 300.151L622.829 300.151L624.996 300.151L627.163 300.151L629.329 300.151L631.496 300.151L633.663 300.151L635.829 300.151L637.996 300.151L640.163 300.151L642.33 300.151L644.496 300.151L646.663 300.151L648.83 300.151L650.996 300.151L653.163 300.151L655.33 300.151L657.496 300.151L659.663 300.151L661.83 300.151L663.997 300.151L666.163 300.151L668.33 300.151L670.497 300.151L672.663 300.151L674.83 300.151L676.997 300.151L679.163 300.151L681.33 300.151L683.497 300.151L685.664 300.151L687.83 300.151L689.997 300.151L692.164 300.151L694.33 300.151L696.497 300.151L698.664 300.151L700.83 300.151L702.997 300.151L705.164 300.151L707.331 300.151L709.497 300.151L711.664 300.151L713.831 300.151L715.997 300.151L718.164 300.151L720.331 300.151L722.497 300.151L724.664 300.151L726.831 300.151L728.998 300.151L731.164 300.151L733.331 300.151L735.498 300.151L737.664 300.151L739.831 300.151L741.998 300.151L744.164 300.151L746.331 300.151L748.498 300.151L750.665 300.151L752.831 300.151L754.998 300.151L757.165 300.151L759.331 300.151L761.498 300.151L763.665 300.151L765.831 300.151L767.998 300.151L770.165 300.151L772.332 300.151L774.498 300.151L776.665 300.151L778.832 300.151L780.998 300.151L783.165 300.151L785.332 300.151L787.498 300.151L789.665 300.151L791.832 300.151L793.999 300.151L796.165 300.151L798.332 300.151L800.499 300.151L802.665 300.151L804.832 300.151L806.999 300.151L809.165 300.151L811.332 300.151L813.499 300.151L815.666 300.151L817.832 300.151L819.999 300.151L822.166 300.151L824.332 300.151L826.499 300.151L828.666 300.151L830.832 300.151L832.999 300.151L835.166 300.151L837.333 300.151L839.499 300.151L841.666 300.151"/>
	</g>
	<clipPath id="cl_8">
		<rect x="50.820313" y="46.28125" width="834.17969" height="422.47656"/>
	</clipPath>
	<g clip-path="url(#cl_8)">
		<path fill="none" stroke="#D62728" stroke-width="2.4000001" stroke-miterlimit="4" d="M50.8203 69.3254L52.987 70.4392L55.1537 76.3539L57.3204 84.8418L59.4871 96.5175L61.6538 109.038L63.8205 121.405L65.9872 134.003L68.1539 145.179L70.3206 157.162L72.4873 168.991L74.654 178.286L76.8207 189.194L78.9874 198.949L81.1541 208.09L83.3208 216.808L85.4875 224.643L87.6542 232.862L89.8209 240.428L91.9876 247.534L94.1543 253.525L96.321 260.4L98.4877 265.931L100.654 272.191L102.821 277.837L104.988 283.636L107.155 288.284L109.321 293.046L111.488 297.54L113.655 301.611L115.821 306.258L117.988 310.56L120.155 315.284L122.321 319.24L124.488 323.042L126.655 326.652L128.822 330.531L130.988 333.796L133.155 337.176L135.322 339.941L137.488 342.629L139.655 345.279L141.822 347.93L143.988 350.887L146.155 353.383L148.322 355.688L150.489 358.76L152.655 360.949L154.822 363.023L156.989 365.328L159.155 367.402L161.322 369.629L163.489 371.742L165.655 373.47L167.822 374.891L169.989 377.234L172.156 378.732L174.322 380.383L176.489 381.536L178.656 382.918L180.822 384.455L182.989 385.991L185.156 387.335L187.322 388.564L189.489 389.793L191.656 391.176L193.823 392.482L195.989 393.672L198.156 394.671L200.323 395.938L202.489 397.09L204.656 398.204L206.823 399.356L208.989 400.893L211.156 401.891L213.323 403.389L215.49 404.119L217.656 405.079L219.823 405.962L221.99 406.577L224.156 407.422L226.323 408.344L228.49 408.843L230.656 409.842L232.823 410.763L234.99 411.57L237.157 412.568L239.323 413.298L241.49 413.836L243.657 414.604L245.823 415.18L247.99 415.756L250.157 416.486L252.323 417.216L254.49 418.099L256.657 418.944L258.824 419.597L260.99 420.135L263.157 420.749L265.324 421.325L267.49 421.786L269.657 422.477L271.824 423.054L273.99 423.438L276.157 423.86L278.324 424.551L280.491 425.051L282.657 425.396L284.824 425.665L286.991 426.164L289.157 426.549L291.324 426.971L293.491 427.355L295.657 427.701L297.824 428.046L299.991 428.546L302.158 428.584L304.324 428.815L306.491 429.237L308.658 429.736L310.824 430.044L312.991 430.12L315.158 430.389L317.324 430.697L319.491 431.004L321.658 431.388L323.825 431.849L325.991 431.887L328.158 432.002L330.325 432.31L332.491 432.54L334.658 432.809L336.825 432.886L338.991 432.963L341.158 433.231L343.325 433.385L345.492 433.692L347.658 433.884L349.825 434.115L351.992 434.307L354.158 434.652L356.325 434.921L358.492 435.267L360.658 435.459L362.825 435.613L364.992 435.728L367.159 435.92L369.325 436.304L371.492 436.419L373.659 436.534L375.825 436.726L377.992 436.995L380.159 437.072L382.326 437.187L384.492 437.379L386.659 437.648L388.826 437.879L390.992 438.071L393.159 438.224L395.326 438.34L397.492 438.532L399.659 438.839L401.826 438.992L403.992 439.146L406.159 439.3L408.326 439.415L410.493 439.53L412.659 439.569L414.826 439.722L416.993 439.799L419.159 439.953L421.326 440.029L423.493 440.26L425.659 440.337L427.826 440.49L429.993 440.644L432.16 440.951L434.326 441.182L436.493 441.297L438.66 441.412L440.826 441.566L442.993 441.604L445.16 441.642L447.327 441.796L449.493 441.796L451.66 441.988L453.827 442.103L455.993 442.18L458.16 442.449L460.327 442.449L462.493 442.526L464.66 442.679L466.827 442.756L468.993 442.795L471.16 443.025L473.327 443.064L475.494 443.14L477.66 443.217L479.827 443.332L481.994 443.371L484.16 443.409L486.327 443.524L488.494 443.678L490.661 443.755L492.827 443.793L494.994 443.909L497.161 444.024L499.327 444.062L501.494 444.101L503.661 444.177L505.827 444.216L507.994 444.331L510.161 444.331L512.328 444.331L514.494 444.369L516.661 444.408L518.828 444.523L520.994 444.523L523.161 444.561L525.328 444.6L527.494 444.677L529.661 444.715L531.828 444.792L533.995 444.792L536.161 444.869L538.328 444.907L540.495 444.945L542.661 444.945L544.828 444.984L546.995 445.022L549.161 445.061L551.328 445.061L553.495 445.061L555.661 445.214L557.828 445.291L559.995 445.368L562.162 445.406L564.328 445.483L566.495 445.522L568.662 445.56L570.828 445.56L572.995 445.598L575.162 445.637L577.329 445.675L579.495 445.752L581.662 445.829L583.829 445.944L585.995 445.982L588.162 446.021L590.329 446.021L592.495 446.021L594.662 446.175L596.829 446.251L598.996 446.251L601.162 446.328L603.329 446.367L605.496 446.367L607.662 446.482L609.829 446.482L611.996 446.52L614.162 446.674L616.329 446.751L618.496 446.827L620.663 446.981L622.829 446.981L624.996 447.058L627.163 447.096L629.329 447.135L631.496 447.135L633.663 447.173L635.829 447.212L637.996 447.25L640.163 447.288L642.33 447.288L644.496 447.327L646.663 447.327L648.83 447.327L650.996 447.327L653.163 447.327L655.33 447.327L657.496 447.404L659.663 447.404L661.83 447.48L663.997 447.519L666.163 447.557L668.33 447.634L670.497 447.634L672.663 447.672L674.83 447.749L676.997 447.788L679.163 447.826L681.33 447.864L683.497 447.864L685.664 447.941L687.83 448.018L689.997 448.018L692.164 448.018L694.33 448.056L696.497 448.056L698.664 448.056L700.83 448.056L702.997 448.056L705.164 448.095L707.331 448.095L709.497 448.133L711.664 448.133L713.831 448.172L715.997 448.172L718.164 448.21L720.331 448.21L722.497 448.21L724.664 448.21L726.831 448.287L728.998 448.287L731.164 448.287L733.331 448.287L735.498 448.287L737.664 448.287L739.831 448.287L741.998 448.325L744.164 448.325L746.331 448.402L748.498 448.441L750.665 448.479L752.831 448.479L754.998 448.479L757.165 448.556L759.331 448.594L761.498 448.633L763.665 448.709L765.831 448.709L767.998 448.748L770.165 448.748L772.332 448.748L774.498 448.825L776.665 448.863L778.832 448.901L780.998 448.901L783.165 448.94L785.332 448.94L787.498 448.978L789.665 449.017L791.832 449.055L793.999 449.055L796.165 449.093L798.332 449.093L800.499 449.093L802.665 449.093L804.832 449.093L806.999 449.093L809.165 449.093L811.332 449.093L813.499 449.093L815.666 449.132L817.832 449.132L819.999 449.132L822.166 449.17L824.332 449.209L826.499 449.209L828.666 449.247L830.832 449.285L832.999 449.285L835.166 449.285L837.333 449.285L839.499 449.285L841.666 451.475"/>
	</g>
	<rect fill="#010101" fill-opacity="0.2" x="662.22266" y="56.28125" width="218.77734" height="91.84375"/>
	<rect fill="white" x="659.22266" y="53.28125" width="218.77734" height="91.84375"/>
	<rect fill="none" stroke="black" stroke-width="1" stroke-miterlimit="4" x="659.22266" y="53.28125" width="218.77734" height="91.84375"/>
	<clipPath id="cl_9">
		<rect x="668.22266" y="57.28125" width="200.77734" height="83.84375"/>
	</clipPath>
	<g clip-path="url(#cl_9)">
		<text transform="translate(694.223 66.2617)" font-size="12" font-family="Segoe UI" x="0, 6.8789063, 12.984375, 18.076172, 24.351563, 27.257813, 30.164063, 36.955078, 43.230469, 49.804688, 53.425781, 59.800781, 63.087891, 71.296875, 74.583984, 81.052734, 87.521484, 90.123047, 96.591797, 106.41211, " y="3.046875, ">
				Baseline (S = 22.1%)
		</text>
		<path fill="none" stroke="#555" stroke-width="2.4000001" stroke-miterlimit="4" d="M689.223 66.2617L669.223 66.2617"/>
		<text transform="translate(694.223 88.2227)" font-size="12" font-family="Segoe UI" x="0, 7.7402344, 10.341797, 13.628906, 16.822266, 23.613281, 26.519531, 30.585938, 38.015625, 45.046875, 55.382813, 65.71875, 68.625, 72.691406, 76.757813, 83.033203, 87.205078, 92.296875, 100.50586, 106.97461, 113.54883, 117.16992, 123.54492, 126.83203, 135.04102, 138.32813, 144.79688, 151.26563, 153.86719, 160.33594, 170.15625, " y="3.046875, ">
				A: InitCommitters=3 (S = 78.0%)
		</text>
		<path fill="none" stroke="#1F77B4" stroke-width="2.4000001" stroke-miterlimit="4" d="M689.223 88.2227L669.223 88.2227"/>
		<text transform="translate(694.223 110.184)" font-size="12" font-family="Segoe UI" x="0, 6.8789063, 9.4804688, 12.767578, 18.744141, 26.953125, 33.421875, 36.023438, 42.492188, 49.066406, 52.6875, 59.0625, 62.349609, 70.558594, 73.845703, 80.314453, 86.783203, 89.384766, 95.853516, 105.67383, " y="3.046875, ">
				B: λ=0.2 (S = 39.9%)
		</text>
		<path fill="none" stroke="#FF7F0E" stroke-width="2.4000001" stroke-miterlimit="4" d="M689.223 110.184L669.223 110.184"/>
		<text transform="translate(694.223 132.145)" font-size="12" font-family="Segoe UI" x="0, 7.4296875, 10.03125, 13.318359, 22.294922, 29.326172, 32.613281, 39.333984, 43.505859, 50.537109, 60.873047, 67.904297, 71.970703, 74.876953, 81.908203, 88.699219, 95.273438, 98.894531, 105.26953, 108.55664, 116.76563, 120.05273, 126.52148, 129.12305, 135.5918, 145.41211, " y="3.046875, ">
				C: No Promotion (S = 0.5%)
		</text>
		<path fill="none" stroke="#D62728" stroke-width="2.4000001" stroke-miterlimit="4" d="M689.223 132.145L669.223 132.145"/>
	</g>
	<text transform="translate(467.91 516)" font-size="16" font-weight="600" font-family="Segoe UI" x="-42.082031, -33.113281, -26.886719, -18.230469, -8.3085938, -3.8945313, 2.0117188, 11.917969, 20.527344, 29.136719, 36.175781, " y="-6.890625, ">
			Step (days)
	</text>
	<path fill="none" stroke="black" stroke-width="1" stroke-miterlimit="4" d="M50.8203 468.758L50.8203 472.758"/>
	<text transform="translate(50.8203 474.758)" font-size="12" font-family="Segoe UI" x="-3.234375, " y="11.027344, ">
			0
	</text>
	<path fill="none" stroke="black" stroke-width="1" stroke-miterlimit="4" d="M94.1543 468.758L94.1543 472.758"/>
	<text transform="translate(94.1543 474.758)" font-size="12" font-family="Segoe UI" x="-9.703125, -3.234375, 3.234375, " y="11.027344, ">
			100
	</text>
	<path fill="none" stroke="black" stroke-width="1" stroke-miterlimit="4" d="M137.488 468.758L137.488 472.758"/>
	<text transform="translate(137.488 474.758)" font-size="12" font-family="Segoe UI" x="-9.703125, -3.234375, 3.234375, " y="11.027344, ">
			200
	</text>
	<path fill="none" stroke="black" stroke-width="1" stroke-miterlimit="4" d="M180.822 468.758L180.822 472.758"/>
	<text transform="translate(180.822 474.758)" font-size="12" font-family="Segoe UI" x="-9.703125, -3.234375, 3.234375, " y="11.027344, ">
			300
	</text>
	<path fill="none" stroke="black" stroke-width="1" stroke-miterlimit="4" d="M224.156 468.758L224.156 472.758"/>
	<text transform="translate(224.156 474.758)" font-size="12" font-family="Segoe UI" x="-9.703125, -3.234375, 3.234375, " y="11.027344, ">
			400
	</text>
	<path fill="none" stroke="black" stroke-width="1" stroke-miterlimit="4" d="M267.49 468.758L267.49 472.758"/>
	<text transform="translate(267.49 474.758)" font-size="12" font-family="Segoe UI" x="-9.703125, -3.234375, 3.234375, " y="11.027344, ">
			500
	</text>
	<path fill="none" stroke="black" stroke-width="1" stroke-miterlimit="4" d="M310.824 468.758L310.824 472.758"/>
	<text transform="translate(310.824 474.758)" font-size="12" font-family="Segoe UI" x="-9.703125, -3.234375, 3.234375, " y="11.027344, ">
			600
	</text>
	<path fill="none" stroke="black" stroke-width="1" stroke-miterlimit="4" d="M354.158 468.758L354.158 472.758"/>
	<text transform="translate(354.158 474.758)" font-size="12" font-family="Segoe UI" x="-9.703125, -3.234375, 3.234375, " y="11.027344, ">
			700
	</text>
	<path fill="none" stroke="black" stroke-width="1" stroke-miterlimit="4" d="M397.492 468.758L397.492 472.758"/>
	<text transform="translate(397.492 474.758)" font-size="12" font-family="Segoe UI" x="-9.703125, -3.234375, 3.234375, " y="11.027344, ">
			800
	</text>
	<path fill="none" stroke="black" stroke-width="1" stroke-miterlimit="4" d="M440.826 468.758L440.826 472.758"/>
	<text transform="translate(440.826 474.758)" font-size="12" font-family="Segoe UI" x="-9.703125, -3.234375, 3.234375, " y="11.027344, ">
			900
	</text>
	<path fill="none" stroke="black" stroke-width="1" stroke-miterlimit="4" d="M484.16 468.758L484.16 472.758"/>
	<text transform="translate(484.16 474.758)" font-size="12" font-family="Segoe UI" x="-14.238281, -7.7695313, -5.1679688, 1.3007813, 7.7695313, " y="11.027344, ">
			1,000
	</text>
	<path fill="none" stroke="black" stroke-width="1" stroke-miterlimit="4" d="M527.494 468.758L527.494 472.758"/>
	<text transform="translate(527.494 474.758)" font-size="12" font-family="Segoe UI" x="-14.238281, -7.7695313, -5.1679688, 1.3007813, 7.7695313, " y="11.027344, ">
			1,100
	</text>
	<path fill="none" stroke="black" stroke-width="1" stroke-miterlimit="4" d="M570.828 468.758L570.828 472.758"/>
	<text transform="translate(570.828 474.758)" font-size="12" font-family="Segoe UI" x="-14.238281, -7.7695313, -5.1679688, 1.3007813, 7.7695313, " y="11.027344, ">
			1,200
	</text>
	<path fill="none" stroke="black" stroke-width="1" stroke-miterlimit="4" d="M614.162 468.758L614.162 472.758"/>
	<text transform="translate(614.162 474.758)" font-size="12" font-family="Segoe UI" x="-14.238281, -7.7695313, -5.1679688, 1.3007813, 7.7695313, " y="11.027344, ">
			1,300
	</text>
	<path fill="none" stroke="black" stroke-width="1" stroke-miterlimit="4" d="M657.496 468.758L657.496 472.758"/>
	<text transform="translate(657.496 474.758)" font-size="12" font-family="Segoe UI" x="-14.238281, -7.7695313, -5.1679688, 1.3007813, 7.7695313, " y="11.027344, ">
			1,400
	</text>
	<path fill="none" stroke="black" stroke-width="1" stroke-miterlimit="4" d="M700.83 468.758L700.83 472.758"/>
	<text transform="translate(700.83 474.758)" font-size="12" font-family="Segoe UI" x="-14.238281, -7.7695313, -5.1679688, 1.3007813, 7.7695313, " y="11.027344, ">
			1,500
	</text>
	<path fill="none" stroke="black" stroke-width="1" stroke-miterlimit="4" d="M744.164 468.758L744.164 472.758"/>
	<text transform="translate(744.164 474.758)" font-size="12" font-family="Segoe UI" x="-14.238281, -7.7695313, -5.1679688, 1.3007813, 7.7695313, " y="11.027344, ">
			1,600
	</text>
	<path fill="none" stroke="black" stroke-width="1" stroke-miterlimit="4" d="M787.498 468.758L787.498 472.758"/>
	<text transform="translate(787.498 474.758)" font-size="12" font-family="Segoe UI" x="-14.238281, -7.7695313, -5.1679688, 1.3007813, 7.7695313, " y="11.027344, ">
			1,700
	</text>
	<path fill="none" stroke="black" stroke-width="1" stroke-miterlimit="4" d="M830.832 468.758L830.832 472.758"/>
	<text transform="translate(830.832 474.758)" font-size="12" font-family="Segoe UI" x="-14.238281, -7.7695313, -5.1679688, 1.3007813, 7.7695313, " y="11.027344, ">
			1,800
	</text>
	<path fill="none" stroke="black" stroke-width="1" stroke-miterlimit="4" d="M874.167 468.758L874.167 472.758"/>
	<text transform="translate(874.167 474.758)" font-size="12" font-family="Segoe UI" x="-14.238281, -7.7695313, -5.1679688, 1.3007813, 7.7695313, " y="11.027344, ">
			1,900
	</text>
	<path fill="none" stroke="black" stroke-width="1" stroke-miterlimit="4" d="M59.4871 468.758L59.4871 470.758"/>
	<path fill="none" stroke="black" stroke-width="1" stroke-miterlimit="4" d="M68.1539 468.758L68.1539 470.758"/>
	<path fill="none" stroke="black" stroke-width="1" stroke-miterlimit="4" d="M76.8207 468.758L76.8207 470.758"/>
	<path fill="none" stroke="black" stroke-width="1" stroke-miterlimit="4" d="M85.4875 468.758L85.4875 470.758"/>
	<path fill="none" stroke="black" stroke-width="1" stroke-miterlimit="4" d="M102.821 468.758L102.821 470.758"/>
	<path fill="none" stroke="black" stroke-width="1" stroke-miterlimit="4" d="M111.488 468.758L111.488 470.758"/>
	<path fill="none" stroke="black" stroke-width="1" stroke-miterlimit="4" d="M120.155 468.758L120.155 470.758"/>
	<path fill="none" stroke="black" stroke-width="1" stroke-miterlimit="4" d="M128.822 468.758L128.822 470.758"/>
	<path fill="none" stroke="black" stroke-width="1" stroke-miterlimit="4" d="M146.155 468.758L146.155 470.758"/>
	<path fill="none" stroke="black" stroke-width="1" stroke-miterlimit="4" d="M154.822 468.758L154.822 470.758"/>
	<path fill="none" stroke="black" stroke-width="1" stroke-miterlimit="4" d="M163.489 468.758L163.489 470.758"/>
	<path fill="none" stroke="black" stroke-width="1" stroke-miterlimit="4" d="M172.156 468.758L172.156 470.758"/>
	<path fill="none" stroke="black" stroke-width="1" stroke-miterlimit="4" d="M189.489 468.758L189.489 470.758"/>
	<path fill="none" stroke="black" stroke-width="1" stroke-miterlimit="4" d="M198.156 468.758L198.156 470.758"/>
	<path fill="none" stroke="black" stroke-width="1" stroke-miterlimit="4" d="M206.823 468.758L206.823 470.758"/>
	<path fill="none" stroke="black" stroke-width="1" stroke-miterlimit="4" d="M215.49 468.758L215.49 470.758"/>
	<path fill="none" stroke="black" stroke-width="1" stroke-miterlimit="4" d="M232.823 468.758L232.823 470.758"/>
	<path fill="none" stroke="black" stroke-width="1" stroke-miterlimit="4" d="M241.49 468.758L241.49 470.758"/>
	<path fill="none" stroke="black" stroke-width="1" stroke-miterlimit="4" d="M250.157 468.758L250.157 470.758"/>
	<path fill="none" stroke="black" stroke-width="1" stroke-miterlimit="4" d="M258.824 468.758L258.824 470.758"/>
	<path fill="none" stroke="black" stroke-width="1" stroke-miterlimit="4" d="M276.157 468.758L276.157 470.758"/>
	<path fill="none" stroke="black" stroke-width="1" stroke-miterlimit="4" d="M284.824 468.758L284.824 470.758"/>
	<path fill="none" stroke="black" stroke-width="1" stroke-miterlimit="4" d="M293.491 468.758L293.491 470.758"/>
	<path fill="none" stroke="black" stroke-width="1" stroke-miterlimit="4" d="M302.158 468.758L302.158 470.758"/>
	<path fill="none" stroke="black" stroke-width="1" stroke-miterlimit="4" d="M319.491 468.758L319.491 470.758"/>
	<path fill="none" stroke="black" stroke-width="1" stroke-miterlimit="4" d="M328.158 468.758L328.158 470.758"/>
	<path fill="none" stroke="black" stroke-width="1" stroke-miterlimit="4" d="M336.825 468.758L336.825 470.758"/>
	<path fill="none" stroke="black" stroke-width="1" stroke-miterlimit="4" d="M345.492 468.758L345.492 470.758"/>
	<path fill="none" stroke="black" stroke-width="1" stroke-miterlimit="4" d="M362.825 468.758L362.825 470.758"/>
	<path fill="none" stroke="black" stroke-width="1" stroke-miterlimit="4" d="M371.492 468.758L371.492 470.758"/>
	<path fill="none" stroke="black" stroke-width="1" stroke-miterlimit="4" d="M380.159 468.758L380.159 470.758"/>
	<path fill="none" stroke="black" stroke-width="1" stroke-miterlimit="4" d="M388.826 468.758L388.826 470.758"/>
	<path fill="none" stroke="black" stroke-width="1" stroke-miterlimit="4" d="M406.159 468.758L406.159 470.758"/>
	<path fill="none" stroke="black" stroke-width="1" stroke-miterlimit="4" d="M414.826 468.758L414.826 470.758"/>
	<path fill="none" stroke="black" stroke-width="1" stroke-miterlimit="4" d="M423.493 468.758L423.493 470.758"/>
	<path fill="none" stroke="black" stroke-width="1" stroke-miterlimit="4" d="M432.16 468.758L432.16 470.758"/>
	<path fill="none" stroke="black" stroke-width="1" stroke-miterlimit="4" d="M449.493 468.758L449.493 470.758"/>
	<path fill="none" stroke="black" stroke-width="1" stroke-miterlimit="4" d="M458.16 468.758L458.16 470.758"/>
	<path fill="none" stroke="black" stroke-width="1" stroke-miterlimit="4" d="M466.827 468.758L466.827 470.758"/>
	<path fill="none" stroke="black" stroke-width="1" stroke-miterlimit="4" d="M475.494 468.758L475.494 470.758"/>
	<path fill="none" stroke="black" stroke-width="1" stroke-miterlimit="4" d="M492.827 468.758L492.827 470.758"/>
	<path fill="none" stroke="black" stroke-width="1" stroke-miterlimit="4" d="M501.494 468.758L501.494 470.758"/>
	<path fill="none" stroke="black" stroke-width="1" stroke-miterlimit="4" d="M510.161 468.758L510.161 470.758"/>
	<path fill="none" stroke="black" stroke-width="1" stroke-miterlimit="4" d="M518.828 468.758L518.828 470.758"/>
	<path fill="none" stroke="black" stroke-width="1" stroke-miterlimit="4" d="M536.161 468.758L536.161 470.758"/>
	<path fill="none" stroke="black" stroke-width="1" stroke-miterlimit="4" d="M544.828 468.758L544.828 470.758"/>
	<path fill="none" stroke="black" stroke-width="1" stroke-miterlimit="4" d="M553.495 468.758L553.495 470.758"/>
	<path fill="none" stroke="black" stroke-width="1" stroke-miterlimit="4" d="M562.162 468.758L562.162 470.758"/>
	<path fill="none" stroke="black" stroke-width="1" stroke-miterlimit="4" d="M579.495 468.758L579.495 470.758"/>
	<path fill="none" stroke="black" stroke-width="1" stroke-miterlimit="4" d="M588.162 468.758L588.162 470.758"/>
	<path fill="none" stroke="black" stroke-width="1" stroke-miterlimit="4" d="M596.829 468.758L596.829 470.758"/>
	<path fill="none" stroke="black" stroke-width="1" stroke-miterlimit="4" d="M605.496 468.758L605.496 470.758"/>
	<path fill="none" stroke="black" stroke-width="1" stroke-miterlimit="4" d="M622.829 468.758L622.829 470.758"/>
	<path fill="none" stroke="black" stroke-width="1" stroke-miterlimit="4" d="M631.496 468.758L631.496 470.758"/>
	<path fill="none" stroke="black" stroke-width="1" stroke-miterlimit="4" d="M640.163 468.758L640.163 470.758"/>
	<path fill="none" stroke="black" stroke-width="1" stroke-miterlimit="4" d="M648.83 468.758L648.83 470.758"/>
	<path fill="none" stroke="black" stroke-width="1" stroke-miterlimit="4" d="M666.163 468.758L666.163 470.758"/>
	<path fill="none" stroke="black" stroke-width="1" stroke-miterlimit="4" d="M674.83 468.758L674.83 470.758"/>
	<path fill="none" stroke="black" stroke-width="1" stroke-miterlimit="4" d="M683.497 468.758L683.497 470.758"/>
	<path fill="none" stroke="black" stroke-width="1" stroke-miterlimit="4" d="M692.164 468.758L692.164 470.758"/>
	<path fill="none" stroke="black" stroke-width="1" stroke-miterlimit="4" d="M709.497 468.758L709.497 470.758"/>
	<path fill="none" stroke="black" stroke-width="1" stroke-miterlimit="4" d="M718.164 468.758L718.164 470.758"/>
	<path fill="none" stroke="black" stroke-width="1" stroke-miterlimit="4" d="M726.831 468.758L726.831 470.758"/>
	<path fill="none" stroke="black" stroke-width="1" stroke-miterlimit="4" d="M735.498 468.758L735.498 470.758"/>
	<path fill="none" stroke="black" stroke-width="1" stroke-miterlimit="4" d="M752.831 468.758L752.831 470.758"/>
	<path fill="none" stroke="black" stroke-width="1" stroke-miterlimit="4" d="M761.498 468.758L761.498 470.758"/>
	<path fill="none" stroke="black" stroke-width="1" stroke-miterlimit="4" d="M770.165 468.758L770.165 470.758"/>
	<path fill="none" stroke="black" stroke-width="1" stroke-miterlimit="4" d="M778.832 468.758L778.832 470.758"/>
	<path fill="none" stroke="black" stroke-width="1" stroke-miterlimit="4" d="M796.165 468.758L796.165 470.758"/>
	<path fill="none" stroke="black" stroke-width="1" stroke-miterlimit="4" d="M804.832 468.758L804.832 470.758"/>
	<path fill="none" stroke="black" stroke-width="1" stroke-miterlimit="4" d="M813.499 468.758L813.499 470.758"/>
	<path fill="none" stroke="black" stroke-width="1" stroke-miterlimit="4" d="M822.166 468.758L822.166 470.758"/>
	<path fill="none" stroke="black" stroke-width="1" stroke-miterlimit="4" d="M839.499 468.758L839.499 470.758"/>
	<path fill="none" stroke="black" stroke-width="1" stroke-miterlimit="4" d="M848.166 468.758L848.166 470.758"/>
	<path fill="none" stroke="black" stroke-width="1" stroke-miterlimit="4" d="M856.833 468.758L856.833 470.758"/>
	<path fill="none" stroke="black" stroke-width="1" stroke-miterlimit="4" d="M865.5 468.758L865.5 470.758"/>
	<path fill="none" stroke="black" stroke-width="1" stroke-miterlimit="4" d="M882.833 468.758L882.833 470.758"/>
	<path fill="none" stroke="black" stroke-width="1" stroke-miterlimit="4" d="M50.8203 468.758L885 468.758"/>
	<path fill="none" stroke="black" stroke-width="1" stroke-miterlimit="4" d="M50.8203 46.3812L885 46.3812"/>
	<text transform="matrix(0 -1 1 0 4 257.52)" font-size="16" font-weight="600" font-family="Segoe UI" x="-61.410156, -51.582031, -45.675781, -37.066406, -32.519531, -27.972656, -19.300781, -10.644531, -6.2304688, 2.3789063, 8.6054688, 13.019531, 20.058594, 26.285156, 34.941406, 44.863281, 49.277344, 55.503906, " y="14.390625, ">
			P(alive at step t)
	</text>
	<path fill="none" stroke="black" stroke-width="1" stroke-miterlimit="4" d="M50.8203 453.395L46.8203 453.395"/>
	<text transform="translate(41.8203 453.395)" font-size="12" font-family="Segoe UI" x="-6.46875, " y="3.046875, ">
			0
	</text>
	<path fill="none" stroke="black" stroke-width="1" stroke-miterlimit="4" d="M50.8203 414.988L46.8203 414.988"/>
	<text transform="translate(41.8203 414.988)" font-size="12" font-family="Segoe UI" x="-15.539063, -9.0703125, -6.46875, " y="3.046875, ">
			0.1
	</text>
	<path fill="none" stroke="black" stroke-width="1" stroke-miterlimit="4" d="M50.8203 376.581L46.8203 376.581"/>
	<text transform="translate(41.8203 376.581)" font-size="12" font-family="Segoe UI" x="-15.539063, -9.0703125, -6.46875, " y="3.046875, ">
			0.2
	</text>
	<path fill="none" stroke="black" stroke-width="1" stroke-miterlimit="4" d="M50.8203 338.174L46.8203 338.174"/>
	<text transform="translate(41.8203 338.174)" font-size="12" font-family="Segoe UI" x="-15.539063, -9.0703125, -6.46875, " y="3.046875, ">
			0.3
	</text>
	<path fill="none" stroke="black" stroke-width="1" stroke-miterlimit="4" d="M50.8203 299.767L46.8203 299.767"/>
	<text transform="translate(41.8203 299.767)" font-size="12" font-family="Segoe UI" x="-15.539063, -9.0703125, -6.46875, " y="3.046875, ">
			0.4
	</text>
	<path fill="none" stroke="black" stroke-width="1" stroke-miterlimit="4" d="M50.8203 261.36L46.8203 261.36"/>
	<text transform="translate(41.8203 261.36)" font-size="12" font-family="Segoe UI" x="-15.539063, -9.0703125, -6.46875, " y="3.046875, ">
			0.5
	</text>
	<path fill="none" stroke="black" stroke-width="1" stroke-miterlimit="4" d="M50.8203 222.953L46.8203 222.953"/>
	<text transform="translate(41.8203 222.953)" font-size="12" font-family="Segoe UI" x="-15.539063, -9.0703125, -6.46875, " y="3.046875, ">
			0.6
	</text>
	<path fill="none" stroke="black" stroke-width="1" stroke-miterlimit="4" d="M50.8203 184.546L46.8203 184.546"/>
	<text transform="translate(41.8203 184.546)" font-size="12" font-family="Segoe UI" x="-15.539063, -9.0703125, -6.46875, " y="3.046875, ">
			0.7
	</text>
	<path fill="none" stroke="black" stroke-width="1" stroke-miterlimit="4" d="M50.8203 146.139L46.8203 146.139"/>
	<text transform="translate(41.8203 146.139)" font-size="12" font-family="Segoe UI" x="-15.539063, -9.0703125, -6.46875, " y="3.046875, ">
			0.8
	</text>
	<path fill="none" stroke="black" stroke-width="1" stroke-miterlimit="4" d="M50.8203 107.732L46.8203 107.732"/>
	<text transform="translate(41.8203 107.732)" font-size="12" font-family="Segoe UI" x="-15.539063, -9.0703125, -6.46875, " y="3.046875, ">
			0.9
	</text>
	<path fill="none" stroke="black" stroke-width="1" stroke-miterlimit="4" d="M50.8203 69.3254L46.8203 69.3254"/>
	<text transform="translate(41.8203 69.3254)" font-size="12" font-family="Segoe UI" x="-6.46875, " y="3.046875, ">
			1
	</text>
	<path fill="none" stroke="black" stroke-width="1" stroke-miterlimit="4" d="M50.8203 461.076L48.8203 461.076"/>
	<path fill="none" stroke="black" stroke-width="1" stroke-miterlimit="4" d="M50.8203 445.714L48.8203 445.714"/>
	<path fill="none" stroke="black" stroke-width="1" stroke-miterlimit="4" d="M50.8203 438.032L48.8203 438.032"/>
	<path fill="none" stroke="black" stroke-width="1" stroke-miterlimit="4" d="M50.8203 430.351L48.8203 430.351"/>
	<path fill="none" stroke="black" stroke-width="1" stroke-miterlimit="4" d="M50.8203 422.669L48.8203 422.669"/>
	<path fill="none" stroke="black" stroke-width="1" stroke-miterlimit="4" d="M50.8203 407.307L48.8203 407.307"/>
	<path fill="none" stroke="black" stroke-width="1" stroke-miterlimit="4" d="M50.8203 399.625L48.8203 399.625"/>
	<path fill="none" stroke="black" stroke-width="1" stroke-miterlimit="4" d="M50.8203 391.944L48.8203 391.944"/>
	<path fill="none" stroke="black" stroke-width="1" stroke-miterlimit="4" d="M50.8203 384.263L48.8203 384.263"/>
	<path fill="none" stroke="black" stroke-width="1" stroke-miterlimit="4" d="M50.8203 368.9L48.8203 368.9"/>
	<path fill="none" stroke="black" stroke-width="1" stroke-miterlimit="4" d="M50.8203 361.218L48.8203 361.218"/>
	<path fill="none" stroke="black" stroke-width="1" stroke-miterlimit="4" d="M50.8203 353.537L48.8203 353.537"/>
	<path fill="none" stroke="black" stroke-width="1" stroke-miterlimit="4" d="M50.8203 345.856L48.8203 345.856"/>
	<path fill="none" stroke="black" stroke-width="1" stroke-miterlimit="4" d="M50.8203 330.493L48.8203 330.493"/>
	<path fill="none" stroke="black" stroke-width="1" stroke-miterlimit="4" d="M50.8203 322.811L48.8203 322.811"/>
	<path fill="none" stroke="black" stroke-width="1" stroke-miterlimit="4" d="M50.8203 315.13L48.8203 315.13"/>
	<path fill="none" stroke="black" stroke-width="1" stroke-miterlimit="4" d="M50.8203 307.449L48.8203 307.449"/>
	<path fill="none" stroke="black" stroke-width="1" stroke-miterlimit="4" d="M50.8203 292.086L48.8203 292.086"/>
	<path fill="none" stroke="black" stroke-width="1" stroke-miterlimit="4" d="M50.8203 284.404L48.8203 284.404"/>
	<path fill="none" stroke="black" stroke-width="1" stroke-miterlimit="4" d="M50.8203 276.723L48.8203 276.723"/>
	<path fill="none" stroke="black" stroke-width="1" stroke-miterlimit="4" d="M50.8203 269.042L48.8203 269.042"/>
	<path fill="none" stroke="black" stroke-width="1" stroke-miterlimit="4" d="M50.8203 253.679L48.8203 253.679"/>
	<path fill="none" stroke="black" stroke-width="1" stroke-miterlimit="4" d="M50.8203 245.997L48.8203 245.997"/>
	<path fill="none" stroke="black" stroke-width="1" stroke-miterlimit="4" d="M50.8203 238.316L48.8203 238.316"/>
	<path fill="none" stroke="black" stroke-width="1" stroke-miterlimit="4" d="M50.8203 230.635L48.8203 230.635"/>
	<path fill="none" stroke="black" stroke-width="1" stroke-miterlimit="4" d="M50.8203 215.272L48.8203 215.272"/>
	<path fill="none" stroke="black" stroke-width="1" stroke-miterlimit="4" d="M50.8203 207.59L48.8203 207.59"/>
	<path fill="none" stroke="black" stroke-width="1" stroke-miterlimit="4" d="M50.8203 199.909L48.8203 199.909"/>
	<path fill="none" stroke="black" stroke-width="1" stroke-miterlimit="4" d="M50.8203 192.228L48.8203 192.228"/>
	<path fill="none" stroke="black" stroke-width="1" stroke-miterlimit="4" d="M50.8203 176.865L48.8203 176.865"/>
	<path fill="none" stroke="black" stroke-width="1" stroke-miterlimit="4" d="M50.8203 169.184L48.8203 169.184"/>
	<path fill="none" stroke="black" stroke-width="1" stroke-miterlimit="4" d="M50.8203 161.502L48.8203 161.502"/>
	<path fill="none" stroke="black" stroke-width="1" stroke-miterlimit="4" d="M50.8203 153.821L48.8203 153.821"/>
	<path fill="none" stroke="black" stroke-width="1" stroke-miterlimit="4" d="M50.8203 138.458L48.8203 138.458"/>
	<path fill="none" stroke="black" stroke-width="1" stroke-miterlimit="4" d="M50.8203 130.777L48.8203 130.777"/>
	<path fill="none" stroke="black" stroke-width="1" stroke-miterlimit="4" d="M50.8203 123.095L48.8203 123.095"/>
	<path fill="none" stroke="black" stroke-width="1" stroke-miterlimit="4" d="M50.8203 115.414L48.8203 115.414"/>
	<path fill="none" stroke="black" stroke-width="1" stroke-miterlimit="4" d="M50.8203 100.051L48.8203 100.051"/>
	<path fill="none" stroke="black" stroke-width="1" stroke-miterlimit="4" d="M50.8203 92.3696L48.8203 92.3696"/>
	<path fill="none" stroke="black" stroke-width="1" stroke-miterlimit="4" d="M50.8203 84.6882L48.8203 84.6882"/>
	<path fill="none" stroke="black" stroke-width="1" stroke-miterlimit="4" d="M50.8203 77.0068L48.8203 77.0068"/>
	<path fill="none" stroke="black" stroke-width="1" stroke-miterlimit="4" d="M50.8203 61.644L48.8203 61.644"/>
	<path fill="none" stroke="black" stroke-width="1" stroke-miterlimit="4" d="M50.8203 53.9626L48.8203 53.9626"/>
	<path fill="none" stroke="black" stroke-width="1" stroke-miterlimit="4" d="M50.8203 46.2813L48.8203 46.2813"/>
	<path fill="none" stroke="black" stroke-width="1" stroke-miterlimit="4" d="M50.8203 468.758L50.8203 46.2813"/>
	<path fill="none" stroke="black" stroke-width="1" stroke-miterlimit="4" d="M885 468.758L885 46.2813"/>
	<text transform="translate(467.91 31.2813)" font-size="16" font-weight="600" font-family="Segoe UI" x="-173.73828, -164.76953, -155.08984, -148.72266, -140.05078, -135.50391, -126.83203, -118.22266, -113.67578, -109.26172, -99.277344, -89.597656, -83.230469, -74.558594, -65.902344, -58.863281, -54.449219, -44.527344, -35.917969, -31.503906, -22.535156, -14.855469, -6.1992188, 3.4804688, 12.089844, 18.457031, 23.003906, 32.785156, 41.613281, 47.519531, 60.160156, 64.574219, 75.886719, 80.300781, 89.503906, 98.707031, 103.04297, 112.24609, 121.44922, 130.65234, 135.06641, 141.43359, 151.11328, 160.79297, 167.83203, " y="-6.890625, ">
			Survival Curves by Scenario (N = 10,000 runs)
	</text>
</svg>
