<?xml version="1.0" encoding="utf-8" ?>
<svg xmlns="http://www.w3.org/2000/svg" xmlns:xlink="http://www.w3.org/1999/xlink" width="900" height="520">
	<rect fill="white" width="900" height="520"/>
	<clipPath id="cl_11">
		<rect x="60.007813" y="51.601563" width="824.99219" height="427.79688"/>
	</clipPath>
	<g clip-path="url(#cl_11)">
		<path fill="none" stroke="#555" stroke-width="2.5" stroke-miterlimit="4" d="M191.257 479.398L191.257 311.536"/>
	</g>
	<clipPath id="cl_12">
		<rect x="60.007813" y="51.601563" width="824.99219" height="427.79688"/>
	</clipPath>
	<g clip-path="url(#cl_12)">
		<path fill="none" stroke="#555" stroke-width="1" stroke-miterlimit="4" d="M168.757 479.398L213.756 479.398"/>
	</g>
	<clipPath id="cl_13">
		<rect x="60.007813" y="51.601563" width="824.99219" height="427.79688"/>
	</clipPath>
	<g clip-path="url(#cl_13)">
		<path fill="none" stroke="#555" stroke-width="1" stroke-miterlimit="4" d="M168.757 311.536L213.756 311.536"/>
	</g>
	<clipPath id="cl_14">
		<rect x="60.007813" y="51.601563" width="824.99219" height="427.79688"/>
	</clipPath>
	<g clip-path="url(#cl_14)">
		<path fill="none" stroke="#555" stroke-width="1" stroke-miterlimit="4" d=""/>
		<ellipse fill="#555" cx="191.25658" cy="420.05081" rx="7" ry="7"/>
	</g>
	<clipPath id="cl_15">
		<rect x="60.007813" y="51.601563" width="824.99219" height="427.79688"/>
	</clipPath>
	<g clip-path="url(#cl_15)">
		<text fill="#333" transform="translate(213.756 420.051)" font-size="20" font-family="Segoe UI" x="0, 10.78125, 21.5625, 27.041016, " y="5.078125, ">
				79 d
		</text>
	</g>
	<clipPath id="cl_16">
		<rect x="60.007813" y="51.601563" width="824.99219" height="427.79688"/>
	</clipPath>
	<g clip-path="url(#cl_16)">
		<path fill="none" stroke="#1F77B4" stroke-width="2.5" stroke-miterlimit="4" d="M378.755 479.398L378.755 248.116"/>
	</g>
	<clipPath id="cl_17">
		<rect x="60.007813" y="51.601563" width="824.99219" height="427.79688"/>
	</clipPath>
	<g clip-path="url(#cl_17)">
		<path fill="none" stroke="#1F77B4" stroke-width="1" stroke-miterlimit="4" d="M356.255 479.398L401.255 479.398"/>
	</g>
	<clipPath id="cl_18">
		<rect x="60.007813" y="51.601563" width="824.99219" height="427.79688"/>
	</clipPath>
	<g clip-path="url(#cl_18)">
		<path fill="none" stroke="#1F77B4" stroke-width="1" stroke-miterlimit="4" d="M356.255 248.116L401.255 248.116"/>
	</g>
	<clipPath id="cl_19">
		<rect x="60.007813" y="51.601563" width="824.99219" height="427.79688"/>
	</clipPath>
	<g clip-path="url(#cl_19)">
		<path fill="none" stroke="#1F77B4" stroke-width="1" stroke-miterlimit="4" d=""/>
		<ellipse fill="#1F77B4" cx="378.75479" cy="379.48026" rx="7" ry="7"/>
	</g>
	<clipPath id="cl_1a">
		<rect x="60.007813" y="51.601563" width="824.99219" height="427.79688"/>
	</clipPath>
	<g clip-path="url(#cl_1a)">
		<text fill="#333" transform="translate(401.255 379.48)" font-size="20" font-family="Segoe UI" x="0, 10.78125, 21.5625, 32.34375, 37.822266, " y="5.078125, ">
				132 d
		</text>
	</g>
	<clipPath id="cl_1b">
		<rect x="60.007813" y="51.601563" width="824.99219" height="427.79688"/>
	</clipPath>
	<g clip-path="url(#cl_1b)">
		<path fill="none" stroke="#FF7F0E" stroke-width="2.5" stroke-miterlimit="4" d="M566.253 479.398L566.253 426.989"/>
	</g>
	<clipPath id="cl_1c">
		<rect x="60.007813" y="51.601563" width="824.99219" height="427.79688"/>
	</clipPath>
	<g clip-path="url(#cl_1c)">
		<path fill="none" stroke="#FF7F0E" stroke-width="1" stroke-miterlimit="4" d="M543.753 479.398L588.753 479.398"/>
	</g>
	<clipPath id="cl_1d">
		<rect x="60.007813" y="51.601563" width="824.99219" height="427.79688"/>
	</clipPath>
	<g clip-path="url(#cl_1d)">
		<path fill="none" stroke="#FF7F0E" stroke-width="1" stroke-miterlimit="4" d="M543.753 426.989L588.753 426.989"/>
	</g>
	<clipPath id="cl_1e">
		<rect x="60.007813" y="51.601563" width="824.99219" height="427.79688"/>
	</clipPath>
	<g clip-path="url(#cl_1e)">
		<path fill="none" stroke="#FF7F0E" stroke-width="1" stroke-miterlimit="4" d=""/>
		<ellipse fill="#FF7F0E" cx="566.25305" cy="461.22464" rx="7" ry="7"/>
	</g>
	<clipPath id="cl_1f">
		<rect x="60.007813" y="51.601563" width="824.99219" height="427.79688"/>
	</clipPath>
	<g clip-path="url(#cl_1f)">
		<text fill="#333" transform="translate(588.753 461.225)" font-size="20" font-family="Segoe UI" x="0, 10.78125, 21.5625, 27.041016, " y="5.078125, ">
				24 d
		</text>
	</g>
	<clipPath id="cl_20">
		<rect x="60.007813" y="51.601563" width="824.99219" height="427.79688"/>
	</clipPath>
	<g clip-path="url(#cl_20)">
		<path fill="none" stroke="#D62728" stroke-width="2.5" stroke-miterlimit="4" d="M753.751 479.398L753.751 107.401"/>
	</g>
	<clipPath id="cl_21">
		<rect x="60.007813" y="51.601563" width="824.99219" height="427.79688"/>
	</clipPath>
	<g clip-path="url(#cl_21)">
		<path fill="none" stroke="#D62728" stroke-width="1" stroke-miterlimit="4" d="M731.251 479.398L776.251 479.398"/>
	</g>
	<clipPath id="cl_22">
		<rect x="60.007813" y="51.601563" width="824.99219" height="427.79688"/>
	</clipPath>
	<g clip-path="url(#cl_22)">
		<path fill="none" stroke="#D62728" stroke-width="1" stroke-miterlimit="4" d="M731.251 107.401L776.251 107.401"/>
	</g>
	<clipPath id="cl_23">
		<rect x="60.007813" y="51.601563" width="824.99219" height="427.79688"/>
	</clipPath>
	<g clip-path="url(#cl_23)">
		<path fill="none" stroke="#D62728" stroke-width="1" stroke-miterlimit="4" d=""/>
		<ellipse fill="#D62728" cx="753.75122" cy="334.68674" rx="7" ry="7"/>
	</g>
	<clipPath id="cl_24">
		<rect x="60.007813" y="51.601563" width="824.99219" height="427.79688"/>
	</clipPath>
	<g clip-path="url(#cl_24)">
		<text fill="#333" transform="translate(776.251 334.687)" font-size="20" font-family="Segoe UI" x="0, 10.78125, 21.5625, 32.34375, 37.822266, " y="5.078125, ">
				192 d
		</text>
	</g>
	<rect fill="#010101" fill-opacity="0.2" x="70.007813" y="61.601563" width="187.63281" height="113.125"/>
	<rect fill="white" x="67.007813" y="58.601563" width="187.63281" height="113.125"/>
	<rect fill="none" stroke="black" stroke-width="1" stroke-miterlimit="4" x="67.007813" y="58.601563" width="187.63281" height="113.125"/>
	<clipPath id="cl_25">
		<rect x="76.007813" y="62.601563" width="169.63281" height="105.125"/>
	</clipPath>
	<g clip-path="url(#cl_25)">
		<text transform="translate(102.008 74.2422)" font-size="16" font-family="Segoe UI" x="0, 9.171875, 17.3125, 24.101563, 32.46875, 36.34375, 40.21875, 49.273438, " y="4.0625, ">
				Baseline
		</text>
		<path fill="none" stroke="#555" stroke-width="1" stroke-miterlimit="4" d="M97.0078 74.2422L77.0078 74.2422"/>
		<ellipse fill="#555" cx="87.007813" cy="74.242188" rx="7" ry="7"/>
		<text transform="translate(102.008 101.523)" font-size="16" font-family="Segoe UI" x="0, 10.320313, 13.789063, 18.171875, 22.429688, 31.484375, 35.359375, 40.78125, 50.6875, 60.0625, 73.84375, 87.625, 91.5, 96.921875, 102.34375, 110.71094, 116.27344, 123.0625, 134.00781, " y="4.0625, ">
				A: InitCommitters=3
		</text>
		<path fill="none" stroke="#1F77B4" stroke-width="1" stroke-miterlimit="4" d="M97.0078 101.523L77.0078 101.523"/>
		<ellipse fill="#1F77B4" cx="87.007813" cy="101.52344" rx="7" ry="7"/>
		<text transform="translate(102.008 128.805)" font-size="16" font-family="Segoe UI" x="0, 9.171875, 12.640625, 17.023438, 24.992188, 35.9375, 44.5625, 48.03125, " y="4.0625, ">
				B: λ=0.2
		</text>
		<path fill="none" stroke="#FF7F0E" stroke-width="1" stroke-miterlimit="4" d="M97.0078 128.805L77.0078 128.805"/>
		<ellipse fill="#FF7F0E" cx="87.007813" cy="128.80469" rx="7" ry="7"/>
		<text transform="translate(102.008 156.086)" font-size="16" font-family="Segoe UI" x="0, 9.90625, 13.375, 17.757813, 29.726563, 39.101563, 43.484375, 52.445313, 58.007813, 67.382813, 81.164063, 90.539063, 95.960938, 99.835938, 109.21094, " y="4.0625, ">
				C: No Promotion
		</text>
		<path fill="none" stroke="#D62728" stroke-width="1" stroke-miterlimit="4" d="M97.0078 156.086L77.0078 156.086"/>
		<ellipse fill="#D62728" cx="87.007813" cy="156.08594" rx="7" ry="7"/>
	</g>
	<path fill="none" stroke="black" stroke-width="1" stroke-miterlimit="4" d="M191.257 479.398L191.257 483.398"/>
	<text transform="translate(191.257 485.398)" font-size="20" font-family="Segoe UI" x="-36.025391, -24.560547, -14.384766, -5.8984375, 4.5605469, 9.4042969, 14.248047, 25.566406, " y="18.378906, ">
			Baseline
	</text>
	<path fill="none" stroke="black" stroke-width="1" stroke-miterlimit="4" d="M378.755 479.398L378.755 483.398"/>
	<text transform="translate(378.755 485.398)" font-size="20" font-family="Segoe UI" x="-89.145508, -76.245117, -71.90918, -66.430664, -61.108398, -49.790039, -44.946289, -38.168945, -25.786133, -14.067383, 3.1591797, 20.385742, 25.229492, 32.006836, 38.78418, 49.243164, 56.196289, 64.682617, 78.364258, " y="18.378906, ">
			A: InitCommitters=3
	</text>
	<path fill="none" stroke="black" stroke-width="1" stroke-miterlimit="4" d="M566.253 479.398L566.253 483.398"/>
	<text transform="translate(566.253 485.398)" font-size="20" font-family="Segoe UI" x="-35.410156, -23.945313, -19.609375, -14.130859, -4.1699219, 9.5117188, 20.292969, 24.628906, " y="18.378906, ">
			B: λ=0.2
	</text>
	<path fill="none" stroke="black" stroke-width="1" stroke-miterlimit="4" d="M753.751 479.398L753.751 483.398"/>
	<text transform="translate(753.751 485.398)" font-size="20" font-family="Segoe UI" x="-73.916016, -61.533203, -57.197266, -51.71875, -36.757813, -25.039063, -19.560547, -8.359375, -1.40625, 10.3125, 27.539063, 39.257813, 46.035156, 50.878906, 62.597656, " y="18.378906, ">
			C: No Promotion
	</text>
	<path fill="none" stroke="black" stroke-width="1" stroke-miterlimit="4" d="M60.0078 479.398L885 479.398"/>
	<path fill="none" stroke="black" stroke-width="1" stroke-miterlimit="4" d="M60.0078 51.7016L885 51.7016"/>
	<text transform="matrix(0 -1 1 0 4 265.5)" font-size="20" font-weight="600" font-family="Segoe UI" x="-112.60742, -93.466797, -82.646484, -71.884766, -59.785156, -54.267578, -39.521484, -28.701172, -17.939453, -10.15625, 1.8847656, 7.4023438, 18.613281, 26.396484, 37.216797, 49.619141, 55.136719, 62.519531, 74.902344, 85.664063, 96.425781, 105.22461, " y="17.988281, ">
			Mean Death Step (days)
	</text>
	<path fill="none" stroke="black" stroke-width="1" stroke-miterlimit="4" d="M60.0078 479.398L56.0078 479.398"/>
	<text transform="translate(51.0078 479.398)" font-size="12" font-family="Segoe UI" x="-6.46875, " y="3.046875, ">
			0
	</text>
	<path fill="none" stroke="black" stroke-width="1" stroke-miterlimit="4" d="M60.0078 441.693L56.0078 441.693"/>
	<text transform="translate(51.0078 441.693)" font-size="12" font-family="Segoe UI" x="-12.9375, -6.46875, " y="3.046875, ">
			50
	</text>
	<path fill="none" stroke="black" stroke-width="1" stroke-miterlimit="4" d="M60.0078 403.988L56.0078 403.988"/>
	<text transform="translate(51.0078 403.988)" font-size="12" font-family="Segoe UI" x="-19.40625, -12.9375, -6.46875, " y="3.046875, ">
			100
	</text>
	<path fill="none" stroke="black" stroke-width="1" stroke-miterlimit="4" d="M60.0078 366.284L56.0078 366.284"/>
	<text transform="translate(51.0078 366.284)" font-size="12" font-family="Segoe UI" x="-19.40625, -12.9375, -6.46875, " y="3.046875, ">
			150
	</text>
	<path fill="none" stroke="black" stroke-width="1" stroke-miterlimit="4" d="M60.0078 328.579L56.0078 328.579"/>
	<text transform="translate(51.0078 328.579)" font-size="12" font-family="Segoe UI" x="-19.40625, -12.9375, -6.46875, " y="3.046875, ">
			200
	</text>
	<path fill="none" stroke="black" stroke-width="1" stroke-miterlimit="4" d="M60.0078 290.874L56.0078 290.874"/>
	<text transform="translate(51.0078 290.874)" font-size="12" font-family="Segoe UI" x="-19.40625, -12.9375, -6.46875, " y="3.046875, ">
			250
	</text>
	<path fill="none" stroke="black" stroke-width="1" stroke-miterlimit="4" d="M60.0078 253.169L56.0078 253.169"/>
	<text transform="translate(51.0078 253.169)" font-size="12" font-family="Segoe UI" x="-19.40625, -12.9375, -6.46875, " y="3.046875, ">
			300
	</text>
	<path fill="none" stroke="black" stroke-width="1" stroke-miterlimit="4" d="M60.0078 215.464L56.0078 215.464"/>
	<text transform="translate(51.0078 215.464)" font-size="12" font-family="Segoe UI" x="-19.40625, -12.9375, -6.46875, " y="3.046875, ">
			350
	</text>
	<path fill="none" stroke="black" stroke-width="1" stroke-miterlimit="4" d="M60.0078 177.759L56.0078 177.759"/>
	<text transform="translate(51.0078 177.759)" font-size="12" font-family="Segoe UI" x="-19.40625, -12.9375, -6.46875, " y="3.046875, ">
			400
	</text>
	<path fill="none" stroke="black" stroke-width="1" stroke-miterlimit="4" d="M60.0078 140.054L56.0078 140.054"/>
	<text transform="translate(51.0078 140.054)" font-size="12" font-family="Segoe UI" x="-19.40625, -12.9375, -6.46875, " y="3.046875, ">
			450
	</text>
	<path fill="none" stroke="black" stroke-width="1" stroke-miterlimit="4" d="M60.0078 102.349L56.0078 102.349"/>
	<text transform="translate(51.0078 102.349)" font-size="12" font-family="Segoe UI" x="-19.40625, -12.9375, -6.46875, " y="3.046875, ">
			500
	</text>
	<path fill="none" stroke="black" stroke-width="1" stroke-miterlimit="4" d="M60.0078 64.6437L56.0078 64.6437"/>
	<text transform="translate(51.0078 64.6437)" font-size="12" font-family="Segoe UI" x="-19.40625, -12.9375, -6.46875, " y="3.046875, ">
			550
	</text>
	<path fill="none" stroke="black" stroke-width="1" stroke-miterlimit="4" d="M60.0078 471.857L58.0078 471.857"/>
	<path fill="none" stroke="black" stroke-width="1" stroke-miterlimit="4" d="M60.0078 464.316L58.0078 464.316"/>
	<path fill="none" stroke="black" stroke-width="1" stroke-miterlimit="4" d="M60.0078 456.775L58.0078 456.775"/>
	<path fill="none" stroke="black" stroke-width="1" stroke-miterlimit="4" d="M60.0078 449.234L58.0078 449.234"/>
	<path fill="none" stroke="black" stroke-width="1" stroke-miterlimit="4" d="M60.0078 434.152L58.0078 434.152"/>
	<path fill="none" stroke="black" stroke-width="1" stroke-miterlimit="4" d="M60.0078 426.611L58.0078 426.611"/>
	<path fill="none" stroke="black" stroke-width="1" stroke-miterlimit="4" d="M60.0078 419.07L58.0078 419.07"/>
	<path fill="none" stroke="black" stroke-width="1" stroke-miterlimit="4" d="M60.0078 411.529L58.0078 411.529"/>
	<path fill="none" stroke="black" stroke-width="1" stroke-miterlimit="4" d="M60.0078 396.448L58.0078 396.448"/>
	<path fill="none" stroke="black" stroke-width="1" stroke-miterlimit="4" d="M60.0078 388.906L58.0078 388.906"/>
	<path fill="none" stroke="black" stroke-width="1" stroke-miterlimit="4" d="M60.0078 381.366L58.0078 381.366"/>
	<path fill="none" stroke="black" stroke-width="1" stroke-miterlimit="4" d="M60.0078 373.825L58.0078 373.825"/>
	<path fill="none" stroke="black" stroke-width="1" stroke-miterlimit="4" d="M60.0078 358.743L58.0078 358.743"/>
	<path fill="none" stroke="black" stroke-width="1" stroke-miterlimit="4" d="M60.0078 351.202L58.0078 351.202"/>
	<path fill="none" stroke="black" stroke-width="1" stroke-miterlimit="4" d="M60.0078 343.661L58.0078 343.661"/>
	<path fill="none" stroke="black" stroke-width="1" stroke-miterlimit="4" d="M60.0078 336.12L58.0078 336.12"/>
	<path fill="none" stroke="black" stroke-width="1" stroke-miterlimit="4" d="M60.0078 321.038L58.0078 321.038"/>
	<path fill="none" stroke="black" stroke-width="1" stroke-miterlimit="4" d="M60.0078 313.497L58.0078 313.497"/>
	<path fill="none" stroke="black" stroke-width="1" stroke-miterlimit="4" d="M60.0078 305.956L58.0078 305.956"/>
	<path fill="none" stroke="black" stroke-width="1" stroke-miterlimit="4" d="M60.0078 298.415L58.0078 298.415"/>
	<path fill="none" stroke="black" stroke-width="1" stroke-miterlimit="4" d="M60.0078 283.333L58.0078 283.333"/>
	<path fill="none" stroke="black" stroke-width="1" stroke-miterlimit="4" d="M60.0078 275.792L58.0078 275.792"/>
	<path fill="none" stroke="black" stroke-width="1" stroke-miterlimit="4" d="M60.0078 268.251L58.0078 268.251"/>
	<path fill="none" stroke="black" stroke-width="1" stroke-miterlimit="4" d="M60.0078 260.71L58.0078 260.71"/>
	<path fill="none" stroke="black" stroke-width="1" stroke-miterlimit="4" d="M60.0078 245.628L58.0078 245.628"/>
	<path fill="none" stroke="black" stroke-width="1" stroke-miterlimit="4" d="M60.0078 238.087L58.0078 238.087"/>
	<path fill="none" stroke="black" stroke-width="1" stroke-miterlimit="4" d="M60.0078 230.546L58.0078 230.546"/>
	<path fill="none" stroke="black" stroke-width="1" stroke-miterlimit="4" d="M60.0078 223.005L58.0078 223.005"/>
	<path fill="none" stroke="black" stroke-width="1" stroke-miterlimit="4" d="M60.0078 207.923L58.0078 207.923"/>
	<path fill="none" stroke="black" stroke-width="1" stroke-miterlimit="4" d="M60.0078 200.382L58.0078 200.382"/>
	<path fill="none" stroke="black" stroke-width="1" stroke-miterlimit="4" d="M60.0078 192.841L58.0078 192.841"/>
	<path fill="none" stroke="black" stroke-width="1" stroke-miterlimit="4" d="M60.0078 185.3L58.0078 185.3"/>
	<path fill="none" stroke="black" stroke-width="1" stroke-miterlimit="4" d="M60.0078 170.218L58.0078 170.218"/>
	<path fill="none" stroke="black" stroke-width="1" stroke-miterlimit="4" d="M60.0078 162.677L58.0078 162.677"/>
	<path fill="none" stroke="black" stroke-width="1" stroke-miterlimit="4" d="M60.0078 155.136L58.0078 155.136"/>
	<path fill="none" stroke="black" stroke-width="1" stroke-miterlimit="4" d="M60.0078 147.595L58.0078 147.595"/>
	<path fill="none" stroke="black" stroke-width="1" stroke-miterlimit="4" d="M60.0078 132.513L58.0078 132.513"/>
	<path fill="none" stroke="black" stroke-width="1" stroke-miterlimit="4" d="M60.0078 124.972L58.0078 124.972"/>
	<path fill="none" stroke="black" stroke-width="1" stroke-miterlimit="4" d="M60.0078 117.431L58.0078 117.431"/>
	<path fill="none" stroke="black" stroke-width="1" stroke-miterlimit="4" d="M60.0078 109.89L58.0078 109.89"/>
	<path fill="none" stroke="black" stroke-width="1" stroke-miterlimit="4" d="M60.0078 94.8077L58.0078 94.8077"/>
	<path fill="none" stroke="black" stroke-width="1" stroke-miterlimit="4" d="M60.0078 87.2667L58.0078 87.2667"/>
	<path fill="none" stroke="black" stroke-width="1" stroke-miterlimit="4" d="M60.0078 79.7257L58.0078 79.7257"/>
	<path fill="none" stroke="black" stroke-width="1" stroke-miterlimit="4" d="M60.0078 72.1847L58.0078 72.1847"/>
	<path fill="none" stroke="black" stroke-width="1" stroke-miterlimit="4" d="M60.0078 57.1027L58.0078 57.1027"/>
	<path fill="none" stroke="black" stroke-width="1" stroke-miterlimit="4" d="M60.0078 479.398L60.0078 51.6016"/>
	<path fill="none" stroke="black" stroke-width="1" stroke-miterlimit="4" d="M885 479.398L885 51.6016"/>
	<text transform="translate(472.504 36.6016)" font-size="20" font-weight="600" font-family="Segoe UI" x="-249.5166, -230.37598, -219.55566, -208.79395, -196.69434, -191.17676, -176.43066, -165.61035, -154.84863, -147.06543, -135.02441, -129.50684, -114.76074, -103.99902, -93.237305, -87.719727, -73.579102, -68.061523, -56.850586, -49.067383, -36.68457, -31.166992, -16.420898, -5.6005859, 5.2392578, 10.756836, 23.15918, 33.920898, 39.438477, 50.649414, 60.249023, 71.069336, 83.168945, 93.930664, 101.88965, 107.57324, 119.7998, 130.83496, 138.21777, 154.01855, 159.53613, 173.67676, 179.19434, 190.69824, 202.20215, 207.62207, 219.12598, 230.62988, 242.13379, " y="-8.6132813, ">
			Mean Death Day ± Std Dev by Scenario (N = 10,000)
	</text>
</svg>
