<?xml version="1.0" encoding="utf-8" ?>
<svg xmlns="http://www.w3.org/2000/svg" xmlns:xlink="http://www.w3.org/1999/xlink" width="900" height="520">
	<rect fill="white" width="900" height="520"/>
	<path fill="none" stroke="#010101" stroke-width="1" stroke-miterlimit="4" stroke-opacity="0.098039217" d="M56.1406 452.797L56.1406 51.6016M142.256 452.797L142.256 51.6016M228.371 452.797L228.371 51.6016M314.486 452.797L314.486 51.6016M400.602 452.797L400.602 51.6016M486.717 452.797L486.717 51.6016M572.832 452.797L572.832 51.6016M658.947 452.797L658.947 51.6016M745.063 452.797L745.063 51.6016M831.178 452.797L831.178 51.6016"/>
	<path fill="none" stroke="#010101" stroke-width="1" stroke-miterlimit="4" stroke-opacity="0.098039217" d="M56.1406 452.797L885 452.797M56.1406 419.364L885 419.364M56.1406 385.931L885 385.931M56.1406 352.498L885 352.498M56.1406 319.065L885 319.065M56.1406 285.632L885 285.632M56.1406 252.199L885 252.199M56.1406 218.766L885 218.766M56.1406 185.333L885 185.333M56.1406 151.9L885 151.9M56.1406 118.467L885 118.467M56.1406 85.0345L885 85.0345"/>
	<clipPath id="cl_4">
		<rect x="56.140625" y="51.601563" width="828.85938" height="401.19531"/>
	</clipPath>
	<g clip-path="url(#cl_4)">
		<path fill="#AAA" d="M841.442 452.797L841.442 442.797L842.442 442.797L842.442 452.797M841.442 432.797L841.442 422.797L842.442 422.797L842.442 432.797M841.442 412.797L841.442 402.797L842.442 402.797L842.442 412.797M841.442 392.797L841.442 382.797L842.442 382.797L842.442 392.797M841.442 372.797L841.442 362.797L842.442 362.797L842.442 372.797M841.442 352.797L841.442 342.797L842.442 342.797L842.442 352.797M841.442 332.797L841.442 322.797L842.442 322.797L842.442 332.797M841.442 312.797L841.442 302.797L842.442 302.797L842.442 312.797M841.442 292.797L841.442 282.797L842.442 282.797L842.442 292.797M841.442 272.797L841.442 262.797L842.442 262.797L842.442 272.797M841.442 252.797L841.442 242.797L842.442 242.797L842.442 252.797M841.442 232.797L841.442 222.797L842.442 222.797L842.442 232.797M841.442 212.797L841.442 202.797L842.442 202.797L842.442 212.797M841.442 192.797L841.442 182.797L842.442 182.797L842.442 192.797M841.442 172.797L841.442 162.797L842.442 162.797L842.442 172.797M841.442 152.797L841.442 142.797L842.442 142.797L842.442 152.797M841.442 132.797L841.442 122.797L842.442 122.797L842.442 132.797M841.442 112.797L841.442 102.797L842.442 102.797L842.442 112.797M841.442 92.7969L841.442 82.7969L842.442 82.7969L842.442 92.7969M841.442 72.7969L841.442 62.7969L842.442 62.7969L842.442 72.7969M841.442 52.7969L841.442 51.6016L842.442 51.6016L842.442 52.7969"/>
	</g>
	<clipPath id="cl_5">
		<rect x="56.140625" y="51.601563" width="828.85938" height="401.19531"/>
	</clipPath>
	<g clip-path="url(#cl_5)">
		<path fill="none" stroke="#555" stroke-width="2.4000001" stroke-miterlimit="4" d="M56.1406 118.467L58.2935 130.303L60.4464 153.539L62.5993 174.434L64.7522 194.862L66.905 211.779L69.0579 226.021L71.2108 239.361L73.3637 250.327L75.5166 260.056L77.6694 269.049L79.8223 276.639L81.9752 283.359L84.1281 289.176L86.281 295.361L88.4338 300.175L90.5867 304.856L92.7396 309.303L94.8925 313.616L97.0454 317.828L99.1983 321.238L101.351 324.214L103.504 327.022L105.657 329.563L107.81 331.97L109.963 334.311L112.116 335.982L114.268 338.055L116.421 339.693L118.574 341.599L120.727 343.638L122.88 345.176L125.033 346.38L127.186 347.951L129.339 349.188L131.491 350.559L133.644 351.662L135.797 352.598L137.95 353.635L140.103 354.705L142.256 355.373L144.409 356.209L146.562 357.212L148.715 358.182L150.867 358.917L153.02 359.419L155.173 360.321L157.326 360.957L159.479 361.659L161.632 362.227L163.785 362.595L165.938 363.063L168.09 363.631L170.243 364.133L172.396 364.701L174.549 365.102L176.702 365.671L178.855 366.206L181.008 366.54L183.161 366.841L185.314 367.376L187.466 367.543L189.619 367.743L191.772 368.078L193.925 368.412L196.078 368.613L198.231 368.98L200.384 369.215L202.537 369.449L204.689 369.683L206.842 369.983L208.995 370.117L211.148 370.452L213.301 370.552L215.454 370.853L217.607 371.053L219.76 371.154L221.913 371.321L224.065 371.421L226.218 371.588L228.371 371.722L230.524 371.822L232.677 371.989L234.83 372.09L236.983 372.123L239.136 372.19L241.288 372.223L243.441 372.29L245.594 372.424L247.747 372.591L249.9 372.692L252.053 372.792L254.206 372.792L256.359 373.093L258.511 373.26L260.664 373.293L262.817 373.427L264.97 373.628L267.123 373.761L269.276 374.029L271.429 374.096L273.582 374.129L275.735 374.163L277.887 374.296L280.04 374.397L282.193 374.464L284.346 374.497L286.499 374.664L288.652 374.698L290.805 374.764L292.958 374.865L295.11 374.965L297.263 375.132L299.416 375.199L301.569 375.266L303.722 375.366L305.875 375.433L308.028 375.433L310.181 375.533L312.334 375.6L314.486 375.6L316.639 375.634L318.792 375.634L320.945 375.701L323.098 375.701L325.251 375.734L327.404 375.767L329.557 375.901L331.709 375.935L333.862 375.968L336.015 376.035L338.168 376.102L340.321 376.202L342.474 376.235L344.627 376.302L346.78 376.369L348.932 376.403L351.085 376.403L353.238 376.436L355.391 376.436L357.544 376.536L359.697 376.57L361.85 376.637L364.003 376.637L366.156 376.67L368.308 376.703L370.461 376.703L372.614 376.804L374.767 376.837L376.92 376.837L379.073 376.837L381.226 376.837L383.379 376.837L385.531 376.871L387.684 376.904L389.837 376.938L391.99 377.004L394.143 377.004L396.296 377.038L398.449 377.071L400.602 377.071L402.755 377.172L404.907 377.205L407.06 377.205L409.213 377.205L411.366 377.205L413.519 377.238L415.672 377.238L417.825 377.238L419.978 377.238L422.13 377.305L424.283 377.305L426.436 377.305L428.589 377.305L430.742 377.339L432.895 377.372L435.048 377.472L437.201 377.506L439.354 377.506L441.506 377.506L443.659 377.506L445.812 377.506L447.965 377.539L450.118 377.539L452.271 377.573L454.424 377.606L456.577 377.606L458.729 377.606L460.882 377.606L463.035 377.64L465.188 377.74L467.341 377.84L469.494 377.84L471.647 377.874L473.8 377.941L475.953 377.941L478.105 377.974L480.258 378.007L482.411 378.007L484.564 378.007L486.717 378.041L488.87 378.074L491.023 378.074L493.176 378.074L495.328 378.074L497.481 378.108L499.634 378.108L501.787 378.141L503.94 378.141L506.093 378.141L508.246 378.141L510.399 378.141L512.552 378.141L514.704 378.141L516.857 378.175L519.01 378.175L521.163 378.175L523.316 378.175L525.469 378.175L527.622 378.175L529.775 378.175L531.927 378.175L534.08 378.175L536.233 378.175L538.386 378.175L540.539 378.208L542.692 378.241L544.845 378.241L546.998 378.241L549.151 378.241L551.303 378.241L553.456 378.241L555.609 378.241L557.762 378.241L559.915 378.241L562.068 378.241L564.221 378.241L566.374 378.241L568.526 378.241L570.679 378.275L572.832 378.275L574.985 378.275L577.138 378.275L579.291 378.275L581.444 378.275L583.597 378.275L585.749 378.275L587.902 378.275L590.055 378.275L592.208 378.275L594.361 378.275L596.514 378.308L598.667 378.308L600.82 378.342L602.973 378.342L605.125 378.342L607.278 378.342L609.431 378.342L611.584 378.342L613.737 378.342L615.89 378.375L618.043 378.375L620.196 378.409L622.348 378.475L624.501 378.475L626.654 378.475L628.807 378.475L630.96 378.475L633.113 378.475L635.266 378.475L637.419 378.475L639.572 378.475L641.724 378.509L643.877 378.509L646.03 378.509L648.183 378.509L650.336 378.509L652.489 378.509L654.642 378.509L656.795 378.509L658.947 378.509L661.1 378.509L663.253 378.509L665.406 378.509L667.559 378.542L669.712 378.542L671.865 378.542L674.018 378.542L676.17 378.542L678.323 378.542L680.476 378.542L682.629 378.542L684.782 378.542L686.935 378.542L689.088 378.542L691.241 378.542L693.394 378.542L695.546 378.542L697.699 378.542L699.852 378.542L702.005 378.542L704.158 378.542L706.311 378.542L708.464 378.542L710.617 378.542L712.769 378.542L714.922 378.542L717.075 378.542L719.228 378.542L721.381 378.542L723.534 378.542L725.687 378.542L727.84 378.576L729.993 378.576L732.145 378.576L734.298 378.576L736.451 378.576L738.604 378.576L740.757 378.576L742.91 378.576L745.063 378.576L747.216 378.576L749.368 378.576L751.521 378.576L753.674 378.576L755.827 378.576L757.98 378.576L760.133 378.576L762.286 378.576L764.439 378.576L766.591 378.576L768.744 378.576L770.897 378.576L773.05 378.576L775.203 378.576L777.356 378.576L779.509 378.576L781.662 378.609L783.815 378.609L785.967 378.609L788.12 378.643L790.273 378.643L792.426 378.643L794.579 378.643L796.732 378.643L798.885 378.643L801.038 378.643L803.19 378.643L805.343 378.643L807.496 378.643L809.649 378.643L811.802 378.643L813.955 378.643L816.108 378.643L818.261 378.643L820.414 378.643L822.566 378.643L824.719 378.643L826.872 378.643L829.025 378.643L831.178 378.643L833.331 378.643L835.484 378.643L837.637 378.643L839.789 378.643L841.942 378.91"/>
	</g>
	<clipPath id="cl_6">
		<rect x="56.140625" y="51.601563" width="828.85938" height="401.19531"/>
	</clipPath>
	<g clip-path="url(#cl_6)">
		<path fill="none" stroke="#1F77B4" stroke-width="2.4000001" stroke-miterlimit="4" d="M56.1406 118.467L58.2935 118.802L60.4464 119.738L62.5993 121.811L64.7522 124.318L66.905 126.859L69.0579 129.935L71.2108 133.412L73.3637 137.023L75.5166 139.63L77.6694 142.372L79.8223 144.545L81.9752 146.819L84.1281 148.992L86.281 151.599L88.4338 153.873L90.5867 155.946L92.7396 157.651L94.8925 159.356L97.0454 160.961L99.1983 161.964L101.351 163.635L103.504 164.605L105.657 166.21L107.81 167.681L109.963 168.751L112.116 169.386L114.268 170.389L116.421 171.559L118.574 172.495L120.727 173.264L122.88 173.799L125.033 174.568L127.186 175.27L129.339 176.072L131.491 176.708L133.644 177.209L135.797 177.677L137.95 178.212L140.103 179.148L142.256 179.783L144.409 180.218L146.562 180.686L148.715 180.954L150.867 181.288L153.02 181.622L155.173 181.957L157.326 182.224L159.479 182.324L161.632 182.625L163.785 182.893L165.938 183.093L168.09 183.361L170.243 183.595L172.396 184.063L174.549 184.364L176.702 184.732L178.855 185.133L181.008 185.367L183.161 185.601L185.314 185.768L187.466 185.935L189.619 186.035L191.772 186.169L193.925 186.336L196.078 186.403L198.231 186.47L200.384 186.637L202.537 186.738L204.689 186.871L206.842 187.038L208.995 187.139L211.148 187.272L213.301 187.272L215.454 187.406L217.607 187.473L219.76 187.54L221.913 187.573L224.065 187.64L226.218 187.707L228.371 187.807L230.524 187.941L232.677 188.041L234.83 188.142L236.983 188.209L239.136 188.209L241.288 188.242L243.441 188.342L245.594 188.376L247.747 188.443L249.9 188.509L252.053 188.576L254.206 188.743L256.359 188.777L258.511 188.844L260.664 188.877L262.817 189.011L264.97 189.044L267.123 189.078L269.276 189.178L271.429 189.278L273.582 189.312L275.735 189.412L277.887 189.446L280.04 189.546L282.193 189.579L284.346 189.646L286.499 189.646L288.652 189.78L290.805 189.813L292.958 189.847L295.11 189.847L297.263 189.88L299.416 189.88L301.569 189.947L303.722 190.014L305.875 190.047L308.028 190.081L310.181 190.148L312.334 190.181L314.486 190.215L316.639 190.248L318.792 190.248L320.945 190.281L323.098 190.382L325.251 190.449L327.404 190.482L329.557 190.482L331.709 190.482L333.862 190.482L336.015 190.549L338.168 190.549L340.321 190.582L342.474 190.616L344.627 190.649L346.78 190.649L348.932 190.649L351.085 190.649L353.238 190.683L355.391 190.749L357.544 190.749L359.697 190.816L361.85 190.816L364.003 190.85L366.156 190.95L368.308 190.983L370.461 191.017L372.614 191.05L374.767 191.05L376.92 191.05L379.073 191.084L381.226 191.117L383.379 191.117L385.531 191.117L387.684 191.117L389.837 191.117L391.99 191.117L394.143 191.117L396.296 191.151L398.449 191.184L400.602 191.184L402.755 191.184L404.907 191.184L407.06 191.184L409.213 191.218L411.366 191.218L413.519 191.218L415.672 191.251L417.825 191.251L419.978 191.284L422.13 191.284L424.283 191.385L426.436 191.385L428.589 191.385L430.742 191.385L432.895 191.418L435.048 191.418L437.201 191.418L439.354 191.418L441.506 191.418L443.659 191.452L445.812 191.452L447.965 191.452L450.118 191.452L452.271 191.452L454.424 191.452L456.577 191.452L458.729 191.452L460.882 191.485L463.035 191.485L465.188 191.552L467.341 191.552L469.494 191.585L471.647 191.585L473.8 191.619L475.953 191.619L478.105 191.619L480.258 191.619L482.411 191.619L484.564 191.652L486.717 191.652L488.87 191.652L491.023 191.652L493.176 191.652L495.328 191.686L497.481 191.686L499.634 191.686L501.787 191.686L503.94 191.686L506.093 191.719L508.246 191.719L510.399 191.719L512.552 191.719L514.704 191.719L516.857 191.719L519.01 191.752L521.163 191.752L523.316 191.752L525.469 191.752L527.622 191.752L529.775 191.752L531.927 191.752L534.08 191.752L536.233 191.786L538.386 191.786L540.539 191.786L542.692 191.786L544.845 191.786L546.998 191.786L549.151 191.786L551.303 191.786L553.456 191.786L555.609 191.786L557.762 191.786L559.915 191.786L562.068 191.786L564.221 191.786L566.374 191.786L568.526 191.786L570.679 191.786L572.832 191.786L574.985 191.786L577.138 191.786L579.291 191.786L581.444 191.786L583.597 191.786L585.749 191.786L587.902 191.786L590.055 191.786L592.208 191.786L594.361 191.786L596.514 191.786L598.667 191.786L600.82 191.786L602.973 191.819L605.125 191.819L607.278 191.819L609.431 191.819L611.584 191.819L613.737 191.819L615.89 191.819L618.043 191.819L620.196 191.819L622.348 191.819L624.501 191.819L626.654 191.819L628.807 191.819L630.96 191.819L633.113 191.853L635.266 191.853L637.419 191.853L639.572 191.853L641.724 191.853L643.877 191.853L646.03 191.853L648.183 191.853L650.336 191.853L652.489 191.853L654.642 191.853L656.795 191.853L658.947 191.853L661.1 191.853L663.253 191.853L665.406 191.853L667.559 191.853L669.712 191.853L671.865 191.853L674.018 191.853L676.17 191.853L678.323 191.853L680.476 191.853L682.629 191.853L684.782 191.853L686.935 191.853L689.088 191.853L691.241 191.853L693.394 191.853L695.546 191.853L697.699 191.853L699.852 191.853L702.005 191.853L704.158 191.853L706.311 191.853L708.464 191.853L710.617 191.853L712.769 191.853L714.922 191.853L717.075 191.853L719.228 191.853L721.381 191.853L723.534 191.853L725.687 191.853L727.84 191.853L729.993 191.853L732.145 191.853L734.298 191.853L736.451 191.853L738.604 191.853L740.757 191.853L742.91 191.853L745.063 191.853L747.216 191.853L749.368 191.853L751.521 191.853L753.674 191.853L755.827 191.853L757.98 191.853L760.133 191.853L762.286 191.853L764.439 191.853L766.591 191.853L768.744 191.853L770.897 191.853L773.05 191.853L775.203 191.853L777.356 191.853L779.509 191.853L781.662 191.853L783.815 191.853L785.967 191.853L788.12 191.853L790.273 191.853L792.426 191.886L794.579 191.886L796.732 191.886L798.885 191.886L801.038 191.886L803.19 191.886L805.343 191.886L807.496 191.886L809.649 191.886L811.802 191.886L813.955 191.886L816.108 191.886L818.261 191.886L820.414 191.886L822.566 191.886L824.719 191.886L826.872 191.886L829.025 191.886L831.178 191.886L833.331 191.92L835.484 191.92L837.637 191.92L839.789 191.92L841.942 192.02"/>
	</g>
	<clipPath id="cl_7">
		<rect x="56.140625" y="51.601563" width="828.85938" height="401.19531"/>
	</clipPath>
	<g clip-path="url(#cl_7)">
		<path fill="none" stroke="#FF7F0E" stroke-width="2.4000001" stroke-miterlimit="4" d="M56.1406 118.467L58.2935 168.717L60.4464 210.876L62.5993 236.987L64.7522 256.144L66.905 268.18L69.0579 277.374L71.2108 284.395L73.3637 289.878L75.5166 293.756L77.6694 297.1L79.8223 299.908L81.9752 302.014L84.1281 304.388L86.281 306.193L88.4338 308.133L90.5867 309.135L92.7396 310.573L94.8925 311.409L97.0454 311.977L99.1983 312.579L101.351 313.081L103.504 313.448L105.657 313.883L107.81 314.184L109.963 314.619L112.116 314.986L114.268 315.187L116.421 315.488L118.574 315.688L120.727 316.023L122.88 316.19L125.033 316.524L127.186 316.758L129.339 316.892L131.491 317.159L133.644 317.36L135.797 317.427L137.95 317.494L140.103 317.661L142.256 317.761L144.409 317.928L146.562 318.062L148.715 318.096L150.867 318.162L153.02 318.196L155.173 318.263L157.326 318.396L159.479 318.463L161.632 318.463L163.785 318.463L165.938 318.497L168.09 318.53L170.243 318.564L172.396 318.564L174.549 318.664L176.702 318.697L178.855 318.731L181.008 318.764L183.161 318.764L185.314 318.798L187.466 318.831L189.619 318.898L191.772 318.931L193.925 318.931L196.078 318.931L198.231 318.931L200.384 318.931L202.537 318.965L204.689 318.965L206.842 318.965L208.995 318.965L211.148 318.965L213.301 319.032L215.454 319.032L217.607 319.032L219.76 319.032L221.913 319.032L224.065 319.065L226.218 319.065L228.371 319.065L230.524 319.065L232.677 319.065L234.83 319.132L236.983 319.132L239.136 319.132L241.288 319.132L243.441 319.199L245.594 319.199L247.747 319.199L249.9 319.232L252.053 319.266L254.206 319.266L256.359 319.299L258.511 319.299L260.664 319.299L262.817 319.299L264.97 319.299L267.123 319.299L269.276 319.299L271.429 319.333L273.582 319.366L275.735 319.366L277.887 319.366L280.04 319.366L282.193 319.366L284.346 319.366L286.499 319.366L288.652 319.366L290.805 319.366L292.958 319.366L295.11 319.399L297.263 319.399L299.416 319.399L301.569 319.399L303.722 319.399L305.875 319.399L308.028 319.399L310.181 319.399L312.334 319.399L314.486 319.399L316.639 319.399L318.792 319.399L320.945 319.399L323.098 319.399L325.251 319.399L327.404 319.399L329.557 319.399L331.709 319.399L333.862 319.399L336.015 319.399L338.168 319.399L340.321 319.399L342.474 319.399L344.627 319.399L346.78 319.399L348.932 319.399L351.085 319.399L353.238 319.399L355.391 319.399L357.544 319.399L359.697 319.399L361.85 319.399L364.003 319.399L366.156 319.399L368.308 319.399L370.461 319.399L372.614 319.399L374.767 319.399L376.92 319.399L379.073 319.399L381.226 319.399L383.379 319.399L385.531 319.399L387.684 319.399L389.837 319.399L391.99 319.399L394.143 319.399L396.296 319.399L398.449 319.399L400.602 319.399L402.755 319.399L404.907 319.399L407.06 319.399L409.213 319.399L411.366 319.399L413.519 319.399L415.672 319.399L417.825 319.399L419.978 319.399L422.13 319.399L424.283 319.399L426.436 319.399L428.589 319.399L430.742 319.399L432.895 319.399L435.048 319.399L437.201 319.399L439.354 319.399L441.506 319.399L443.659 319.399L445.812 319.399L447.965 319.399L450.118 319.399L452.271 319.399L454.424 319.399L456.577 319.399L458.729 319.399L460.882 319.399L463.035 319.399L465.188 319.399L467.341 319.399L469.494 319.399L471.647 319.399L473.8 319.399L475.953 319.399L478.105 319.399L480.258 319.399L482.411 319.399L484.564 319.399L486.717 319.399L488.87 319.399L491.023 319.399L493.176 319.399L495.328 319.399L497.481 319.399L499.634 319.399L501.787 319.399L503.94 319.399L506.093 319.399L508.246 319.399L510.399 319.399L512.552 319.399L514.704 319.399L516.857 319.399L519.01 319.399L521.163 319.399L523.316 319.399L525.469 319.399L527.622 319.399L529.775 319.399L531.927 319.399L534.08 319.399L536.233 319.399L538.386 319.399L540.539 319.399L542.692 319.399L544.845 319.399L546.998 319.399L549.151 319.399L551.303 319.399L553.456 319.399L555.609 319.399L557.762 319.399L559.915 319.399L562.068 319.399L564.221 319.399L566.374 319.399L568.526 319.399L570.679 319.399L572.832 319.399L574.985 319.399L577.138 319.399L579.291 319.399L581.444 319.399L583.597 319.399L585.749 319.399L587.902 319.399L590.055 319.399L592.208 319.399L594.361 319.399L596.514 319.399L598.667 319.399L600.82 319.399L602.973 319.399L605.125 319.399L607.278 319.399L609.431 319.399L611.584 319.399L613.737 319.399L615.89 319.399L618.043 319.399L620.196 319.399L622.348 319.399L624.501 319.399L626.654 319.399L628.807 319.399L630.96 319.399L633.113 319.399L635.266 319.399L637.419 319.399L639.572 319.399L641.724 319.399L643.877 319.399L646.03 319.399L648.183 319.399L650.336 319.399L652.489 319.399L654.642 319.399L656.795 319.399L658.947 319.399L661.1 319.399L663.253 319.399L665.406 319.399L667.559 319.399L669.712 319.399L671.865 319.399L674.018 319.399L676.17 319.399L678.323 319.399L680.476 319.399L682.629 319.399L684.782 319.399L686.935 319.399L689.088 319.399L691.241 319.399L693.394 319.399L695.546 319.399L697.699 319.399L699.852 319.399L702.005 319.399L704.158 319.399L706.311 319.399L708.464 319.399L710.617 319.399L712.769 319.399L714.922 319.399L717.075 319.399L719.228 319.399L721.381 319.399L723.534 319.399L725.687 319.399L727.84 319.399L729.993 319.399L732.145 319.399L734.298 319.399L736.451 319.399L738.604 319.399L740.757 319.399L742.91 319.399L745.063 319.399L747.216 319.399L749.368 319.399L751.521 319.399L753.674 319.399L755.827 319.399L757.98 319.399L760.133 319.399L762.286 319.399L764.439 319.399L766.591 319.399L768.744 319.399L770.897 319.399L773.05 319.399L775.203 319.399L777.356 319.399L779.509 319.399L781.662 319.399L783.815 319.399L785.967 319.399L788.12 319.399L790.273 319.399L792.426 319.399L794.579 319.399L796.732 319.399L798.885 319.399L801.038 319.399L803.19 319.399L805.343 319.399L807.496 319.399L809.649 319.399L811.802 319.399L813.955 319.399L816.108 319.399L818.261 319.399L820.414 319.399L822.566 319.399L824.719 319.399L826.872 319.399L829.025 319.399L831.178 319.399L833.331 319.399L835.484 319.399L837.637 319.399L839.789 319.399L841.942 319.399"/>
	</g>
	<clipPath id="cl_8">
		<rect x="56.140625" y="51.601563" width="828.85938" height="401.19531"/>
	</clipPath>
	<g clip-path="url(#cl_8)">
		<path fill="none" stroke="#D62728" stroke-width="2.4000001" stroke-miterlimit="4" d="M56.1406 118.467L58.2935 119.437L60.4464 124.586L62.5993 131.974L64.7522 142.138L66.905 153.037L69.0579 163.803L71.2108 174.769L73.3637 184.497L75.5166 194.929L77.6694 205.226L79.8223 213.317L81.9752 222.812L84.1281 231.304L86.281 239.261L88.4338 246.85L90.5867 253.67L92.7396 260.825L94.8925 267.411L97.0454 273.596L99.1983 278.812L101.351 284.796L103.504 289.611L105.657 295.06L107.81 299.975L109.963 305.023L112.116 309.069L114.268 313.214L116.421 317.126L118.574 320.67L120.727 324.715L122.88 328.46L125.033 332.572L127.186 336.016L129.339 339.325L131.491 342.468L133.644 345.845L135.797 348.687L137.95 351.629L140.103 354.036L142.256 356.376L144.409 358.683L146.562 360.99L148.715 363.564L150.867 365.737L153.02 367.743L155.173 370.418L157.326 372.324L159.479 374.129L161.632 376.135L163.785 377.941L165.938 379.88L168.09 381.718L170.243 383.223L172.396 384.46L174.549 386.499L176.702 387.803L178.855 389.241L181.008 390.244L183.161 391.447L185.314 392.785L187.466 394.122L189.619 395.292L191.772 396.362L193.925 397.432L196.078 398.635L198.231 399.772L200.384 400.809L202.537 401.678L204.689 402.781L206.842 403.784L208.995 404.754L211.148 405.757L213.301 407.094L215.454 407.963L217.607 409.267L219.76 409.902L221.913 410.738L224.065 411.507L226.218 412.042L228.371 412.778L230.524 413.58L232.677 414.015L234.83 414.884L236.983 415.686L239.136 416.388L241.288 417.258L243.441 417.893L245.594 418.361L247.747 419.03L249.9 419.531L252.053 420.033L254.206 420.668L256.359 421.303L258.511 422.072L260.664 422.808L262.817 423.376L264.97 423.844L267.123 424.379L269.276 424.88L271.429 425.282L273.582 425.883L275.735 426.385L277.887 426.719L280.04 427.087L282.193 427.689L284.346 428.123L286.499 428.424L288.652 428.658L290.805 429.093L292.958 429.427L295.11 429.795L297.263 430.129L299.416 430.43L301.569 430.731L303.722 431.166L305.875 431.199L308.028 431.4L310.181 431.768L312.334 432.202L314.486 432.47L316.639 432.536L318.792 432.771L320.945 433.038L323.098 433.305L325.251 433.64L327.404 434.041L329.557 434.074L331.709 434.175L333.862 434.442L336.015 434.643L338.168 434.877L340.321 434.944L342.474 435.011L344.627 435.245L346.78 435.378L348.932 435.646L351.085 435.813L353.238 436.014L355.391 436.181L357.544 436.482L359.697 436.716L361.85 437.017L364.003 437.184L366.156 437.317L368.308 437.418L370.461 437.585L372.614 437.919L374.767 438.02L376.92 438.12L379.073 438.287L381.226 438.521L383.379 438.588L385.531 438.688L387.684 438.855L389.837 439.089L391.99 439.29L394.143 439.457L396.296 439.591L398.449 439.691L400.602 439.858L402.755 440.126L404.907 440.26L407.06 440.393L409.213 440.527L411.366 440.627L413.519 440.728L415.672 440.761L417.825 440.895L419.978 440.962L422.13 441.095L424.283 441.162L426.436 441.363L428.589 441.43L430.742 441.563L432.895 441.697L435.048 441.965L437.201 442.165L439.354 442.266L441.506 442.366L443.659 442.5L445.812 442.533L447.965 442.566L450.118 442.7L452.271 442.7L454.424 442.867L456.577 442.968L458.729 443.034L460.882 443.268L463.035 443.268L465.188 443.335L467.341 443.469L469.494 443.536L471.647 443.569L473.8 443.77L475.953 443.803L478.105 443.87L480.258 443.937L482.411 444.037L484.564 444.071L486.717 444.104L488.87 444.205L491.023 444.338L493.176 444.405L495.328 444.439L497.481 444.539L499.634 444.639L501.787 444.673L503.94 444.706L506.093 444.773L508.246 444.806L510.399 444.907L512.552 444.907L514.704 444.907L516.857 444.94L519.01 444.974L521.163 445.074L523.316 445.074L525.469 445.107L527.622 445.141L529.775 445.208L531.927 445.241L534.08 445.308L536.233 445.308L538.386 445.375L540.539 445.408L542.692 445.442L544.845 445.442L546.998 445.475L549.151 445.508L551.303 445.542L553.456 445.542L555.609 445.542L557.762 445.676L559.915 445.743L562.068 445.809L564.221 445.843L566.374 445.91L568.526 445.943L570.679 445.977L572.832 445.977L574.985 446.01L577.138 446.043L579.291 446.077L581.444 446.144L583.597 446.211L585.749 446.311L587.902 446.344L590.055 446.378L592.208 446.378L594.361 446.378L596.514 446.511L598.667 446.578L600.82 446.578L602.973 446.645L605.125 446.679L607.278 446.679L609.431 446.779L611.584 446.779L613.737 446.812L615.89 446.946L618.043 447.013L620.196 447.08L622.348 447.214L624.501 447.214L626.654 447.28L628.807 447.314L630.96 447.347L633.113 447.347L635.266 447.381L637.419 447.414L639.572 447.448L641.724 447.481L643.877 447.481L646.03 447.514L648.183 447.514L650.336 447.514L652.489 447.514L654.642 447.514L656.795 447.514L658.947 447.581L661.1 447.581L663.253 447.648L665.406 447.682L667.559 447.715L669.712 447.782L671.865 447.782L674.018 447.815L676.17 447.882L678.323 447.916L680.476 447.949L682.629 447.983L684.782 447.983L686.935 448.049L689.088 448.116L691.241 448.116L693.394 448.116L695.546 448.15L697.699 448.15L699.852 448.15L702.005 448.15L704.158 448.15L706.311 448.183L708.464 448.183L710.617 448.217L712.769 448.217L714.922 448.25L717.075 448.25L719.228 448.283L721.381 448.283L723.534 448.283L725.687 448.283L727.84 448.35L729.993 448.35L732.145 448.35L734.298 448.35L736.451 448.35L738.604 448.35L740.757 448.35L742.91 448.384L745.063 448.384L747.216 448.451L749.368 448.484L751.521 448.517L753.674 448.517L755.827 448.517L757.98 448.584L760.133 448.618L762.286 448.651L764.439 448.718L766.591 448.718L768.744 448.751L770.897 448.751L773.05 448.751L775.203 448.818L777.356 448.852L779.509 448.885L781.662 448.885L783.815 448.919L785.967 448.919L788.12 448.952L790.273 448.986L792.426 449.019L794.579 449.019L796.732 449.052L798.885 449.052L801.038 449.052L803.19 449.052L805.343 449.052L807.496 449.052L809.649 449.052L811.802 449.052L813.955 449.052L816.108 449.086L818.261 449.086L820.414 449.086L822.566 449.119L824.719 449.153L826.872 449.153L829.025 449.186L831.178 449.22L833.331 449.22L835.484 449.22L837.637 449.22L839.789 449.22L841.942 451.125"/>
	</g>
	<rect fill="#010101" fill-opacity="0.2" x="604.29688" y="61.601563" width="276.70313" height="113.125"/>
	<rect fill="white" x="601.29688" y="58.601563" width="276.70313" height="113.125"/>
	<rect fill="none" stroke="black" stroke-width="1" stroke-miterlimit="4" x="601.29688" y="58.601563" width="276.70313" height="113.125"/>
	<clipPath id="cl_9">
		<rect x="610.29688" y="62.601563" width="258.70313" height="105.125"/>
	</clipPath>
	<g clip-path="url(#cl_9)">
		<text transform="translate(636.297 74.2422)" font-size="16" font-family="Segoe UI" x="0, 9.171875, 17.3125, 24.101563, 32.46875, 36.34375, 40.21875, 49.273438, 57.640625, 66.40625, 71.234375, 79.734375, 84.117188, 95.0625, 99.445313, 108.07031, 116.69531, 120.16406, 128.78906, 141.88281, " y="4.0625, ">
				Baseline (S = 22.1%)
		</text>
		<path fill="none" stroke="#555" stroke-width="2.4000001" stroke-miterlimit="4" d="M631.297 74.2422L611.297 74.2422"/>
		<text transform="translate(636.297 101.523)" font-size="16" font-family="Segoe UI" x="0, 10.320313, 13.789063, 18.171875, 22.429688, 31.484375, 35.359375, 40.78125, 50.6875, 60.0625, 73.84375, 87.625, 91.5, 96.921875, 102.34375, 110.71094, 116.27344, 123.0625, 134.00781, 142.63281, 151.39844, 156.22656, 164.72656, 169.10938, 180.05469, 184.4375, 193.0625, 201.6875, 205.15625, 213.78125, 226.875, " y="4.0625, ">
				A: InitCommitters=3 (S = 78.0%)
		</text>
		<path fill="none" stroke="#1F77B4" stroke-width="2.4000001" stroke-miterlimit="4" d="M631.297 101.523L611.297 101.523"/>
		<text transform="translate(636.297 128.805)" font-size="16" font-family="Segoe UI" x="0, 9.171875, 12.640625, 17.023438, 24.992188, 35.9375, 44.5625, 48.03125, 56.65625, 65.421875, 70.25, 78.75, 83.132813, 94.078125, 98.460938, 107.08594, 115.71094, 119.17969, 127.80469, 140.89844, " y="4.0625, ">
				B: λ=0.2 (S = 39.9%)
		</text>
		<path fill="none" stroke="#FF7F0E" stroke-width="2.4000001" stroke-miterlimit="4" d="M631.297 128.805L611.297 128.805"/>
		<text transform="translate(636.297 156.086)" font-size="16" font-family="Segoe UI" x="0, 9.90625, 13.375, 17.757813, 29.726563, 39.101563, 43.484375, 52.445313, 58.007813, 67.382813, 81.164063, 90.539063, 95.960938, 99.835938, 109.21094, 118.26563, 127.03125, 131.85938, 140.35938, 144.74219, 155.6875, 160.07031, 168.69531, 172.16406, 180.78906, 193.88281, " y="4.0625, ">
				C: No Promotion (S = 0.5%)
		</text>
		<path fill="none" stroke="#D62728" stroke-width="2.4000001" stroke-miterlimit="4" d="M631.297 156.086L611.297 156.086"/>
	</g>
	<text transform="translate(470.57 516)" font-size="20" font-weight="600" font-family="Segoe UI" x="-52.602539, -41.391602, -33.608398, -22.788086, -10.385742, -4.8681641, 2.5146484, 14.897461, 25.65918, 36.420898, 45.219727, " y="-8.6132813, ">
			Step (days)
	</text>
	<path fill="none" stroke="black" stroke-width="1" stroke-miterlimit="4" d="M56.1406 452.797L56.1406 456.797"/>
	<text transform="translate(56.1406 458.797)" font-size="20" font-family="Segoe UI" x="-5.390625, " y="18.378906, ">
			0
	</text>
	<path fill="none" stroke="black" stroke-width="1" stroke-miterlimit="4" d="M142.256 452.797L142.256 456.797"/>
	<text transform="translate(142.256 458.797)" font-size="20" font-family="Segoe UI" x="-16.171875, -5.390625, 5.390625, " y="18.378906, ">
			200
	</text>
	<path fill="none" stroke="black" stroke-width="1" stroke-miterlimit="4" d="M228.371 452.797L228.371 456.797"/>
	<text transform="translate(228.371 458.797)" font-size="20" font-family="Segoe UI" x="-16.171875, -5.390625, 5.390625, " y="18.378906, ">
			400
	</text>
	<path fill="none" stroke="black" stroke-width="1" stroke-miterlimit="4" d="M314.486 452.797L314.486 456.797"/>
	<text transform="translate(314.486 458.797)" font-size="20" font-family="Segoe UI" x="-16.171875, -5.390625, 5.390625, " y="18.378906, ">
			600
	</text>
	<path fill="none" stroke="black" stroke-width="1" stroke-miterlimit="4" d="M400.602 452.797L400.602 456.797"/>
	<text transform="translate(400.602 458.797)" font-size="20" font-family="Segoe UI" x="-16.171875, -5.390625, 5.390625, " y="18.378906, ">
			800
	</text>
	<path fill="none" stroke="black" stroke-width="1" stroke-miterlimit="4" d="M486.717 452.797L486.717 456.797"/>
	<text transform="translate(486.717 458.797)" font-size="20" font-family="Segoe UI" x="-23.730469, -12.949219, -8.6132813, 2.1679688, 12.949219, " y="18.378906, ">
			1,000
	</text>
	<path fill="none" stroke="black" stroke-width="1" stroke-miterlimit="4" d="M572.832 452.797L572.832 456.797"/>
	<text transform="translate(572.832 458.797)" font-size="20" font-family="Segoe UI" x="-23.730469, -12.949219, -8.6132813, 2.1679688, 12.949219, " y="18.378906, ">
			1,200
	</text>
	<path fill="none" stroke="black" stroke-width="1" stroke-miterlimit="4" d="M658.947 452.797L658.947 456.797"/>
	<text transform="translate(658.947 458.797)" font-size="20" font-family="Segoe UI" x="-23.730469, -12.949219, -8.6132813, 2.1679688, 12.949219, " y="18.378906, ">
			1,400
	</text>
	<path fill="none" stroke="black" stroke-width="1" stroke-miterlimit="4" d="M745.063 452.797L745.063 456.797"/>
	<text transform="translate(745.063 458.797)" font-size="20" font-family="Segoe UI" x="-23.730469, -12.949219, -8.6132813, 2.1679688, 12.949219, " y="18.378906, ">
			1,600
	</text>
	<path fill="none" stroke="black" stroke-width="1" stroke-miterlimit="4" d="M831.178 452.797L831.178 456.797"/>
	<text transform="translate(831.178 458.797)" font-size="20" font-family="Segoe UI" x="-23.730469, -12.949219, -8.6132813, 2.1679688, 12.949219, " y="18.378906, ">
			1,800
	</text>
	<path fill="none" stroke="black" stroke-width="1" stroke-miterlimit="4" d="M73.3637 452.797L73.3637 454.797"/>
	<path fill="none" stroke="black" stroke-width="1" stroke-miterlimit="4" d="M90.5867 452.797L90.5867 454.797"/>
	<path fill="none" stroke="black" stroke-width="1" stroke-miterlimit="4" d="M107.81 452.797L107.81 454.797"/>
	<path fill="none" stroke="black" stroke-width="1" stroke-miterlimit="4" d="M125.033 452.797L125.033 454.797"/>
	<path fill="none" stroke="black" stroke-width="1" stroke-miterlimit="4" d="M159.479 452.797L159.479 454.797"/>
	<path fill="none" stroke="black" stroke-width="1" stroke-miterlimit="4" d="M176.702 452.797L176.702 454.797"/>
	<path fill="none" stroke="black" stroke-width="1" stroke-miterlimit="4" d="M193.925 452.797L193.925 454.797"/>
	<path fill="none" stroke="black" stroke-width="1" stroke-miterlimit="4" d="M211.148 452.797L211.148 454.797"/>
	<path fill="none" stroke="black" stroke-width="1" stroke-miterlimit="4" d="M245.594 452.797L245.594 454.797"/>
	<path fill="none" stroke="black" stroke-width="1" stroke-miterlimit="4" d="M262.817 452.797L262.817 454.797"/>
	<path fill="none" stroke="black" stroke-width="1" stroke-miterlimit="4" d="M280.04 452.797L280.04 454.797"/>
	<path fill="none" stroke="black" stroke-width="1" stroke-miterlimit="4" d="M297.263 452.797L297.263 454.797"/>
	<path fill="none" stroke="black" stroke-width="1" stroke-miterlimit="4" d="M331.709 452.797L331.709 454.797"/>
	<path fill="none" stroke="black" stroke-width="1" stroke-miterlimit="4" d="M348.932 452.797L348.932 454.797"/>
	<path fill="none" stroke="black" stroke-width="1" stroke-miterlimit="4" d="M366.156 452.797L366.156 454.797"/>
	<path fill="none" stroke="black" stroke-width="1" stroke-miterlimit="4" d="M383.379 452.797L383.379 454.797"/>
	<path fill="none" stroke="black" stroke-width="1" stroke-miterlimit="4" d="M417.825 452.797L417.825 454.797"/>
	<path fill="none" stroke="black" stroke-width="1" stroke-miterlimit="4" d="M435.048 452.797L435.048 454.797"/>
	<path fill="none" stroke="black" stroke-width="1" stroke-miterlimit="4" d="M452.271 452.797L452.271 454.797"/>
	<path fill="none" stroke="black" stroke-width="1" stroke-miterlimit="4" d="M469.494 452.797L469.494 454.797"/>
	<path fill="none" stroke="black" stroke-width="1" stroke-miterlimit="4" d="M503.94 452.797L503.94 454.797"/>
	<path fill="none" stroke="black" stroke-width="1" stroke-miterlimit="4" d="M521.163 452.797L521.163 454.797"/>
	<path fill="none" stroke="black" stroke-width="1" stroke-miterlimit="4" d="M538.386 452.797L538.386 454.797"/>
	<path fill="none" stroke="black" stroke-width="1" stroke-miterlimit="4" d="M555.609 452.797L555.609 454.797"/>
	<path fill="none" stroke="black" stroke-width="1" stroke-miterlimit="4" d="M590.055 452.797L590.055 454.797"/>
	<path fill="none" stroke="black" stroke-width="1" stroke-miterlimit="4" d="M607.278 452.797L607.278 454.797"/>
	<path fill="none" stroke="black" stroke-width="1" stroke-miterlimit="4" d="M624.501 452.797L624.501 454.797"/>
	<path fill="none" stroke="black" stroke-width="1" stroke-miterlimit="4" d="M641.724 452.797L641.724 454.797"/>
	<path fill="none" stroke="black" stroke-width="1" stroke-miterlimit="4" d="M676.17 452.797L676.17 454.797"/>
	<path fill="none" stroke="black" stroke-width="1" stroke-miterlimit="4" d="M693.394 452.797L693.394 454.797"/>
	<path fill="none" stroke="black" stroke-width="1" stroke-miterlimit="4" d="M710.617 452.797L710.617 454.797"/>
	<path fill="none" stroke="black" stroke-width="1" stroke-miterlimit="4" d="M727.84 452.797L727.84 454.797"/>
	<path fill="none" stroke="black" stroke-width="1" stroke-miterlimit="4" d="M762.286 452.797L762.286 454.797"/>
	<path fill="none" stroke="black" stroke-width="1" stroke-miterlimit="4" d="M779.509 452.797L779.509 454.797"/>
	<path fill="none" stroke="black" stroke-width="1" stroke-miterlimit="4" d="M796.732 452.797L796.732 454.797"/>
	<path fill="none" stroke="black" stroke-width="1" stroke-miterlimit="4" d="M813.955 452.797L813.955 454.797"/>
	<path fill="none" stroke="black" stroke-width="1" stroke-miterlimit="4" d="M848.401 452.797L848.401 454.797"/>
	<path fill="none" stroke="black" stroke-width="1" stroke-miterlimit="4" d="M865.624 452.797L865.624 454.797"/>
	<path fill="none" stroke="black" stroke-width="1" stroke-miterlimit="4" d="M882.847 452.797L882.847 454.797"/>
	<path fill="none" stroke="black" stroke-width="1" stroke-miterlimit="4" d="M56.1406 452.797L885 452.797"/>
	<path fill="none" stroke="black" stroke-width="1" stroke-miterlimit="4" d="M56.1406 51.7016L885 51.7016"/>
	<text transform="matrix(0 -1 1 0 4 252.199)" font-size="20" font-weight="600" font-family="Segoe UI" x="-76.762695, -64.477539, -57.094727, -46.333008, -40.649414, -34.96582, -24.125977, -13.305664, -7.7880859, 2.9736328, 10.756836, 16.274414, 25.073242, 32.856445, 43.676758, 56.079102, 61.59668, 69.379883, " y="17.988281, ">
			P(alive at step t)
	</text>
	<path fill="none" stroke="black" stroke-width="1" stroke-miterlimit="4" d="M56.1406 452.797L52.1406 452.797"/>
	<text transform="translate(47.1406 452.797)" font-size="12" font-family="Segoe UI" x="-6.46875, " y="3.046875, ">
			0
	</text>
	<path fill="none" stroke="black" stroke-width="1" stroke-miterlimit="4" d="M56.1406 419.364L52.1406 419.364"/>
	<text transform="translate(47.1406 419.364)" font-size="12" font-family="Segoe UI" x="-15.539063, -9.0703125, -6.46875, " y="3.046875, ">
			0.1
	</text>
	<path fill="none" stroke="black" stroke-width="1" stroke-miterlimit="4" d="M56.1406 385.931L52.1406 385.931"/>
	<text transform="translate(47.1406 385.931)" font-size="12" font-family="Segoe UI" x="-15.539063, -9.0703125, -6.46875, " y="3.046875, ">
			0.2
	</text>
	<path fill="none" stroke="black" stroke-width="1" stroke-miterlimit="4" d="M56.1406 352.498L52.1406 352.498"/>
	<text transform="translate(47.1406 352.498)" font-size="12" font-family="Segoe UI" x="-15.539063, -9.0703125, -6.46875, " y="3.046875, ">
			0.3
	</text>
	<path fill="none" stroke="black" stroke-width="1" stroke-miterlimit="4" d="M56.1406 319.065L52.1406 319.065"/>
	<text transform="translate(47.1406 319.065)" font-size="12" font-family="Segoe UI" x="-15.539063, -9.0703125, -6.46875, " y="3.046875, ">
			0.4
	</text>
	<path fill="none" stroke="black" stroke-width="1" stroke-miterlimit="4" d="M56.1406 285.632L52.1406 285.632"/>
	<text transform="translate(47.1406 285.632)" font-size="12" font-family="Segoe UI" x="-15.539063, -9.0703125, -6.46875, " y="3.046875, ">
			0.5
	</text>
	<path fill="none" stroke="black" stroke-width="1" stroke-miterlimit="4" d="M56.1406 252.199L52.1406 252.199"/>
	<text transform="translate(47.1406 252.199)" font-size="12" font-family="Segoe UI" x="-15.539063, -9.0703125, -6.46875, " y="3.046875, ">
			0.6
	</text>
	<path fill="none" stroke="black" stroke-width="1" stroke-miterlimit="4" d="M56.1406 218.766L52.1406 218.766"/>
	<text transform="translate(47.1406 218.766)" font-size="12" font-family="Segoe UI" x="-15.539063, -9.0703125, -6.46875, " y="3.046875, ">
			0.7
	</text>
	<path fill="none" stroke="black" stroke-width="1" stroke-miterlimit="4" d="M56.1406 185.333L52.1406 185.333"/>
	<text transform="translate(47.1406 185.333)" font-size="12" font-family="Segoe UI" x="-15.539063, -9.0703125, -6.46875, " y="3.046875, ">
			0.8
	</text>
	<path fill="none" stroke="black" stroke-width="1" stroke-miterlimit="4" d="M56.1406 151.9L52.1406 151.9"/>
	<text transform="translate(47.1406 151.9)" font-size="12" font-family="Segoe UI" x="-15.539063, -9.0703125, -6.46875, " y="3.046875, ">
			0.9
	</text>
	<path fill="none" stroke="black" stroke-width="1" stroke-miterlimit="4" d="M56.1406 118.467L52.1406 118.467"/>
	<text transform="translate(47.1406 118.467)" font-size="12" font-family="Segoe UI" x="-6.46875, " y="3.046875, ">
			1
	</text>
	<path fill="none" stroke="black" stroke-width="1" stroke-miterlimit="4" d="M56.1406 85.0345L52.1406 85.0345"/>
	<text transform="translate(47.1406 85.0345)" font-size="12" font-family="Segoe UI" x="-15.539063, -9.0703125, -6.46875, " y="3.046875, ">
			1.1
	</text>
	<path fill="none" stroke="black" stroke-width="1" stroke-miterlimit="4" d="M56.1406 446.11L54.1406 446.11"/>
	<path fill="none" stroke="black" stroke-width="1" stroke-miterlimit="4" d="M56.1406 439.424L54.1406 439.424"/>
	<path fill="none" stroke="black" stroke-width="1" stroke-miterlimit="4" d="M56.1406 432.737L54.1406 432.737"/>
	<path fill="none" stroke="black" stroke-width="1" stroke-miterlimit="4" d="M56.1406 426.051L54.1406 426.051"/>
	<path fill="none" stroke="black" stroke-width="1" stroke-miterlimit="4" d="M56.1406 412.677L54.1406 412.677"/>
	<path fill="none" stroke="black" stroke-width="1" stroke-miterlimit="4" d="M56.1406 405.991L54.1406 405.991"/>
	<path fill="none" stroke="black" stroke-width="1" stroke-miterlimit="4" d="M56.1406 399.304L54.1406 399.304"/>
	<path fill="none" stroke="black" stroke-width="1" stroke-miterlimit="4" d="M56.1406 392.618L54.1406 392.618"/>
	<path fill="none" stroke="black" stroke-width="1" stroke-miterlimit="4" d="M56.1406 379.244L54.1406 379.244"/>
	<path fill="none" stroke="black" stroke-width="1" stroke-miterlimit="4" d="M56.1406 372.558L54.1406 372.558"/>
	<path fill="none" stroke="black" stroke-width="1" stroke-miterlimit="4" d="M56.1406 365.871L54.1406 365.871"/>
	<path fill="none" stroke="black" stroke-width="1" stroke-miterlimit="4" d="M56.1406 359.185L54.1406 359.185"/>
	<path fill="none" stroke="black" stroke-width="1" stroke-miterlimit="4" d="M56.1406 345.811L54.1406 345.811"/>
	<path fill="none" stroke="black" stroke-width="1" stroke-miterlimit="4" d="M56.1406 339.125L54.1406 339.125"/>
	<path fill="none" stroke="black" stroke-width="1" stroke-miterlimit="4" d="M56.1406 332.438L54.1406 332.438"/>
	<path fill="none" stroke="black" stroke-width="1" stroke-miterlimit="4" d="M56.1406 325.752L54.1406 325.752"/>
	<path fill="none" stroke="black" stroke-width="1" stroke-miterlimit="4" d="M56.1406 312.379L54.1406 312.379"/>
	<path fill="none" stroke="black" stroke-width="1" stroke-miterlimit="4" d="M56.1406 305.692L54.1406 305.692"/>
	<path fill="none" stroke="black" stroke-width="1" stroke-miterlimit="4" d="M56.1406 299.005L54.1406 299.005"/>
	<path fill="none" stroke="black" stroke-width="1" stroke-miterlimit="4" d="M56.1406 292.319L54.1406 292.319"/>
	<path fill="none" stroke="black" stroke-width="1" stroke-miterlimit="4" d="M56.1406 278.946L54.1406 278.946"/>
	<path fill="none" stroke="black" stroke-width="1" stroke-miterlimit="4" d="M56.1406 272.259L54.1406 272.259"/>
	<path fill="none" stroke="black" stroke-width="1" stroke-miterlimit="4" d="M56.1406 265.572L54.1406 265.572"/>
	<path fill="none" stroke="black" stroke-width="1" stroke-miterlimit="4" d="M56.1406 258.886L54.1406 258.886"/>
	<path fill="none" stroke="black" stroke-width="1" stroke-miterlimit="4" d="M56.1406 245.513L54.1406 245.513"/>
	<path fill="none" stroke="black" stroke-width="1" stroke-miterlimit="4" d="M56.1406 238.826L54.1406 238.826"/>
	<path fill="none" stroke="black" stroke-width="1" stroke-miterlimit="4" d="M56.1406 232.139L54.1406 232.139"/>
	<path fill="none" stroke="black" stroke-width="1" stroke-miterlimit="4" d="M56.1406 225.453L54.1406 225.453"/>
	<path fill="none" stroke="black" stroke-width="1" stroke-miterlimit="4" d="M56.1406 212.08L54.1406 212.08"/>
	<path fill="none" stroke="black" stroke-width="1" stroke-miterlimit="4" d="M56.1406 205.393L54.1406 205.393"/>
	<path fill="none" stroke="black" stroke-width="1" stroke-miterlimit="4" d="M56.1406 198.707L54.1406 198.707"/>
	<path fill="none" stroke="black" stroke-width="1" stroke-miterlimit="4" d="M56.1406 192.02L54.1406 192.02"/>
	<path fill="none" stroke="black" stroke-width="1" stroke-miterlimit="4" d="M56.1406 178.647L54.1406 178.647"/>
	<path fill="none" stroke="black" stroke-width="1" stroke-miterlimit="4" d="M56.1406 171.96L54.1406 171.96"/>
	<path fill="none" stroke="black" stroke-width="1" stroke-miterlimit="4" d="M56.1406 165.274L54.1406 165.274"/>
	<path fill="none" stroke="black" stroke-width="1" stroke-miterlimit="4" d="M56.1406 158.587L54.1406 158.587"/>
	<path fill="none" stroke="black" stroke-width="1" stroke-miterlimit="4" d="M56.1406 145.214L54.1406 145.214"/>
	<path fill="none" stroke="black" stroke-width="1" stroke-miterlimit="4" d="M56.1406 138.527L54.1406 138.527"/>
	<path fill="none" stroke="black" stroke-width="1" stroke-miterlimit="4" d="M56.1406 131.841L54.1406 131.841"/>
	<path fill="none" stroke="black" stroke-width="1" stroke-miterlimit="4" d="M56.1406 125.154L54.1406 125.154"/>
	<path fill="none" stroke="black" stroke-width="1" stroke-miterlimit="4" d="M56.1406 111.781L54.1406 111.781"/>
	<path fill="none" stroke="black" stroke-width="1" stroke-miterlimit="4" d="M56.1406 105.094L54.1406 105.094"/>
	<path fill="none" stroke="black" stroke-width="1" stroke-miterlimit="4" d="M56.1406 98.4077L54.1406 98.4077"/>
	<path fill="none" stroke="black" stroke-width="1" stroke-miterlimit="4" d="M56.1406 91.7211L54.1406 91.7211"/>
	<path fill="none" stroke="black" stroke-width="1" stroke-miterlimit="4" d="M56.1406 78.3479L54.1406 78.3479"/>
	<path fill="none" stroke="black" stroke-width="1" stroke-miterlimit="4" d="M56.1406 71.6613L54.1406 71.6613"/>
	<path fill="none" stroke="black" stroke-width="1" stroke-miterlimit="4" d="M56.1406 64.9747L54.1406 64.9747"/>
	<path fill="none" stroke="black" stroke-width="1" stroke-miterlimit="4" d="M56.1406 58.2881L54.1406 58.2881"/>
	<path fill="none" stroke="black" stroke-width="1" stroke-miterlimit="4" d="M56.1406 452.797L56.1406 51.6016"/>
	<path fill="none" stroke="black" stroke-width="1" stroke-miterlimit="4" d="M885 452.797L885 51.6016"/>
	<text transform="translate(470.57 36.6016)" font-size="20" font-weight="600" font-family="Segoe UI" x="-217.17285, -205.96191, -193.8623, -185.90332, -175.06348, -169.37988, -158.54004, -147.77832, -142.09473, -136.57715, -124.09668, -111.99707, -104.03809, -93.198242, -82.37793, -73.579102, -68.061523, -55.65918, -44.897461, -39.379883, -28.168945, -18.569336, -7.7490234, 4.3505859, 15.112305, 23.071289, 28.754883, 40.981445, 52.016602, 59.399414, 75.200195, 80.717773, 94.858398, 100.37598, 111.87988, 123.38379, 128.80371, 140.30762, 151.81152, 163.31543, 168.83301, 176.79199, 188.8916, 200.99121, 209.79004, " y="-8.6132813, ">
			Survival Curves by Scenario (N = 10,000 runs)
	</text>
</svg>
